<svg width="842" height="185" viewBox="0 0 842 185" xmlns="http://www.w3.org/2000/svg" xmlns:xlink="http://www.w3.org/1999/xlink"><defs><path d="M82.875 162h61.25a5.375 5.375 0 1 1 0 10.75h-15.75a5.375 5.375 0 0 0-5.375 5.375 5.375 5.375 0 0 1-5.375 5.375h-58.25a5.375 5.375 0 1 1 0-10.75h12.75a5.375 5.375 0 0 0 5.375-5.375A5.375 5.375 0 0 1 82.875 162z" id="a"/></defs><g fill="none" fill-rule="evenodd"><g><g transform="translate(1 1)"><use fill="#FFF" xlink:href="#a"/><path stroke="#A0A6A6" d="M82.875 162.5A4.875 4.875 0 0 0 78 167.375a5.875 5.875 0 0 1-5.875 5.875h-12.75a4.875 4.875 0 0 0 0 9.75h58.25a4.875 4.875 0 0 0 4.875-4.875 5.875 5.875 0 0 1 5.875-5.875h15.75a4.875 4.875 0 0 0 0-9.75h-61.25z"/></g><path d="M86.873 66.25H37.627A3.627 3.627 0 0 0 34 69.877a3.627 3.627 0 0 1-3.627 3.626H4.497a3.497 3.497 0 1 0 0 6.994h19.376a3.627 3.627 0 0 1 3.627 3.626 3.627 3.627 0 0 0 3.627 3.627h61.746a3.627 3.627 0 1 0 0-7.253H76.497a3.497 3.497 0 1 1 0-6.994h10.376a3.627 3.627 0 0 0 0-7.253zM702.485 88h94.708a5.485 5.485 0 0 1 5.484 5.485 5.485 5.485 0 0 0 5.485 5.484h27.55a5.289 5.289 0 1 1 0 10.578H815.71a5.485 5.485 0 0 0-5.484 5.484 5.485 5.485 0 0 1-5.485 5.485h-69.16a5.485 5.485 0 0 1 0-10.97h16.517a5.289 5.289 0 0 0 0-10.578l-49.613.001a5.485 5.485 0 0 1 0-10.97zM582.127 1h25.246A3.627 3.627 0 0 1 611 4.627a3.627 3.627 0 0 0 3.627 3.626h22.376a3.497 3.497 0 0 1 0 6.994h-19.376A3.627 3.627 0 0 0 614 18.873a3.627 3.627 0 0 1-3.627 3.627h-61.746a3.627 3.627 0 1 1 0-7.253h16.376a3.497 3.497 0 0 0 3.497-3.497 3.497 3.497 0 0 1 3.497-3.497h2.876a3.627 3.627 0 0 0 3.627-3.626A3.627 3.627 0 0 1 582.127 1z" stroke="#A0A6A6" fill="#FFF"/></g></g></svg>