<svg width="1051" height="690" xmlns="http://www.w3.org/2000/svg" xmlns:xlink="http://www.w3.org/1999/xlink"><defs><path d="M82.875 162h61.25a5.375 5.375 0 1 1 0 10.75h-15.75a5.375 5.375 0 0 0-5.375 5.375 5.375 5.375 0 0 1-5.375 5.375h-58.25a5.375 5.375 0 1 1 0-10.75h12.75a5.375 5.375 0 0 0 5.375-5.375A5.375 5.375 0 0 1 82.875 162z" id="a"/></defs><g fill="none" fill-rule="evenodd"><g><g><path stroke="#A0A6A6" stroke-width="1.095" d="M161 689h58V557h-58z"/><path d="M116 494h46v-83h-46v83zm.67-.663h44.66v-81.673h-44.66v81.673z" fill="#A0A6A6"/><path d="M116 491h46" stroke="#A0A6A6" stroke-width="1.103"/><path d="M43 637h72v-83H43v83zm.605-.6h70.79v-81.798h-70.79v81.797z" fill="#A0A6A6"/><path d="M79 554v80M115 594H43M115 634H43" stroke="#A0A6A6"/><path d="M116 451h46" stroke="#A0A6A6" stroke-width="1.103"/><path stroke="#A0A6A6" d="M138.903 338L1 497.629V688h262V497.629z"/><path stroke="#A0A6A6" stroke-width="1.095" d="M424 689h58V557h-58z"/><path d="M378 494h46v-83h-46v83zm.67-.663h44.66v-81.673h-44.66v81.673z" fill="#A0A6A6"/><path d="M378 491h46" stroke="#A0A6A6" stroke-width="1.103"/><path d="M306 637h72v-83h-72v83zm.605-.6h70.79v-81.798h-70.79v81.797z" fill="#A0A6A6"/><path d="M342 554v80M378 594h-72M378 634h-72" stroke="#A0A6A6"/><path d="M378 451h46" stroke="#A0A6A6" stroke-width="1.103"/><path stroke="#A0A6A6" d="M401.903 338L264 497.629V688h262V497.629z"/><path stroke="#A0A6A6" stroke-width="1.095" d="M686 689h58V557h-58z"/><path d="M640 494h46v-83h-46v83zm.67-.663h44.66v-81.673h-44.66v81.673z" fill="#A0A6A6"/><path d="M640 491h46" stroke="#A0A6A6" stroke-width="1.103"/><path d="M568 637h72v-83h-72v83zm.605-.6h70.79v-81.798h-70.79v81.797z" fill="#A0A6A6"/><path d="M604 554v80M640 594h-72M640 634h-72" stroke="#A0A6A6"/><path d="M640 451h46" stroke="#A0A6A6" stroke-width="1.103"/><path stroke="#A0A6A6" d="M663.903 338L526 497.629V688h262V497.629z"/><path stroke="#A0A6A6" stroke-width="1.095" d="M948 689h58V557h-58z"/><path d="M830 637h72v-83h-72v83zm.605-.6h70.79v-81.798h-70.79v81.797z" fill="#A0A6A6"/><path d="M866 554v80M902 594h-72M902 634h-72" stroke="#A0A6A6"/><g stroke="#A0A6A6"><path d="M871.915 400.967l-83.785 96.96v190.385h262.088V497.927l-73.283-94.241c-26.323-33.85-76.985-35.162-105.02-2.72z"/><path d="M952.743 445.375c0 16.541-13.394 29.951-29.916 29.951s-29.917-13.41-29.917-29.951c0-16.542 13.395-29.952 29.917-29.952 16.522 0 29.916 13.41 29.916 29.952z" stroke-width="1.436"/><path d="M923.129 415.423v59.903M892.91 445.677h59.833"/></g></g><g><g transform="translate(76 1)"><use fill="#FFF" xlink:href="#a"/><path stroke="#A0A6A6" d="M82.875 162.5A4.875 4.875 0 0 0 78 167.375a5.875 5.875 0 0 1-5.875 5.875h-12.75a4.875 4.875 0 0 0 0 9.75h58.25a4.875 4.875 0 0 0 4.875-4.875 5.875 5.875 0 0 1 5.875-5.875h15.75a4.875 4.875 0 0 0 0-9.75h-61.25z"/></g><path d="M161.873 66.25h-49.246A3.627 3.627 0 0 0 109 69.877a3.627 3.627 0 0 1-3.627 3.626H79.497a3.497 3.497 0 1 0 0 6.994h19.376a3.627 3.627 0 0 1 3.627 3.626 3.627 3.627 0 0 0 3.627 3.627h61.746a3.627 3.627 0 1 0 0-7.253h-16.376a3.497 3.497 0 1 1 0-6.994h10.376a3.627 3.627 0 0 0 0-7.253zM777.485 88h94.708a5.485 5.485 0 0 1 5.484 5.485 5.485 5.485 0 0 0 5.485 5.484h27.55a5.289 5.289 0 1 1 0 10.578H890.71a5.485 5.485 0 0 0-5.484 5.484 5.485 5.485 0 0 1-5.485 5.485h-69.16a5.485 5.485 0 0 1 0-10.97h16.517a5.289 5.289 0 0 0 0-10.578l-49.613.001a5.485 5.485 0 0 1 0-10.97zM657.127 1h25.246A3.627 3.627 0 0 1 686 4.627a3.627 3.627 0 0 0 3.627 3.626h22.376a3.497 3.497 0 0 1 0 6.994h-19.376A3.627 3.627 0 0 0 689 18.873a3.627 3.627 0 0 1-3.627 3.627h-61.746a3.627 3.627 0 1 1 0-7.253h16.376a3.497 3.497 0 0 0 3.497-3.497 3.497 3.497 0 0 1 3.497-3.497h2.876a3.627 3.627 0 0 0 3.627-3.626A3.627 3.627 0 0 1 657.127 1z" stroke="#A0A6A6" fill="#FFF"/></g></g></g></svg>