<svg width="1051" height="352" xmlns="http://www.w3.org/2000/svg"><g fill="none" fill-rule="evenodd"><g><path stroke="#A0A6A6" stroke-width="1.095" d="M161 351h58V219h-58z"/><path d="M116 156h46V73h-46v83zm.67-.663h44.66V73.664h-44.66v81.673z" fill="#A0A6A6"/><path d="M116 153h46" stroke="#A0A6A6" stroke-width="1.103"/><path d="M43 299h72v-83H43v83zm.605-.6h70.79v-81.798h-70.79v81.797z" fill="#A0A6A6"/><path d="M79 216v80M115 256H43M115 296H43" stroke="#A0A6A6"/><path d="M116 113h46" stroke="#A0A6A6" stroke-width="1.103"/><path stroke="#A0A6A6" d="M138.903 0L1 159.629V350h262V159.629z"/><path stroke="#A0A6A6" stroke-width="1.095" d="M424 351h58V219h-58z"/><path d="M378 156h46V73h-46v83zm.67-.663h44.66V73.664h-44.66v81.673z" fill="#A0A6A6"/><path d="M378 153h46" stroke="#A0A6A6" stroke-width="1.103"/><path d="M306 299h72v-83h-72v83zm.605-.6h70.79v-81.798h-70.79v81.797z" fill="#A0A6A6"/><path d="M342 216v80M378 256h-72M378 296h-72" stroke="#A0A6A6"/><path d="M378 113h46" stroke="#A0A6A6" stroke-width="1.103"/><path stroke="#A0A6A6" d="M401.903 0L264 159.629V350h262V159.629z"/><path stroke="#A0A6A6" stroke-width="1.095" d="M686 351h58V219h-58z"/><path d="M640 156h46V73h-46v83zm.67-.663h44.66V73.664h-44.66v81.673z" fill="#A0A6A6"/><path d="M640 153h46" stroke="#A0A6A6" stroke-width="1.103"/><path d="M568 299h72v-83h-72v83zm.605-.6h70.79v-81.798h-70.79v81.797z" fill="#A0A6A6"/><path d="M604 216v80M640 256h-72M640 296h-72" stroke="#A0A6A6"/><path d="M640 113h46" stroke="#A0A6A6" stroke-width="1.103"/><path stroke="#A0A6A6" d="M663.903 0L526 159.629V350h262V159.629z"/><path stroke="#A0A6A6" stroke-width="1.095" d="M948 351h58V219h-58z"/><path d="M830 299h72v-83h-72v83zm.605-.6h70.79v-81.798h-70.79v81.797z" fill="#A0A6A6"/><path d="M866 216v80M902 256h-72M902 296h-72" stroke="#A0A6A6"/><g stroke="#A0A6A6"><path d="M871.915 62.967l-83.785 96.96v190.385h262.088V159.927l-73.283-94.241c-26.323-33.85-76.985-35.162-105.02-2.72z"/><path d="M952.743 107.375c0 16.541-13.394 29.951-29.916 29.951s-29.917-13.41-29.917-29.951c0-16.542 13.395-29.952 29.917-29.952 16.522 0 29.916 13.41 29.916 29.952z" stroke-width="1.436"/><path d="M923.129 77.423v59.903M892.91 107.677h59.833"/></g></g></g></svg>