<svg width="1071" height="20" viewBox="0 0 1071 20" xmlns="http://www.w3.org/2000/svg"><g fill="none" fill-rule="evenodd"><g><g><path fill="#F0F1F1" d="M0 20h18.514V0H0z"/><path fill="#FFF" d="M1.09 16.486h16.88V3.784H1.09zM1.09 19.46h1.633v-2.163H1.089zM4.356 19.46H5.99v-2.163H4.356zM6.807 19.46H8.44v-2.163H6.807zM10.074 19.46h1.633v-2.163h-1.633zM13.341 19.46h1.634v-2.163H13.34zM16.336 19.46h1.633v-2.163h-1.633zM1.09 2.703h1.633V.54H1.089zM4.356 2.703H5.99V.54H4.356zM6.807 2.703H8.44V.54H6.807zM10.074 2.703h1.633V.54h-1.633zM13.341 2.703h1.634V.54H13.34zM16.336 2.703h1.633V.54h-1.633z"/><path fill="#F0F1F1" d="M17.97 20h18.513V0H17.97z"/><path fill="#FFF" d="M19.059 16.486h16.88V3.784h-16.88zM19.059 19.46h1.633v-2.163H19.06zM21.781 19.46h1.634v-2.163H21.78zM24.776 19.46h1.634v-2.163h-1.634zM28.043 19.46h1.634v-2.163h-1.634zM30.766 19.46h1.633v-2.163h-1.633zM34.033 19.46h1.634v-2.163h-1.634zM19.059 2.703h1.633V.54H19.06zM21.781 2.703h1.634V.54H21.78zM24.776 2.703h1.634V.54h-1.634zM28.043 2.703h1.634V.54h-1.634zM30.766 2.703h1.633V.54h-1.633zM34.033 2.703h1.634V.54h-1.634z"/><path fill="#F0F1F1" d="M35.394 20h18.514V0H35.394z"/><path fill="#FFF" d="M36.483 16.486h16.88V3.784h-16.88zM36.483 19.46h1.634v-2.163h-1.634zM39.75 19.46h1.634v-2.163h-1.633zM43.018 19.46h1.633v-2.163h-1.633zM45.468 19.46h1.634v-2.163h-1.634zM48.735 19.46h1.634v-2.163h-1.634zM52.003 19.46h1.633v-2.163h-1.633zM36.483 2.703h1.634V.54h-1.634zM39.75 2.703h1.634V.54h-1.633zM43.018 2.703h1.633V.54h-1.633zM45.468 2.703h1.634V.54h-1.634zM48.735 2.703h1.634V.54h-1.634zM52.003 2.703h1.633V.54h-1.633z"/><path fill="#F0F1F1" d="M53.636 20H72.15V0H53.636z"/><path fill="#FFF" d="M54.453 16.486h16.88V3.784h-16.88zM54.453 19.46h1.634v-2.163h-1.634zM57.72 19.46h1.634v-2.163H57.72zM60.443 19.46h1.633v-2.163h-1.633zM63.438 19.46h1.633v-2.163h-1.633zM66.705 19.46h1.633v-2.163h-1.633zM69.427 19.46h1.634v-2.163h-1.634zM54.453 2.703h1.634V.54h-1.634zM57.72 2.703h1.634V.54H57.72zM60.443 2.703h1.633V.54h-1.633zM63.438 2.703h1.633V.54h-1.633zM66.705 2.703h1.633V.54h-1.633zM69.427 2.703h1.634V.54h-1.634z"/><path fill="#F0F1F1" d="M71.606 20H90.12V0H71.606z"/><path fill="#FFF" d="M72.695 16.486h16.88V3.784h-16.88zM72.695 19.46h1.633v-2.163h-1.633zM75.145 19.46h1.634v-2.163h-1.634zM78.412 19.46h1.634v-2.163h-1.634zM81.68 19.46h1.633v-2.163h-1.634zM84.13 19.46h1.633v-2.163H84.13zM87.397 19.46h1.634v-2.163h-1.634zM72.695 2.703h1.633V.54h-1.633zM75.145 2.703h1.634V.54h-1.634zM78.412 2.703h1.634V.54h-1.634zM81.68 2.703h1.633V.54h-1.634zM84.13 2.703h1.633V.54H84.13zM87.397 2.703h1.634V.54h-1.634z"/><path fill="#F0F1F1" d="M89.03 20H107V0H89.03z"/><path fill="#FFF" d="M90.12 16.486H107V3.784H90.12zM90.12 19.46h1.633v-2.163H90.12zM93.115 19.46h1.633v-2.163h-1.633zM96.382 19.46h1.633v-2.163h-1.633zM99.104 19.46h1.634v-2.163h-1.634zM102.1 19.46h1.633v-2.163h-1.634zM105.366 19.46H107v-2.163h-1.634zM90.12 2.703h1.633V.54H90.12zM93.115 2.703h1.633V.54h-1.633zM96.382 2.703h1.633V.54h-1.633zM99.104 2.703h1.634V.54h-1.634zM102.1 2.703h1.633V.54h-1.634zM105.366 2.703H107V.54h-1.634z"/></g><g><path fill="#F0F1F1" d="M107 20h18.514V0H107z"/><path fill="#FFF" d="M108.09 16.486h16.88V3.784h-16.88zM108.09 19.46h1.633v-2.163h-1.634zM111.356 19.46h1.634v-2.163h-1.634zM113.807 19.46h1.633v-2.163h-1.633zM117.074 19.46h1.633v-2.163h-1.633zM120.341 19.46h1.634v-2.163h-1.634zM123.336 19.46h1.633v-2.163h-1.633zM108.09 2.703h1.633V.54h-1.634zM111.356 2.703h1.634V.54h-1.634zM113.807 2.703h1.633V.54h-1.633zM117.074 2.703h1.633V.54h-1.633zM120.341 2.703h1.634V.54h-1.634zM123.336 2.703h1.633V.54h-1.633z"/><path fill="#F0F1F1" d="M124.97 20h18.513V0H124.97z"/><path fill="#FFF" d="M126.059 16.486h16.88V3.784h-16.88zM126.059 19.46h1.633v-2.163h-1.633zM128.781 19.46h1.634v-2.163h-1.634zM131.776 19.46h1.634v-2.163h-1.634zM135.043 19.46h1.634v-2.163h-1.634zM137.766 19.46h1.633v-2.163h-1.633zM141.033 19.46h1.634v-2.163h-1.634zM126.059 2.703h1.633V.54h-1.633zM128.781 2.703h1.634V.54h-1.634zM131.776 2.703h1.634V.54h-1.634zM135.043 2.703h1.634V.54h-1.634zM137.766 2.703h1.633V.54h-1.633zM141.033 2.703h1.634V.54h-1.634z"/><path fill="#F0F1F1" d="M142.394 20h18.514V0h-18.514z"/><path fill="#FFF" d="M143.483 16.486h16.88V3.784h-16.88zM143.483 19.46h1.634v-2.163h-1.634zM146.75 19.46h1.634v-2.163h-1.633zM150.018 19.46h1.633v-2.163h-1.633zM152.468 19.46h1.634v-2.163h-1.634zM155.735 19.46h1.634v-2.163h-1.634zM159.003 19.46h1.633v-2.163h-1.633zM143.483 2.703h1.634V.54h-1.634zM146.75 2.703h1.634V.54h-1.633zM150.018 2.703h1.633V.54h-1.633zM152.468 2.703h1.634V.54h-1.634zM155.735 2.703h1.634V.54h-1.634zM159.003 2.703h1.633V.54h-1.633z"/><path fill="#F0F1F1" d="M160.636 20h18.514V0h-18.514z"/><path fill="#FFF" d="M161.453 16.486h16.88V3.784h-16.88zM161.453 19.46h1.634v-2.163h-1.634zM164.72 19.46h1.634v-2.163h-1.634zM167.443 19.46h1.633v-2.163h-1.633zM170.438 19.46h1.633v-2.163h-1.633zM173.705 19.46h1.633v-2.163h-1.633zM176.427 19.46h1.634v-2.163h-1.634zM161.453 2.703h1.634V.54h-1.634zM164.72 2.703h1.634V.54h-1.634zM167.443 2.703h1.633V.54h-1.633zM170.438 2.703h1.633V.54h-1.633zM173.705 2.703h1.633V.54h-1.633zM176.427 2.703h1.634V.54h-1.634z"/><path fill="#F0F1F1" d="M178.606 20h18.514V0h-18.514z"/><path fill="#FFF" d="M179.695 16.486h16.88V3.784h-16.88zM179.695 19.46h1.633v-2.163h-1.633zM182.145 19.46h1.634v-2.163h-1.634zM185.412 19.46h1.634v-2.163h-1.634zM188.68 19.46h1.633v-2.163h-1.634zM191.13 19.46h1.633v-2.163h-1.633zM194.397 19.46h1.634v-2.163h-1.634zM179.695 2.703h1.633V.54h-1.633zM182.145 2.703h1.634V.54h-1.634zM185.412 2.703h1.634V.54h-1.634zM188.68 2.703h1.633V.54h-1.634zM191.13 2.703h1.633V.54h-1.633zM194.397 2.703h1.634V.54h-1.634z"/><path fill="#F0F1F1" d="M196.03 20H214V0h-17.97z"/><path fill="#FFF" d="M197.12 16.486H214V3.784h-16.88zM197.12 19.46h1.633v-2.163h-1.633zM200.115 19.46h1.633v-2.163h-1.633zM203.382 19.46h1.633v-2.163h-1.633zM206.104 19.46h1.634v-2.163h-1.634zM209.1 19.46h1.633v-2.163h-1.634zM212.366 19.46H214v-2.163h-1.634zM197.12 2.703h1.633V.54h-1.633zM200.115 2.703h1.633V.54h-1.633zM203.382 2.703h1.633V.54h-1.633zM206.104 2.703h1.634V.54h-1.634zM209.1 2.703h1.633V.54h-1.634zM212.366 2.703H214V.54h-1.634z"/></g><g><path fill="#F0F1F1" d="M214 20h18.514V0H214z"/><path fill="#FFF" d="M215.09 16.486h16.88V3.784h-16.88zM215.09 19.46h1.633v-2.163h-1.634zM218.356 19.46h1.634v-2.163h-1.634zM220.807 19.46h1.633v-2.163h-1.633zM224.074 19.46h1.633v-2.163h-1.633zM227.341 19.46h1.634v-2.163h-1.634zM230.336 19.46h1.633v-2.163h-1.633zM215.09 2.703h1.633V.54h-1.634zM218.356 2.703h1.634V.54h-1.634zM220.807 2.703h1.633V.54h-1.633zM224.074 2.703h1.633V.54h-1.633zM227.341 2.703h1.634V.54h-1.634zM230.336 2.703h1.633V.54h-1.633z"/><path fill="#F0F1F1" d="M231.97 20h18.513V0H231.97z"/><path fill="#FFF" d="M233.059 16.486h16.88V3.784h-16.88zM233.059 19.46h1.633v-2.163h-1.633zM235.781 19.46h1.634v-2.163h-1.634zM238.776 19.46h1.634v-2.163h-1.634zM242.043 19.46h1.634v-2.163h-1.634zM244.766 19.46h1.633v-2.163h-1.633zM248.033 19.46h1.634v-2.163h-1.634zM233.059 2.703h1.633V.54h-1.633zM235.781 2.703h1.634V.54h-1.634zM238.776 2.703h1.634V.54h-1.634zM242.043 2.703h1.634V.54h-1.634zM244.766 2.703h1.633V.54h-1.633zM248.033 2.703h1.634V.54h-1.634z"/><path fill="#F0F1F1" d="M249.394 20h18.514V0h-18.514z"/><path fill="#FFF" d="M250.483 16.486h16.88V3.784h-16.88zM250.483 19.46h1.634v-2.163h-1.634zM253.75 19.46h1.634v-2.163h-1.633zM257.018 19.46h1.633v-2.163h-1.633zM259.468 19.46h1.634v-2.163h-1.634zM262.735 19.46h1.634v-2.163h-1.634zM266.003 19.46h1.633v-2.163h-1.633zM250.483 2.703h1.634V.54h-1.634zM253.75 2.703h1.634V.54h-1.633zM257.018 2.703h1.633V.54h-1.633zM259.468 2.703h1.634V.54h-1.634zM262.735 2.703h1.634V.54h-1.634zM266.003 2.703h1.633V.54h-1.633z"/><path fill="#F0F1F1" d="M267.636 20h18.514V0h-18.514z"/><path fill="#FFF" d="M268.453 16.486h16.88V3.784h-16.88zM268.453 19.46h1.634v-2.163h-1.634zM271.72 19.46h1.634v-2.163h-1.634zM274.443 19.46h1.633v-2.163h-1.633zM277.438 19.46h1.633v-2.163h-1.633zM280.705 19.46h1.633v-2.163h-1.633zM283.427 19.46h1.634v-2.163h-1.634zM268.453 2.703h1.634V.54h-1.634zM271.72 2.703h1.634V.54h-1.634zM274.443 2.703h1.633V.54h-1.633zM277.438 2.703h1.633V.54h-1.633zM280.705 2.703h1.633V.54h-1.633zM283.427 2.703h1.634V.54h-1.634z"/><path fill="#F0F1F1" d="M285.606 20h18.514V0h-18.514z"/><path fill="#FFF" d="M286.695 16.486h16.88V3.784h-16.88zM286.695 19.46h1.633v-2.163h-1.633zM289.145 19.46h1.634v-2.163h-1.634zM292.412 19.46h1.634v-2.163h-1.634zM295.68 19.46h1.633v-2.163h-1.634zM298.13 19.46h1.633v-2.163h-1.633zM301.397 19.46h1.634v-2.163h-1.634zM286.695 2.703h1.633V.54h-1.633zM289.145 2.703h1.634V.54h-1.634zM292.412 2.703h1.634V.54h-1.634zM295.68 2.703h1.633V.54h-1.634zM298.13 2.703h1.633V.54h-1.633zM301.397 2.703h1.634V.54h-1.634z"/><path fill="#F0F1F1" d="M303.03 20H321V0h-17.97z"/><path fill="#FFF" d="M304.12 16.486H321V3.784h-16.88zM304.12 19.46h1.633v-2.163h-1.633zM307.115 19.46h1.633v-2.163h-1.633zM310.382 19.46h1.633v-2.163h-1.633zM313.104 19.46h1.634v-2.163h-1.634zM316.1 19.46h1.633v-2.163h-1.634zM319.366 19.46H321v-2.163h-1.634zM304.12 2.703h1.633V.54h-1.633zM307.115 2.703h1.633V.54h-1.633zM310.382 2.703h1.633V.54h-1.633zM313.104 2.703h1.634V.54h-1.634zM316.1 2.703h1.633V.54h-1.634zM319.366 2.703H321V.54h-1.634z"/></g><g><path fill="#F0F1F1" d="M321 20h18.514V0H321z"/><path fill="#FFF" d="M322.09 16.486h16.88V3.784h-16.88zM322.09 19.46h1.633v-2.163h-1.634zM325.356 19.46h1.634v-2.163h-1.634zM327.807 19.46h1.633v-2.163h-1.633zM331.074 19.46h1.633v-2.163h-1.633zM334.341 19.46h1.634v-2.163h-1.634zM337.336 19.46h1.633v-2.163h-1.633zM322.09 2.703h1.633V.54h-1.634zM325.356 2.703h1.634V.54h-1.634zM327.807 2.703h1.633V.54h-1.633zM331.074 2.703h1.633V.54h-1.633zM334.341 2.703h1.634V.54h-1.634zM337.336 2.703h1.633V.54h-1.633z"/><path fill="#F0F1F1" d="M338.97 20h18.513V0H338.97z"/><path fill="#FFF" d="M340.059 16.486h16.88V3.784h-16.88zM340.059 19.46h1.633v-2.163h-1.633zM342.781 19.46h1.634v-2.163h-1.634zM345.776 19.46h1.634v-2.163h-1.634zM349.043 19.46h1.634v-2.163h-1.634zM351.766 19.46h1.633v-2.163h-1.633zM355.033 19.46h1.634v-2.163h-1.634zM340.059 2.703h1.633V.54h-1.633zM342.781 2.703h1.634V.54h-1.634zM345.776 2.703h1.634V.54h-1.634zM349.043 2.703h1.634V.54h-1.634zM351.766 2.703h1.633V.54h-1.633zM355.033 2.703h1.634V.54h-1.634z"/><path fill="#F0F1F1" d="M356.394 20h18.514V0h-18.514z"/><path fill="#FFF" d="M357.483 16.486h16.88V3.784h-16.88zM357.483 19.46h1.634v-2.163h-1.634zM360.75 19.46h1.634v-2.163h-1.633zM364.018 19.46h1.633v-2.163h-1.633zM366.468 19.46h1.634v-2.163h-1.634zM369.735 19.46h1.634v-2.163h-1.634zM373.003 19.46h1.633v-2.163h-1.633zM357.483 2.703h1.634V.54h-1.634zM360.75 2.703h1.634V.54h-1.633zM364.018 2.703h1.633V.54h-1.633zM366.468 2.703h1.634V.54h-1.634zM369.735 2.703h1.634V.54h-1.634zM373.003 2.703h1.633V.54h-1.633z"/><path fill="#F0F1F1" d="M374.636 20h18.514V0h-18.514z"/><path fill="#FFF" d="M375.453 16.486h16.88V3.784h-16.88zM375.453 19.46h1.634v-2.163h-1.634zM378.72 19.46h1.634v-2.163h-1.634zM381.443 19.46h1.633v-2.163h-1.633zM384.438 19.46h1.633v-2.163h-1.633zM387.705 19.46h1.633v-2.163h-1.633zM390.427 19.46h1.634v-2.163h-1.634zM375.453 2.703h1.634V.54h-1.634zM378.72 2.703h1.634V.54h-1.634zM381.443 2.703h1.633V.54h-1.633zM384.438 2.703h1.633V.54h-1.633zM387.705 2.703h1.633V.54h-1.633zM390.427 2.703h1.634V.54h-1.634z"/><path fill="#F0F1F1" d="M392.606 20h18.514V0h-18.514z"/><path fill="#FFF" d="M393.695 16.486h16.88V3.784h-16.88zM393.695 19.46h1.633v-2.163h-1.633zM396.145 19.46h1.634v-2.163h-1.634zM399.412 19.46h1.634v-2.163h-1.634zM402.68 19.46h1.633v-2.163h-1.634zM405.13 19.46h1.633v-2.163h-1.633zM408.397 19.46h1.634v-2.163h-1.634zM393.695 2.703h1.633V.54h-1.633zM396.145 2.703h1.634V.54h-1.634zM399.412 2.703h1.634V.54h-1.634zM402.68 2.703h1.633V.54h-1.634zM405.13 2.703h1.633V.54h-1.633zM408.397 2.703h1.634V.54h-1.634z"/><path fill="#F0F1F1" d="M410.03 20H428V0h-17.97z"/><path fill="#FFF" d="M411.12 16.486H428V3.784h-16.88zM411.12 19.46h1.633v-2.163h-1.633zM414.115 19.46h1.633v-2.163h-1.633zM417.382 19.46h1.633v-2.163h-1.633zM420.104 19.46h1.634v-2.163h-1.634zM423.1 19.46h1.633v-2.163h-1.634zM426.366 19.46H428v-2.163h-1.634zM411.12 2.703h1.633V.54h-1.633zM414.115 2.703h1.633V.54h-1.633zM417.382 2.703h1.633V.54h-1.633zM420.104 2.703h1.634V.54h-1.634zM423.1 2.703h1.633V.54h-1.634zM426.366 2.703H428V.54h-1.634z"/></g><g><path fill="#F0F1F1" d="M428 20h18.514V0H428z"/><path fill="#FFF" d="M429.09 16.486h16.88V3.784h-16.88zM429.09 19.46h1.633v-2.163h-1.634zM432.356 19.46h1.634v-2.163h-1.634zM434.807 19.46h1.633v-2.163h-1.633zM438.074 19.46h1.633v-2.163h-1.633zM441.341 19.46h1.634v-2.163h-1.634zM444.336 19.46h1.633v-2.163h-1.633zM429.09 2.703h1.633V.54h-1.634zM432.356 2.703h1.634V.54h-1.634zM434.807 2.703h1.633V.54h-1.633zM438.074 2.703h1.633V.54h-1.633zM441.341 2.703h1.634V.54h-1.634zM444.336 2.703h1.633V.54h-1.633z"/><path fill="#F0F1F1" d="M445.97 20h18.513V0H445.97z"/><path fill="#FFF" d="M447.059 16.486h16.88V3.784h-16.88zM447.059 19.46h1.633v-2.163h-1.633zM449.781 19.46h1.634v-2.163h-1.634zM452.776 19.46h1.634v-2.163h-1.634zM456.043 19.46h1.634v-2.163h-1.634zM458.766 19.46h1.633v-2.163h-1.633zM462.033 19.46h1.634v-2.163h-1.634zM447.059 2.703h1.633V.54h-1.633zM449.781 2.703h1.634V.54h-1.634zM452.776 2.703h1.634V.54h-1.634zM456.043 2.703h1.634V.54h-1.634zM458.766 2.703h1.633V.54h-1.633zM462.033 2.703h1.634V.54h-1.634z"/><path fill="#F0F1F1" d="M463.394 20h18.514V0h-18.514z"/><path fill="#FFF" d="M464.483 16.486h16.88V3.784h-16.88zM464.483 19.46h1.634v-2.163h-1.634zM467.75 19.46h1.634v-2.163h-1.633zM471.018 19.46h1.633v-2.163h-1.633zM473.468 19.46h1.634v-2.163h-1.634zM476.735 19.46h1.634v-2.163h-1.634zM480.003 19.46h1.633v-2.163h-1.633zM464.483 2.703h1.634V.54h-1.634zM467.75 2.703h1.634V.54h-1.633zM471.018 2.703h1.633V.54h-1.633zM473.468 2.703h1.634V.54h-1.634zM476.735 2.703h1.634V.54h-1.634zM480.003 2.703h1.633V.54h-1.633z"/><path fill="#F0F1F1" d="M481.636 20h18.514V0h-18.514z"/><path fill="#FFF" d="M482.453 16.486h16.88V3.784h-16.88zM482.453 19.46h1.634v-2.163h-1.634zM485.72 19.46h1.634v-2.163h-1.634zM488.443 19.46h1.633v-2.163h-1.633zM491.438 19.46h1.633v-2.163h-1.633zM494.705 19.46h1.633v-2.163h-1.633zM497.427 19.46h1.634v-2.163h-1.634zM482.453 2.703h1.634V.54h-1.634zM485.72 2.703h1.634V.54h-1.634zM488.443 2.703h1.633V.54h-1.633zM491.438 2.703h1.633V.54h-1.633zM494.705 2.703h1.633V.54h-1.633zM497.427 2.703h1.634V.54h-1.634z"/><path fill="#F0F1F1" d="M499.606 20h18.514V0h-18.514z"/><path fill="#FFF" d="M500.695 16.486h16.88V3.784h-16.88zM500.695 19.46h1.633v-2.163h-1.633zM503.145 19.46h1.634v-2.163h-1.634zM506.412 19.46h1.634v-2.163h-1.634zM509.68 19.46h1.633v-2.163h-1.634zM512.13 19.46h1.633v-2.163h-1.633zM515.397 19.46h1.634v-2.163h-1.634zM500.695 2.703h1.633V.54h-1.633zM503.145 2.703h1.634V.54h-1.634zM506.412 2.703h1.634V.54h-1.634zM509.68 2.703h1.633V.54h-1.634zM512.13 2.703h1.633V.54h-1.633zM515.397 2.703h1.634V.54h-1.634z"/><path fill="#F0F1F1" d="M517.03 20H535V0h-17.97z"/><path fill="#FFF" d="M518.12 16.486H535V3.784h-16.88zM518.12 19.46h1.633v-2.163h-1.633zM521.115 19.46h1.633v-2.163h-1.633zM524.382 19.46h1.633v-2.163h-1.633zM527.104 19.46h1.634v-2.163h-1.634zM530.1 19.46h1.633v-2.163h-1.634zM533.366 19.46H535v-2.163h-1.634zM518.12 2.703h1.633V.54h-1.633zM521.115 2.703h1.633V.54h-1.633zM524.382 2.703h1.633V.54h-1.633zM527.104 2.703h1.634V.54h-1.634zM530.1 2.703h1.633V.54h-1.634zM533.366 2.703H535V.54h-1.634z"/></g><g><path fill="#F0F1F1" d="M749 20h18.514V0H749z"/><path fill="#FFF" d="M750.09 16.486h16.88V3.784h-16.88zM750.09 19.46h1.633v-2.163h-1.634zM753.356 19.46h1.634v-2.163h-1.634zM755.807 19.46h1.633v-2.163h-1.633zM759.074 19.46h1.633v-2.163h-1.633zM762.341 19.46h1.634v-2.163h-1.634zM765.336 19.46h1.633v-2.163h-1.633zM750.09 2.703h1.633V.54h-1.634zM753.356 2.703h1.634V.54h-1.634zM755.807 2.703h1.633V.54h-1.633zM759.074 2.703h1.633V.54h-1.633zM762.341 2.703h1.634V.54h-1.634zM765.336 2.703h1.633V.54h-1.633z"/><path fill="#F0F1F1" d="M766.97 20h18.513V0H766.97z"/><path fill="#FFF" d="M768.059 16.486h16.88V3.784h-16.88zM768.059 19.46h1.633v-2.163h-1.633zM770.781 19.46h1.634v-2.163h-1.634zM773.776 19.46h1.634v-2.163h-1.634zM777.043 19.46h1.634v-2.163h-1.634zM779.766 19.46h1.633v-2.163h-1.633zM783.033 19.46h1.634v-2.163h-1.634zM768.059 2.703h1.633V.54h-1.633zM770.781 2.703h1.634V.54h-1.634zM773.776 2.703h1.634V.54h-1.634zM777.043 2.703h1.634V.54h-1.634zM779.766 2.703h1.633V.54h-1.633zM783.033 2.703h1.634V.54h-1.634z"/><path fill="#F0F1F1" d="M784.394 20h18.514V0h-18.514z"/><path fill="#FFF" d="M785.483 16.486h16.88V3.784h-16.88zM785.483 19.46h1.634v-2.163h-1.634zM788.75 19.46h1.634v-2.163h-1.633zM792.018 19.46h1.633v-2.163h-1.633zM794.468 19.46h1.634v-2.163h-1.634zM797.735 19.46h1.634v-2.163h-1.634zM801.003 19.46h1.633v-2.163h-1.633zM785.483 2.703h1.634V.54h-1.634zM788.75 2.703h1.634V.54h-1.633zM792.018 2.703h1.633V.54h-1.633zM794.468 2.703h1.634V.54h-1.634zM797.735 2.703h1.634V.54h-1.634zM801.003 2.703h1.633V.54h-1.633z"/><path fill="#F0F1F1" d="M802.636 20h18.514V0h-18.514z"/><path fill="#FFF" d="M803.453 16.486h16.88V3.784h-16.88zM803.453 19.46h1.634v-2.163h-1.634zM806.72 19.46h1.634v-2.163h-1.634zM809.443 19.46h1.633v-2.163h-1.633zM812.438 19.46h1.633v-2.163h-1.633zM815.705 19.46h1.633v-2.163h-1.633zM818.427 19.46h1.634v-2.163h-1.634zM803.453 2.703h1.634V.54h-1.634zM806.72 2.703h1.634V.54h-1.634zM809.443 2.703h1.633V.54h-1.633zM812.438 2.703h1.633V.54h-1.633zM815.705 2.703h1.633V.54h-1.633zM818.427 2.703h1.634V.54h-1.634z"/><path fill="#F0F1F1" d="M820.606 20h18.514V0h-18.514z"/><path fill="#FFF" d="M821.695 16.486h16.88V3.784h-16.88zM821.695 19.46h1.633v-2.163h-1.633zM824.145 19.46h1.634v-2.163h-1.634zM827.412 19.46h1.634v-2.163h-1.634zM830.68 19.46h1.633v-2.163h-1.634zM833.13 19.46h1.633v-2.163h-1.633zM836.397 19.46h1.634v-2.163h-1.634zM821.695 2.703h1.633V.54h-1.633zM824.145 2.703h1.634V.54h-1.634zM827.412 2.703h1.634V.54h-1.634zM830.68 2.703h1.633V.54h-1.634zM833.13 2.703h1.633V.54h-1.633zM836.397 2.703h1.634V.54h-1.634z"/><path fill="#F0F1F1" d="M838.03 20H856V0h-17.97z"/><path fill="#FFF" d="M839.12 16.486H856V3.784h-16.88zM839.12 19.46h1.633v-2.163h-1.633zM842.115 19.46h1.633v-2.163h-1.633zM845.382 19.46h1.633v-2.163h-1.633zM848.104 19.46h1.634v-2.163h-1.634zM851.1 19.46h1.633v-2.163h-1.634zM854.366 19.46H856v-2.163h-1.634zM839.12 2.703h1.633V.54h-1.633zM842.115 2.703h1.633V.54h-1.633zM845.382 2.703h1.633V.54h-1.633zM848.104 2.703h1.634V.54h-1.634zM851.1 2.703h1.633V.54h-1.634zM854.366 2.703H856V.54h-1.634z"/></g><g><path fill="#F0F1F1" d="M535 20h18.514V0H535z"/><path fill="#FFF" d="M536.09 16.486h16.88V3.784h-16.88zM536.09 19.46h1.633v-2.163h-1.634zM539.356 19.46h1.634v-2.163h-1.634zM541.807 19.46h1.633v-2.163h-1.633zM545.074 19.46h1.633v-2.163h-1.633zM548.341 19.46h1.634v-2.163h-1.634zM551.336 19.46h1.633v-2.163h-1.633zM536.09 2.703h1.633V.54h-1.634zM539.356 2.703h1.634V.54h-1.634zM541.807 2.703h1.633V.54h-1.633zM545.074 2.703h1.633V.54h-1.633zM548.341 2.703h1.634V.54h-1.634zM551.336 2.703h1.633V.54h-1.633z"/><path fill="#F0F1F1" d="M552.97 20h18.513V0H552.97z"/><path fill="#FFF" d="M554.059 16.486h16.88V3.784h-16.88zM554.059 19.46h1.633v-2.163h-1.633zM556.781 19.46h1.634v-2.163h-1.634zM559.776 19.46h1.634v-2.163h-1.634zM563.043 19.46h1.634v-2.163h-1.634zM565.766 19.46h1.633v-2.163h-1.633zM569.033 19.46h1.634v-2.163h-1.634zM554.059 2.703h1.633V.54h-1.633zM556.781 2.703h1.634V.54h-1.634zM559.776 2.703h1.634V.54h-1.634zM563.043 2.703h1.634V.54h-1.634zM565.766 2.703h1.633V.54h-1.633zM569.033 2.703h1.634V.54h-1.634z"/><path fill="#F0F1F1" d="M570.394 20h18.514V0h-18.514z"/><path fill="#FFF" d="M571.483 16.486h16.88V3.784h-16.88zM571.483 19.46h1.634v-2.163h-1.634zM574.75 19.46h1.634v-2.163h-1.633zM578.018 19.46h1.633v-2.163h-1.633zM580.468 19.46h1.634v-2.163h-1.634zM583.735 19.46h1.634v-2.163h-1.634zM587.003 19.46h1.633v-2.163h-1.633zM571.483 2.703h1.634V.54h-1.634zM574.75 2.703h1.634V.54h-1.633zM578.018 2.703h1.633V.54h-1.633zM580.468 2.703h1.634V.54h-1.634zM583.735 2.703h1.634V.54h-1.634zM587.003 2.703h1.633V.54h-1.633z"/><path fill="#F0F1F1" d="M588.636 20h18.514V0h-18.514z"/><path fill="#FFF" d="M589.453 16.486h16.88V3.784h-16.88zM589.453 19.46h1.634v-2.163h-1.634zM592.72 19.46h1.634v-2.163h-1.634zM595.443 19.46h1.633v-2.163h-1.633zM598.438 19.46h1.633v-2.163h-1.633zM601.705 19.46h1.633v-2.163h-1.633zM604.427 19.46h1.634v-2.163h-1.634zM589.453 2.703h1.634V.54h-1.634zM592.72 2.703h1.634V.54h-1.634zM595.443 2.703h1.633V.54h-1.633zM598.438 2.703h1.633V.54h-1.633zM601.705 2.703h1.633V.54h-1.633zM604.427 2.703h1.634V.54h-1.634z"/><path fill="#F0F1F1" d="M606.606 20h18.514V0h-18.514z"/><path fill="#FFF" d="M607.695 16.486h16.88V3.784h-16.88zM607.695 19.46h1.633v-2.163h-1.633zM610.145 19.46h1.634v-2.163h-1.634zM613.412 19.46h1.634v-2.163h-1.634zM616.68 19.46h1.633v-2.163h-1.634zM619.13 19.46h1.633v-2.163h-1.633zM622.397 19.46h1.634v-2.163h-1.634zM607.695 2.703h1.633V.54h-1.633zM610.145 2.703h1.634V.54h-1.634zM613.412 2.703h1.634V.54h-1.634zM616.68 2.703h1.633V.54h-1.634zM619.13 2.703h1.633V.54h-1.633zM622.397 2.703h1.634V.54h-1.634z"/><path fill="#F0F1F1" d="M624.03 20H642V0h-17.97z"/><path fill="#FFF" d="M625.12 16.486H642V3.784h-16.88zM625.12 19.46h1.633v-2.163h-1.633zM628.115 19.46h1.633v-2.163h-1.633zM631.382 19.46h1.633v-2.163h-1.633zM634.104 19.46h1.634v-2.163h-1.634zM637.1 19.46h1.633v-2.163h-1.634zM640.366 19.46H642v-2.163h-1.634zM625.12 2.703h1.633V.54h-1.633zM628.115 2.703h1.633V.54h-1.633zM631.382 2.703h1.633V.54h-1.633zM634.104 2.703h1.634V.54h-1.634zM637.1 2.703h1.633V.54h-1.634zM640.366 2.703H642V.54h-1.634z"/></g><g><path fill="#F0F1F1" d="M856 20h18.514V0H856z"/><path fill="#FFF" d="M857.09 16.486h16.88V3.784h-16.88zM857.09 19.46h1.633v-2.163h-1.634zM860.356 19.46h1.634v-2.163h-1.634zM862.807 19.46h1.633v-2.163h-1.633zM866.074 19.46h1.633v-2.163h-1.633zM869.341 19.46h1.634v-2.163h-1.634zM872.336 19.46h1.633v-2.163h-1.633zM857.09 2.703h1.633V.54h-1.634zM860.356 2.703h1.634V.54h-1.634zM862.807 2.703h1.633V.54h-1.633zM866.074 2.703h1.633V.54h-1.633zM869.341 2.703h1.634V.54h-1.634zM872.336 2.703h1.633V.54h-1.633z"/><path fill="#F0F1F1" d="M873.97 20h18.513V0H873.97z"/><path fill="#FFF" d="M875.059 16.486h16.88V3.784h-16.88zM875.059 19.46h1.633v-2.163h-1.633zM877.781 19.46h1.634v-2.163h-1.634zM880.776 19.46h1.634v-2.163h-1.634zM884.043 19.46h1.634v-2.163h-1.634zM886.766 19.46h1.633v-2.163h-1.633zM890.033 19.46h1.634v-2.163h-1.634zM875.059 2.703h1.633V.54h-1.633zM877.781 2.703h1.634V.54h-1.634zM880.776 2.703h1.634V.54h-1.634zM884.043 2.703h1.634V.54h-1.634zM886.766 2.703h1.633V.54h-1.633zM890.033 2.703h1.634V.54h-1.634z"/><path fill="#F0F1F1" d="M891.394 20h18.514V0h-18.514z"/><path fill="#FFF" d="M892.483 16.486h16.88V3.784h-16.88zM892.483 19.46h1.634v-2.163h-1.634zM895.75 19.46h1.634v-2.163h-1.633zM899.018 19.46h1.633v-2.163h-1.633zM901.468 19.46h1.634v-2.163h-1.634zM904.735 19.46h1.634v-2.163h-1.634zM908.003 19.46h1.633v-2.163h-1.633zM892.483 2.703h1.634V.54h-1.634zM895.75 2.703h1.634V.54h-1.633zM899.018 2.703h1.633V.54h-1.633zM901.468 2.703h1.634V.54h-1.634zM904.735 2.703h1.634V.54h-1.634zM908.003 2.703h1.633V.54h-1.633z"/><path fill="#F0F1F1" d="M909.636 20h18.514V0h-18.514z"/><path fill="#FFF" d="M910.453 16.486h16.88V3.784h-16.88zM910.453 19.46h1.634v-2.163h-1.634zM913.72 19.46h1.634v-2.163h-1.634zM916.443 19.46h1.633v-2.163h-1.633zM919.438 19.46h1.633v-2.163h-1.633zM922.705 19.46h1.633v-2.163h-1.633zM925.427 19.46h1.634v-2.163h-1.634zM910.453 2.703h1.634V.54h-1.634zM913.72 2.703h1.634V.54h-1.634zM916.443 2.703h1.633V.54h-1.633zM919.438 2.703h1.633V.54h-1.633zM922.705 2.703h1.633V.54h-1.633zM925.427 2.703h1.634V.54h-1.634z"/><path fill="#F0F1F1" d="M927.606 20h18.514V0h-18.514z"/><path fill="#FFF" d="M928.695 16.486h16.88V3.784h-16.88zM928.695 19.46h1.633v-2.163h-1.633zM931.145 19.46h1.634v-2.163h-1.634zM934.412 19.46h1.634v-2.163h-1.634zM937.68 19.46h1.633v-2.163h-1.634zM940.13 19.46h1.633v-2.163h-1.633zM943.397 19.46h1.634v-2.163h-1.634zM928.695 2.703h1.633V.54h-1.633zM931.145 2.703h1.634V.54h-1.634zM934.412 2.703h1.634V.54h-1.634zM937.68 2.703h1.633V.54h-1.634zM940.13 2.703h1.633V.54h-1.633zM943.397 2.703h1.634V.54h-1.634z"/><path fill="#F0F1F1" d="M945.03 20H963V0h-17.97z"/><path fill="#FFF" d="M946.12 16.486H963V3.784h-16.88zM946.12 19.46h1.633v-2.163h-1.633zM949.115 19.46h1.633v-2.163h-1.633zM952.382 19.46h1.633v-2.163h-1.633zM955.104 19.46h1.634v-2.163h-1.634zM958.1 19.46h1.633v-2.163h-1.634zM961.366 19.46H963v-2.163h-1.634zM946.12 2.703h1.633V.54h-1.633zM949.115 2.703h1.633V.54h-1.633zM952.382 2.703h1.633V.54h-1.633zM955.104 2.703h1.634V.54h-1.634zM958.1 2.703h1.633V.54h-1.634zM961.366 2.703H963V.54h-1.634z"/></g><g><path fill="#F0F1F1" d="M642 20h18.514V0H642z"/><path fill="#FFF" d="M643.09 16.486h16.88V3.784h-16.88zM643.09 19.46h1.633v-2.163h-1.634zM646.356 19.46h1.634v-2.163h-1.634zM648.807 19.46h1.633v-2.163h-1.633zM652.074 19.46h1.633v-2.163h-1.633zM655.341 19.46h1.634v-2.163h-1.634zM658.336 19.46h1.633v-2.163h-1.633zM643.09 2.703h1.633V.54h-1.634zM646.356 2.703h1.634V.54h-1.634zM648.807 2.703h1.633V.54h-1.633zM652.074 2.703h1.633V.54h-1.633zM655.341 2.703h1.634V.54h-1.634zM658.336 2.703h1.633V.54h-1.633z"/><path fill="#F0F1F1" d="M659.97 20h18.513V0H659.97z"/><path fill="#FFF" d="M661.059 16.486h16.88V3.784h-16.88zM661.059 19.46h1.633v-2.163h-1.633zM663.781 19.46h1.634v-2.163h-1.634zM666.776 19.46h1.634v-2.163h-1.634zM670.043 19.46h1.634v-2.163h-1.634zM672.766 19.46h1.633v-2.163h-1.633zM676.033 19.46h1.634v-2.163h-1.634zM661.059 2.703h1.633V.54h-1.633zM663.781 2.703h1.634V.54h-1.634zM666.776 2.703h1.634V.54h-1.634zM670.043 2.703h1.634V.54h-1.634zM672.766 2.703h1.633V.54h-1.633zM676.033 2.703h1.634V.54h-1.634z"/><path fill="#F0F1F1" d="M677.394 20h18.514V0h-18.514z"/><path fill="#FFF" d="M678.483 16.486h16.88V3.784h-16.88zM678.483 19.46h1.634v-2.163h-1.634zM681.75 19.46h1.634v-2.163h-1.633zM685.018 19.46h1.633v-2.163h-1.633zM687.468 19.46h1.634v-2.163h-1.634zM690.735 19.46h1.634v-2.163h-1.634zM694.003 19.46h1.633v-2.163h-1.633zM678.483 2.703h1.634V.54h-1.634zM681.75 2.703h1.634V.54h-1.633zM685.018 2.703h1.633V.54h-1.633zM687.468 2.703h1.634V.54h-1.634zM690.735 2.703h1.634V.54h-1.634zM694.003 2.703h1.633V.54h-1.633z"/><path fill="#F0F1F1" d="M695.636 20h18.514V0h-18.514z"/><path fill="#FFF" d="M696.453 16.486h16.88V3.784h-16.88zM696.453 19.46h1.634v-2.163h-1.634zM699.72 19.46h1.634v-2.163h-1.634zM702.443 19.46h1.633v-2.163h-1.633zM705.438 19.46h1.633v-2.163h-1.633zM708.705 19.46h1.633v-2.163h-1.633zM711.427 19.46h1.634v-2.163h-1.634zM696.453 2.703h1.634V.54h-1.634zM699.72 2.703h1.634V.54h-1.634zM702.443 2.703h1.633V.54h-1.633zM705.438 2.703h1.633V.54h-1.633zM708.705 2.703h1.633V.54h-1.633zM711.427 2.703h1.634V.54h-1.634z"/><path fill="#F0F1F1" d="M713.606 20h18.514V0h-18.514z"/><path fill="#FFF" d="M714.695 16.486h16.88V3.784h-16.88zM714.695 19.46h1.633v-2.163h-1.633zM717.145 19.46h1.634v-2.163h-1.634zM720.412 19.46h1.634v-2.163h-1.634zM723.68 19.46h1.633v-2.163h-1.634zM726.13 19.46h1.633v-2.163h-1.633zM729.397 19.46h1.634v-2.163h-1.634zM714.695 2.703h1.633V.54h-1.633zM717.145 2.703h1.634V.54h-1.634zM720.412 2.703h1.634V.54h-1.634zM723.68 2.703h1.633V.54h-1.634zM726.13 2.703h1.633V.54h-1.633zM729.397 2.703h1.634V.54h-1.634z"/><path fill="#F0F1F1" d="M731.03 20H749V0h-17.97z"/><path fill="#FFF" d="M732.12 16.486H749V3.784h-16.88zM732.12 19.46h1.633v-2.163h-1.633zM735.115 19.46h1.633v-2.163h-1.633zM738.382 19.46h1.633v-2.163h-1.633zM741.104 19.46h1.634v-2.163h-1.634zM744.1 19.46h1.633v-2.163h-1.634zM747.366 19.46H749v-2.163h-1.634zM732.12 2.703h1.633V.54h-1.633zM735.115 2.703h1.633V.54h-1.633zM738.382 2.703h1.633V.54h-1.633zM741.104 2.703h1.634V.54h-1.634zM744.1 2.703h1.633V.54h-1.634zM747.366 2.703H749V.54h-1.634z"/></g><g><path fill="#F0F1F1" d="M964 20h18.514V0H964z"/><path fill="#FFF" d="M965.09 16.486h16.88V3.784h-16.88zM965.09 19.46h1.633v-2.163h-1.634zM968.356 19.46h1.634v-2.163h-1.634zM970.807 19.46h1.633v-2.163h-1.633zM974.074 19.46h1.633v-2.163h-1.633zM977.341 19.46h1.634v-2.163h-1.634zM980.336 19.46h1.633v-2.163h-1.633zM965.09 2.703h1.633V.54h-1.634zM968.356 2.703h1.634V.54h-1.634zM970.807 2.703h1.633V.54h-1.633zM974.074 2.703h1.633V.54h-1.633zM977.341 2.703h1.634V.54h-1.634zM980.336 2.703h1.633V.54h-1.633z"/><path fill="#F0F1F1" d="M981.97 20h18.513V0H981.97z"/><path fill="#FFF" d="M983.059 16.486h16.88V3.784h-16.88zM983.059 19.46h1.633v-2.163h-1.633zM985.781 19.46h1.634v-2.163h-1.634zM988.776 19.46h1.634v-2.163h-1.634zM992.043 19.46h1.634v-2.163h-1.634zM994.766 19.46h1.633v-2.163h-1.633zM998.033 19.46h1.634v-2.163h-1.634zM983.059 2.703h1.633V.54h-1.633zM985.781 2.703h1.634V.54h-1.634zM988.776 2.703h1.634V.54h-1.634zM992.043 2.703h1.634V.54h-1.634zM994.766 2.703h1.633V.54h-1.633zM998.033 2.703h1.634V.54h-1.634z"/><path fill="#F0F1F1" d="M999.394 20h18.514V0h-18.514z"/><path fill="#FFF" d="M1000.483 16.486h16.88V3.784h-16.88zM1000.483 19.46h1.634v-2.163h-1.634zM1003.75 19.46h1.634v-2.163h-1.633zM1007.018 19.46h1.633v-2.163h-1.633zM1009.468 19.46h1.634v-2.163h-1.634zM1012.735 19.46h1.634v-2.163h-1.634zM1016.003 19.46h1.633v-2.163h-1.633zM1000.483 2.703h1.634V.54h-1.634zM1003.75 2.703h1.634V.54h-1.633zM1007.018 2.703h1.633V.54h-1.633zM1009.468 2.703h1.634V.54h-1.634zM1012.735 2.703h1.634V.54h-1.634zM1016.003 2.703h1.633V.54h-1.633z"/><path fill="#F0F1F1" d="M1017.636 20h18.514V0h-18.514z"/><path fill="#FFF" d="M1018.453 16.486h16.88V3.784h-16.88zM1018.453 19.46h1.634v-2.163h-1.634zM1021.72 19.46h1.634v-2.163h-1.634zM1024.443 19.46h1.633v-2.163h-1.633zM1027.438 19.46h1.633v-2.163h-1.633zM1030.705 19.46h1.633v-2.163h-1.633zM1033.427 19.46h1.634v-2.163h-1.634zM1018.453 2.703h1.634V.54h-1.634zM1021.72 2.703h1.634V.54h-1.634zM1024.443 2.703h1.633V.54h-1.633zM1027.438 2.703h1.633V.54h-1.633zM1030.705 2.703h1.633V.54h-1.633zM1033.427 2.703h1.634V.54h-1.634z"/><path fill="#F0F1F1" d="M1035.606 20h18.514V0h-18.514z"/><path fill="#FFF" d="M1036.695 16.486h16.88V3.784h-16.88zM1036.695 19.46h1.633v-2.163h-1.633zM1039.145 19.46h1.634v-2.163h-1.634zM1042.412 19.46h1.634v-2.163h-1.634zM1045.68 19.46h1.633v-2.163h-1.634zM1048.13 19.46h1.633v-2.163h-1.633zM1051.397 19.46h1.634v-2.163h-1.634zM1036.695 2.703h1.633V.54h-1.633zM1039.145 2.703h1.634V.54h-1.634zM1042.412 2.703h1.634V.54h-1.634zM1045.68 2.703h1.633V.54h-1.634zM1048.13 2.703h1.633V.54h-1.633zM1051.397 2.703h1.634V.54h-1.634z"/><path fill="#F0F1F1" d="M1053.03 20H1071V0h-17.97z"/><path fill="#FFF" d="M1054.12 16.486H1071V3.784h-16.88zM1054.12 19.46h1.633v-2.163h-1.633zM1057.115 19.46h1.633v-2.163h-1.633zM1060.382 19.46h1.633v-2.163h-1.633zM1063.104 19.46h1.634v-2.163h-1.634zM1066.1 19.46h1.633v-2.163h-1.634zM1069.366 19.46H1071v-2.163h-1.634zM1054.12 2.703h1.633V.54h-1.633zM1057.115 2.703h1.633V.54h-1.633zM1060.382 2.703h1.633V.54h-1.633zM1063.104 2.703h1.634V.54h-1.634zM1066.1 2.703h1.633V.54h-1.634zM1069.366 2.703H1071V.54h-1.634z"/></g></g></g></svg>