<svg width="588" height="22" xmlns="http://www.w3.org/2000/svg"><g fill="none" fill-rule="evenodd"><g><g><g><path fill="#F0F1F1" d="M0 22h25.435V0H0z"/><path fill="#FFF" d="M1.496 18.135h23.191V4.162H1.497zM1.496 21.405H3.74v-2.378H1.496zM5.985 21.405h2.244v-2.378H5.985zM9.351 21.405h2.244v-2.378H9.351zM13.84 21.405h2.244v-2.378H13.84zM18.328 21.405h2.245v-2.378h-2.245zM22.443 21.405h2.244v-2.378h-2.244zM1.496 2.973H3.74V.595H1.496zM5.985 2.973h2.244V.595H5.985zM9.351 2.973h2.244V.595H9.351zM13.84 2.973h2.244V.595H13.84zM18.328 2.973h2.245V.595h-2.245zM22.443 2.973h2.244V.595h-2.244z"/><path fill="#F0F1F1" d="M24.687 22h25.435V0H24.687z"/><path fill="#FFF" d="M26.183 18.135h23.191V4.162h-23.19zM26.183 21.405h2.244v-2.378h-2.244zM29.924 21.405h2.244v-2.378h-2.244zM34.038 21.405h2.244v-2.378h-2.244zM38.527 21.405h2.244v-2.378h-2.244zM42.267 21.405h2.244v-2.378h-2.244zM46.756 21.405H49v-2.378h-2.244zM26.183 2.973h2.244V.595h-2.244zM29.924 2.973h2.244V.595h-2.244zM34.038 2.973h2.244V.595h-2.244zM38.527 2.973h2.244V.595h-2.244zM42.267 2.973h2.244V.595h-2.244zM46.756 2.973H49V.595h-2.244z"/><path fill="#F0F1F1" d="M48.626 22h25.435V0H48.626z"/><path fill="#FFF" d="M50.122 18.135h23.191V4.162h-23.19zM50.122 21.405h2.244v-2.378h-2.244zM54.61 21.405h2.245v-2.378h-2.244zM59.1 21.405h2.244v-2.378h-2.245zM62.466 21.405h2.244v-2.378h-2.244zM66.954 21.405h2.244v-2.378h-2.244zM71.443 21.405h2.244v-2.378h-2.244zM50.122 2.973h2.244V.595h-2.244zM54.61 2.973h2.245V.595h-2.244zM59.1 2.973h2.244V.595h-2.245zM62.466 2.973h2.244V.595h-2.244zM66.954 2.973h2.244V.595h-2.244zM71.443 2.973h2.244V.595h-2.244z"/><path fill="#F0F1F1" d="M73.687 22h25.435V0H73.687z"/><path fill="#FFF" d="M74.81 18.135H98V4.162H74.81zM74.81 21.405h2.243v-2.378H74.81zM79.298 21.405h2.244v-2.378h-2.244zM83.038 21.405h2.244v-2.378h-2.244zM87.153 21.405h2.244v-2.378h-2.244zM91.641 21.405h2.244v-2.378h-2.244zM95.382 21.405h2.244v-2.378h-2.244zM74.81 2.973h2.243V.595H74.81zM79.298 2.973h2.244V.595h-2.244zM83.038 2.973h2.244V.595h-2.244zM87.153 2.973h2.244V.595h-2.244zM91.641 2.973h2.244V.595h-2.244zM95.382 2.973h2.244V.595h-2.244z"/><path fill="#F0F1F1" d="M98.374 22h25.435V0H98.374z"/><path fill="#FFF" d="M99.87 18.135h23.191V4.162h-23.19zM99.87 21.405h2.245v-2.378H99.87zM103.237 21.405h2.244v-2.378h-2.244zM107.725 21.405h2.244v-2.378h-2.244zM112.214 21.405h2.244v-2.378h-2.244zM115.58 21.405h2.244v-2.378h-2.244zM120.069 21.405h2.244v-2.378h-2.244zM99.87 2.973h2.245V.595H99.87zM103.237 2.973h2.244V.595h-2.244zM107.725 2.973h2.244V.595h-2.244zM112.214 2.973h2.244V.595h-2.244zM115.58 2.973h2.244V.595h-2.244zM120.069 2.973h2.244V.595h-2.244z"/><path fill="#F0F1F1" d="M122.313 22H147V0h-24.687z"/><path fill="#FFF" d="M123.81 18.135H147V4.162h-23.19zM123.81 21.405h2.243v-2.378h-2.244zM127.924 21.405h2.244v-2.378h-2.244zM132.412 21.405h2.244v-2.378h-2.244zM136.153 21.405h2.244v-2.378h-2.244zM140.267 21.405h2.244v-2.378h-2.244zM144.756 21.405H147v-2.378h-2.244zM123.81 2.973h2.243V.595h-2.244zM127.924 2.973h2.244V.595h-2.244zM132.412 2.973h2.244V.595h-2.244zM136.153 2.973h2.244V.595h-2.244zM140.267 2.973h2.244V.595h-2.244zM144.756 2.973H147V.595h-2.244z"/></g><g><path fill="#F0F1F1" d="M147 22h25.435V0H147z"/><path fill="#FFF" d="M148.496 18.135h23.191V4.162h-23.19zM148.496 21.405h2.244v-2.378h-2.244zM152.985 21.405h2.244v-2.378h-2.244zM156.351 21.405h2.244v-2.378h-2.244zM160.84 21.405h2.244v-2.378h-2.244zM165.328 21.405h2.245v-2.378h-2.245zM169.443 21.405h2.244v-2.378h-2.244zM148.496 2.973h2.244V.595h-2.244zM152.985 2.973h2.244V.595h-2.244zM156.351 2.973h2.244V.595h-2.244zM160.84 2.973h2.244V.595h-2.244zM165.328 2.973h2.245V.595h-2.245zM169.443 2.973h2.244V.595h-2.244z"/><path fill="#F0F1F1" d="M171.687 22h25.435V0h-25.435z"/><path fill="#FFF" d="M173.183 18.135h23.191V4.162h-23.19zM173.183 21.405h2.244v-2.378h-2.244zM176.924 21.405h2.244v-2.378h-2.244zM181.038 21.405h2.244v-2.378h-2.244zM185.527 21.405h2.244v-2.378h-2.244zM189.267 21.405h2.244v-2.378h-2.244zM193.756 21.405H196v-2.378h-2.244zM173.183 2.973h2.244V.595h-2.244zM176.924 2.973h2.244V.595h-2.244zM181.038 2.973h2.244V.595h-2.244zM185.527 2.973h2.244V.595h-2.244zM189.267 2.973h2.244V.595h-2.244zM193.756 2.973H196V.595h-2.244z"/><path fill="#F0F1F1" d="M195.626 22h25.435V0h-25.435z"/><path fill="#FFF" d="M197.122 18.135h23.191V4.162h-23.19zM197.122 21.405h2.244v-2.378h-2.244zM201.61 21.405h2.245v-2.378h-2.244zM206.1 21.405h2.244v-2.378h-2.245zM209.466 21.405h2.244v-2.378h-2.244zM213.954 21.405h2.244v-2.378h-2.244zM218.443 21.405h2.244v-2.378h-2.244zM197.122 2.973h2.244V.595h-2.244zM201.61 2.973h2.245V.595h-2.244zM206.1 2.973h2.244V.595h-2.245zM209.466 2.973h2.244V.595h-2.244zM213.954 2.973h2.244V.595h-2.244zM218.443 2.973h2.244V.595h-2.244z"/><path fill="#F0F1F1" d="M220.687 22h25.435V0h-25.435z"/><path fill="#FFF" d="M221.81 18.135H245V4.162h-23.19zM221.81 21.405h2.243v-2.378h-2.244zM226.298 21.405h2.244v-2.378h-2.244zM230.038 21.405h2.244v-2.378h-2.244zM234.153 21.405h2.244v-2.378h-2.244zM238.641 21.405h2.244v-2.378h-2.244zM242.382 21.405h2.244v-2.378h-2.244zM221.81 2.973h2.243V.595h-2.244zM226.298 2.973h2.244V.595h-2.244zM230.038 2.973h2.244V.595h-2.244zM234.153 2.973h2.244V.595h-2.244zM238.641 2.973h2.244V.595h-2.244zM242.382 2.973h2.244V.595h-2.244z"/><path fill="#F0F1F1" d="M245.374 22h25.435V0h-25.435z"/><path fill="#FFF" d="M246.87 18.135h23.191V4.162h-23.19zM246.87 21.405h2.245v-2.378h-2.245zM250.237 21.405h2.244v-2.378h-2.244zM254.725 21.405h2.244v-2.378h-2.244zM259.214 21.405h2.244v-2.378h-2.244zM262.58 21.405h2.244v-2.378h-2.244zM267.069 21.405h2.244v-2.378h-2.244zM246.87 2.973h2.245V.595h-2.245zM250.237 2.973h2.244V.595h-2.244zM254.725 2.973h2.244V.595h-2.244zM259.214 2.973h2.244V.595h-2.244zM262.58 2.973h2.244V.595h-2.244zM267.069 2.973h2.244V.595h-2.244z"/><path fill="#F0F1F1" d="M269.313 22H294V0h-24.687z"/><path fill="#FFF" d="M270.81 18.135H294V4.162h-23.19zM270.81 21.405h2.243v-2.378h-2.244zM274.924 21.405h2.244v-2.378h-2.244zM279.412 21.405h2.244v-2.378h-2.244zM283.153 21.405h2.244v-2.378h-2.244zM287.267 21.405h2.244v-2.378h-2.244zM291.756 21.405H294v-2.378h-2.244zM270.81 2.973h2.243V.595h-2.244zM274.924 2.973h2.244V.595h-2.244zM279.412 2.973h2.244V.595h-2.244zM283.153 2.973h2.244V.595h-2.244zM287.267 2.973h2.244V.595h-2.244zM291.756 2.973H294V.595h-2.244z"/></g></g><g><g><path fill="#F0F1F1" d="M294 22h25.435V0H294z"/><path fill="#FFF" d="M295.496 18.135h23.191V4.162h-23.19zM295.496 21.405h2.244v-2.378h-2.244zM299.985 21.405h2.244v-2.378h-2.244zM303.351 21.405h2.244v-2.378h-2.244zM307.84 21.405h2.244v-2.378h-2.244zM312.328 21.405h2.245v-2.378h-2.245zM316.443 21.405h2.244v-2.378h-2.244zM295.496 2.973h2.244V.595h-2.244zM299.985 2.973h2.244V.595h-2.244zM303.351 2.973h2.244V.595h-2.244zM307.84 2.973h2.244V.595h-2.244zM312.328 2.973h2.245V.595h-2.245zM316.443 2.973h2.244V.595h-2.244z"/><path fill="#F0F1F1" d="M318.687 22h25.435V0h-25.435z"/><path fill="#FFF" d="M320.183 18.135h23.191V4.162h-23.19zM320.183 21.405h2.244v-2.378h-2.244zM323.924 21.405h2.244v-2.378h-2.244zM328.038 21.405h2.244v-2.378h-2.244zM332.527 21.405h2.244v-2.378h-2.244zM336.267 21.405h2.244v-2.378h-2.244zM340.756 21.405H343v-2.378h-2.244zM320.183 2.973h2.244V.595h-2.244zM323.924 2.973h2.244V.595h-2.244zM328.038 2.973h2.244V.595h-2.244zM332.527 2.973h2.244V.595h-2.244zM336.267 2.973h2.244V.595h-2.244zM340.756 2.973H343V.595h-2.244z"/><path fill="#F0F1F1" d="M342.626 22h25.435V0h-25.435z"/><path fill="#FFF" d="M344.122 18.135h23.191V4.162h-23.19zM344.122 21.405h2.244v-2.378h-2.244zM348.61 21.405h2.245v-2.378h-2.244zM353.1 21.405h2.244v-2.378h-2.245zM356.466 21.405h2.244v-2.378h-2.244zM360.954 21.405h2.244v-2.378h-2.244zM365.443 21.405h2.244v-2.378h-2.244zM344.122 2.973h2.244V.595h-2.244zM348.61 2.973h2.245V.595h-2.244zM353.1 2.973h2.244V.595h-2.245zM356.466 2.973h2.244V.595h-2.244zM360.954 2.973h2.244V.595h-2.244zM365.443 2.973h2.244V.595h-2.244z"/><path fill="#F0F1F1" d="M367.687 22h25.435V0h-25.435z"/><path fill="#FFF" d="M368.81 18.135H392V4.162h-23.19zM368.81 21.405h2.243v-2.378h-2.244zM373.298 21.405h2.244v-2.378h-2.244zM377.038 21.405h2.244v-2.378h-2.244zM381.153 21.405h2.244v-2.378h-2.244zM385.641 21.405h2.244v-2.378h-2.244zM389.382 21.405h2.244v-2.378h-2.244zM368.81 2.973h2.243V.595h-2.244zM373.298 2.973h2.244V.595h-2.244zM377.038 2.973h2.244V.595h-2.244zM381.153 2.973h2.244V.595h-2.244zM385.641 2.973h2.244V.595h-2.244zM389.382 2.973h2.244V.595h-2.244z"/><path fill="#F0F1F1" d="M392.374 22h25.435V0h-25.435z"/><path fill="#FFF" d="M393.87 18.135h23.191V4.162h-23.19zM393.87 21.405h2.245v-2.378h-2.245zM397.237 21.405h2.244v-2.378h-2.244zM401.725 21.405h2.244v-2.378h-2.244zM406.214 21.405h2.244v-2.378h-2.244zM409.58 21.405h2.244v-2.378h-2.244zM414.069 21.405h2.244v-2.378h-2.244zM393.87 2.973h2.245V.595h-2.245zM397.237 2.973h2.244V.595h-2.244zM401.725 2.973h2.244V.595h-2.244zM406.214 2.973h2.244V.595h-2.244zM409.58 2.973h2.244V.595h-2.244zM414.069 2.973h2.244V.595h-2.244z"/><path fill="#F0F1F1" d="M416.313 22H441V0h-24.687z"/><path fill="#FFF" d="M417.81 18.135H441V4.162h-23.19zM417.81 21.405h2.243v-2.378h-2.244zM421.924 21.405h2.244v-2.378h-2.244zM426.412 21.405h2.244v-2.378h-2.244zM430.153 21.405h2.244v-2.378h-2.244zM434.267 21.405h2.244v-2.378h-2.244zM438.756 21.405H441v-2.378h-2.244zM417.81 2.973h2.243V.595h-2.244zM421.924 2.973h2.244V.595h-2.244zM426.412 2.973h2.244V.595h-2.244zM430.153 2.973h2.244V.595h-2.244zM434.267 2.973h2.244V.595h-2.244zM438.756 2.973H441V.595h-2.244z"/></g><g><path fill="#F0F1F1" d="M441 22h25.435V0H441z"/><path fill="#FFF" d="M442.496 18.135h23.191V4.162h-23.19zM442.496 21.405h2.244v-2.378h-2.244zM446.985 21.405h2.244v-2.378h-2.244zM450.351 21.405h2.244v-2.378h-2.244zM454.84 21.405h2.244v-2.378h-2.244zM459.328 21.405h2.245v-2.378h-2.245zM463.443 21.405h2.244v-2.378h-2.244zM442.496 2.973h2.244V.595h-2.244zM446.985 2.973h2.244V.595h-2.244zM450.351 2.973h2.244V.595h-2.244zM454.84 2.973h2.244V.595h-2.244zM459.328 2.973h2.245V.595h-2.245zM463.443 2.973h2.244V.595h-2.244z"/><path fill="#F0F1F1" d="M465.687 22h25.435V0h-25.435z"/><path fill="#FFF" d="M467.183 18.135h23.191V4.162h-23.19zM467.183 21.405h2.244v-2.378h-2.244zM470.924 21.405h2.244v-2.378h-2.244zM475.038 21.405h2.244v-2.378h-2.244zM479.527 21.405h2.244v-2.378h-2.244zM483.267 21.405h2.244v-2.378h-2.244zM487.756 21.405H490v-2.378h-2.244zM467.183 2.973h2.244V.595h-2.244zM470.924 2.973h2.244V.595h-2.244zM475.038 2.973h2.244V.595h-2.244zM479.527 2.973h2.244V.595h-2.244zM483.267 2.973h2.244V.595h-2.244zM487.756 2.973H490V.595h-2.244z"/><path fill="#F0F1F1" d="M489.626 22h25.435V0h-25.435z"/><path fill="#FFF" d="M491.122 18.135h23.191V4.162h-23.19zM491.122 21.405h2.244v-2.378h-2.244zM495.61 21.405h2.245v-2.378h-2.244zM500.1 21.405h2.244v-2.378h-2.245zM503.466 21.405h2.244v-2.378h-2.244zM507.954 21.405h2.244v-2.378h-2.244zM512.443 21.405h2.244v-2.378h-2.244zM491.122 2.973h2.244V.595h-2.244zM495.61 2.973h2.245V.595h-2.244zM500.1 2.973h2.244V.595h-2.245zM503.466 2.973h2.244V.595h-2.244zM507.954 2.973h2.244V.595h-2.244zM512.443 2.973h2.244V.595h-2.244z"/><path fill="#F0F1F1" d="M514.687 22h25.435V0h-25.435z"/><path fill="#FFF" d="M515.81 18.135H539V4.162h-23.19zM515.81 21.405h2.243v-2.378h-2.244zM520.298 21.405h2.244v-2.378h-2.244zM524.038 21.405h2.244v-2.378h-2.244zM528.153 21.405h2.244v-2.378h-2.244zM532.641 21.405h2.244v-2.378h-2.244zM536.382 21.405h2.244v-2.378h-2.244zM515.81 2.973h2.243V.595h-2.244zM520.298 2.973h2.244V.595h-2.244zM524.038 2.973h2.244V.595h-2.244zM528.153 2.973h2.244V.595h-2.244zM532.641 2.973h2.244V.595h-2.244zM536.382 2.973h2.244V.595h-2.244z"/><path fill="#F0F1F1" d="M539.374 22h25.435V0h-25.435z"/><path fill="#FFF" d="M540.87 18.135h23.191V4.162h-23.19zM540.87 21.405h2.245v-2.378h-2.245zM544.237 21.405h2.244v-2.378h-2.244zM548.725 21.405h2.244v-2.378h-2.244zM553.214 21.405h2.244v-2.378h-2.244zM556.58 21.405h2.244v-2.378h-2.244zM561.069 21.405h2.244v-2.378h-2.244zM540.87 2.973h2.245V.595h-2.245zM544.237 2.973h2.244V.595h-2.244zM548.725 2.973h2.244V.595h-2.244zM553.214 2.973h2.244V.595h-2.244zM556.58 2.973h2.244V.595h-2.244zM561.069 2.973h2.244V.595h-2.244z"/><path fill="#F0F1F1" d="M563.313 22H588V0h-24.687z"/><path fill="#FFF" d="M564.81 18.135H588V4.162h-23.19zM564.81 21.405h2.243v-2.378h-2.244zM568.924 21.405h2.244v-2.378h-2.244zM573.412 21.405h2.244v-2.378h-2.244zM577.153 21.405h2.244v-2.378h-2.244zM581.267 21.405h2.244v-2.378h-2.244zM585.756 21.405H588v-2.378h-2.244zM564.81 2.973h2.243V.595h-2.244zM568.924 2.973h2.244V.595h-2.244zM573.412 2.973h2.244V.595h-2.244zM577.153 2.973h2.244V.595h-2.244zM581.267 2.973h2.244V.595h-2.244zM585.756 2.973H588V.595h-2.244z"/></g></g></g></g></svg>