<svg width="134" height="486" viewBox="0 0 134 486" xmlns="http://www.w3.org/2000/svg" xmlns:xlink="http://www.w3.org/1999/xlink"><defs><path id="a" d="M.582.522h57.22v39.431H.583z"/><path d="M65.661 15.162c-10.916 0-19.765-3.528-19.765-14.423C6.363.739.227 16.362.227 16.362S4.754 27.06 5.385 32.967c1.86 17.433 4.523 34.806 8.872 51.97l.419 1.648a187.825 187.825 0 0 1 1.358 47.975l-6.18 47.988H120.64l-6.18-47.988a187.77 187.77 0 0 1 1.359-47.975l.417-1.648c4.35-17.164 7.014-34.537 8.873-51.97.63-5.907 5.158-16.605 5.158-16.605S124.96.74 85.428.74c0 10.895-8.85 14.423-19.767 14.423z" id="c"/><path d="M65.661 15.162c-10.916 0-19.765-3.528-19.765-14.423C6.363.739.227 16.362.227 16.362S4.754 27.06 5.385 32.967c1.86 17.433 4.523 34.806 8.872 51.97l.419 1.648a187.825 187.825 0 0 1 1.358 47.975l-6.18 47.988H120.64l-6.18-47.988a187.77 187.77 0 0 1 1.359-47.975l.417-1.648c4.35-17.164 7.014-34.537 8.873-51.97.63-5.907 5.158-16.605 5.158-16.605S124.96.74 85.428.74c0 10.895-8.85 14.423-19.767 14.423" id="e"/><path d="M65.661 15.162c-10.916 0-19.765-3.528-19.765-14.423C6.363.739.227 16.362.227 16.362S4.754 27.06 5.385 32.967c1.86 17.433 4.523 34.806 8.872 51.97l.419 1.648a187.825 187.825 0 0 1 1.358 47.975l-6.18 47.988H120.64l-6.18-47.988a187.77 187.77 0 0 1 1.359-47.975l.417-1.648c4.35-17.164 7.014-34.537 8.873-51.97.63-5.907 5.158-16.605 5.158-16.605S124.96.74 85.428.74c0 10.895-8.85 14.423-19.767 14.423z" id="g"/><path d="M65.661 15.162c-10.916 0-19.765-3.528-19.765-14.423C6.363.739.227 16.362.227 16.362S4.754 27.06 5.385 32.967c1.86 17.433 4.523 34.806 8.872 51.97l.419 1.648a187.825 187.825 0 0 1 1.358 47.975l-6.18 47.988H120.64l-6.18-47.988a187.77 187.77 0 0 1 1.359-47.975l.417-1.648c4.35-17.164 7.014-34.537 8.873-51.97.63-5.907 5.158-16.605 5.158-16.605S124.96.74 85.428.74c0 10.895-8.85 14.423-19.767 14.423z" id="i"/></defs><g fill="none" fill-rule="evenodd"><g><path d="M12.231 128.695v120.449" stroke="#293F4E" stroke-width="22.8" stroke-linecap="round"/><path d="M12.231 209.08v40.065" stroke="#EABBA5" stroke-width="22.8"/><path d="M12.231 227.715v41.82" stroke="#EABBA5" stroke-width="22.8" stroke-linecap="round"/><path d="M121.752 128.695v120.449" stroke="#293F4E" stroke-width="22.8" stroke-linecap="round"/><path d="M121.752 209.08v40.065" stroke="#EABBA5" stroke-width="22.8"/><path d="M121.752 227.715v41.82" stroke="#EABBA5" stroke-width="22.8" stroke-linecap="round"/><g><path d="M59.338 475c3.2-.923 5.021-4.257 4.133-7.462-2.644-9.544-11.409-9.296-21.814-9.296s-19.17-.248-21.814 9.296c-.888 3.205.933 6.539 4.134 7.463l2.797.807a53.684 53.684 0 0 0 29.766 0l2.798-.807z" fill="#1B2C35"/><path d="M39.55 262.539c15.298 0 27.698 12.376 27.698 27.642v9.27c-.01.09-8.291 94.461-8.291 143.014 0 24.29-8.563 29.629-17.127 29.395-8.563-.233-17.126-6.038-17.126-29.395 0-46.714-12.85-152.284-12.85-152.284 0-15.266 12.4-27.642 27.697-27.642" fill="#20363F"/><path d="M44.966 482.566c3.2-.923 5.02-4.257 4.133-7.462-2.644-9.544-11.41-9.296-21.815-9.296-10.404 0-19.17-.248-21.813 9.296-.888 3.205.933 6.539 4.133 7.462l2.798.807a53.684 53.684 0 0 0 29.766 0l2.798-.807z" fill="#1B2C35"/><path d="M44.966 482.566l4.4-3.165a29.058 29.058 0 0 1 6.834-3.647l5.45-2.03-2.654-11.678-.42.343a19.608 19.608 0 0 1-9.539 4.208 19.222 19.222 0 0 1-5.408.052 55.726 55.726 0 0 1-3.976-.69l-12.369-2.61-4.366-1.303-14.486 7.68M73.992 475c-3.2-.923-5.021-4.257-4.133-7.462 2.644-9.544 11.41-9.296 21.815-9.296 10.404 0 19.169-.248 21.813 9.296.888 3.205-.933 6.539-4.133 7.463l-2.798.807a53.684 53.684 0 0 1-29.766 0L73.992 475z" fill="#1B2C35"/><path d="M94.944 262.539c-15.297 0-27.697 12.376-27.697 27.642v9.27c.01.09 8.291 94.461 8.291 143.014 0 24.29 8.563 29.629 17.126 29.395 8.564-.233 17.127-6.038 17.127-29.395 0-46.714 12.85-152.284 12.85-152.284 0-15.266-12.4-27.642-27.697-27.642" fill="#20363F"/><path d="M88.365 482.566c-3.2-.923-5.021-4.257-4.133-7.462 2.644-9.544 11.409-9.296 21.814-9.296 10.404 0 19.17-.248 21.814 9.296.888 3.205-.933 6.539-4.134 7.462l-2.797.807a53.684 53.684 0 0 1-29.766 0l-2.798-.807z" fill="#1B2C35"/><path d="M88.365 482.566l-4.4-3.165a29.058 29.058 0 0 0-6.835-3.647l-5.45-2.03 2.655-11.678.42.343a19.608 19.608 0 0 0 9.538 4.208c1.792.265 3.614.296 5.408.052a55.726 55.726 0 0 0 3.976-.69l12.37-2.61 4.365-1.303 14.486 7.68" fill="#1B2C35"/><path d="M79.52 84.699H54.814c0 21.7-6.917 23.673-6.917 23.673 0 10.896 8.849 14.423 19.765 14.423s19.767-3.527 19.767-14.423c0 0-7.907-1.973-7.907-23.673" fill="#CB9A81"/><path d="M118.237 192.57c4.35-17.163 7.014-34.538 8.873-51.969.63-5.909 5.158-16.605 5.158-16.605s-5.31-15.623-44.841-15.623c0 10.895-8.85 14.423-19.766 14.423-10.916 0-19.766-3.528-19.766-14.423-39.532 0-45.669 15.623-45.669 15.623s4.529 10.696 5.16 16.605c1.859 17.431 4.521 34.806 8.872 51.97l.418 1.647a187.827 187.827 0 0 1 1.358 47.974l-6.18 47.99h110.788l-6.181-47.99a187.772 187.772 0 0 1 1.359-47.974l.417-1.647z" fill="#293F4E"/><path d="M89.45 23.985c-4-4.064-12.792-4.746-22.202-4.746-9.412 0-18.204.682-22.202 4.746-6.293 6.397-4.617 17.27-4.617 17.27s.432 28.063 4.758 35.402c4.325 7.338 12.545 18.563 22.06 18.563 9.517 0 17.735-11.225 22.06-18.563 4.326-7.339 4.758-35.401 4.758-35.401s1.677-10.874-4.616-17.271" fill="#EABBA5"/><path d="M72.496 125.827c17.67-3.093 22.284-16.744 22.433-17.254l-7.512-.166 3.307.9-3.296-.935c-.113.351-2.89 8.62-16.161 10.943l1.229 6.512zM62.816 125.793c-17.67-3.094-22.285-16.744-22.434-17.254l7.513-.167-3.308.9 3.297-.935c.113.352 2.89 8.62 16.161 10.943l-1.23 6.513z" fill="#16272F"/><g transform="translate(38.055 -.322)"><mask id="b" fill="#fff"><use xlink:href="#a"/></mask><path d="M29.192 30.026c-16.576 0-27.627 9.927-27.627 9.927s-2.21-6.618 0-22.336C3.775 1.9 29.192.522 29.192.522S54.61 1.9 56.82 17.617c2.21 15.718 0 22.336 0 22.336s-11.05-9.927-27.628-9.927" fill="#293F4E" mask="url(#b)"/></g><path d="M67.247 24.823c-16.576 0-27.627 14.808-27.627 14.808s11.05-9.928 27.627-9.928c16.577 0 27.628 9.928 27.628 9.928s-11.05-14.808-27.628-14.808" fill="#16272F"/><path d="M93.095 58.623l.854-13.095s1.245-1.094 2.328 1.25c.968 2.099.741 3.948-.066 6.047-.808 2.1-.45 5.798-3.116 5.798M41.53 58.623l-.854-13.095s-1.245-1.094-2.328 1.25c-.969 2.099-.742 3.948.066 6.047.808 2.1.45 5.798 3.115 5.798" fill="#EABBA5"/><path d="M67.661 122.795l2.008 44.586a96.796 96.796 0 0 1-.742 17.107c-1.743 13.096-4.871 38.263-4.871 50.162 0 16.493 3.605 55.533 3.605 55.533" stroke="#0D181D" stroke-width="1.2"/></g><g><g transform="translate(2 107.633)"><mask id="d" fill="#fff"><use xlink:href="#c"/></mask><path fill="#C6F3AC" mask="url(#d)" d="M60.598 36.305H-69.706V44.4H60.962z"/></g><g transform="translate(2 107.633)"><mask id="f" fill="#fff"><use xlink:href="#e"/></mask><path d="M61.666 60.017l-.308-6.837H-69.707v13.787H61.696a91.164 91.164 0 0 0-.03-6.95" fill="#C6F3AC" mask="url(#f)"/></g><g transform="translate(2 107.633)"><mask id="h" fill="#fff"><use xlink:href="#g"/></mask><path fill="#C6F3AC" mask="url(#h)" d="M72.91 36.305v6.223l.083 1.872h132.249v-8.095z"/></g><g transform="translate(2 107.633)"><mask id="j" fill="#fff"><use xlink:href="#i"/></mask><path d="M73.389 53.18l.283 6.299c.112 2.491.111 4.991.041 7.487h131.53V53.18H73.388z" fill="#C6F3AC" mask="url(#j)"/></g></g></g></g></svg>