<svg width="1248" height="483" viewBox="0 0 1248 483" xmlns="http://www.w3.org/2000/svg" xmlns:xlink="http://www.w3.org/1999/xlink" preserveAspectRatio="xMidYMax slice"><defs><path id="house-num-a" d="M0 481.814h1248V0H0z"/></defs><g fill="none" fill-rule="evenodd"><g id="house-num-scene"><g stroke="#A1A7A7"><path d="M837.944 417.789h184.301V1.006h-184.3z"/><path d="M1001.65 208.814a8.45 8.45 0 0 1-8.45 8.45 8.45 8.45 0 0 1-8.45-8.45 8.45 8.45 0 0 1 8.45-8.45 8.45 8.45 0 0 1 8.45 8.45z"/></g><g><path d="M303.875 265.428h227.863V1.138H303.875v264.29zm.65-.65h226.563V1.788H304.525v262.99z" fill="#A1A7A7"/><path d="M417.807 1.139v251.888M531.738 127.083H303.875M531.738 253.027H303.875" stroke="#A1A7A7"/></g><g transform="translate(7 -43.836)"><path d="M708.544 181.171c0 8.36-6.777 15.136-15.136 15.136-8.36 0-15.136-6.776-15.136-15.136s6.777-15.136 15.136-15.136c8.36 0 15.136 6.776 15.136 15.136z" stroke="#A1A7A7"/><path d="M703.483 181.171c0 5.564-4.511 10.075-10.075 10.075-5.564 0-10.075-4.511-10.075-10.075 0-5.564 4.511-10.075 10.075-10.075 5.564 0 10.075 4.511 10.075 10.075z" stroke="#A1A7A7"/><mask id="house-num-b" fill="#fff"><use xlink:href="#house-num-a"/></mask><path stroke="#A1A7A7" mask="url(#house-num-b)" d="M670.165 209.831h46.15v-56.55h-46.15z"/></g><g><path fill="#1AC5E3" d="M664.658 61.935h68.25v-40.95h-68.25z"/><text font-family="Relative-Medium, Relative" font-size="18.2" font-weight="400" letter-spacing="2" fill="#FFF" transform="translate(664 20)"><tspan x="21.787" y="27.882">40</tspan></text></g><g><g><path d="M0 418.114h1248" fill="#FFF"/><path d="M0 418.114h1248" stroke="#A1A7A7"/></g><path fill="#FFF" d="M1028.625 482.139H835.402l19.902-46.8h153.42z"/><path stroke="#A1A7A7" d="M1028.625 482.139H835.402l19.902-46.8h153.42z"/></g></g></g></svg>