<svg width="1251" height="696" xmlns="http://www.w3.org/2000/svg" xmlns:xlink="http://www.w3.org/1999/xlink"><defs><path id="a" d="M248.69 6.533l-20.791 43.121-34.914 48.301H21.728L10.335 18.18l-10.29.539 2.573 110.833 104.738 5.51 97.757 2.572 28.298-37.108 33.81-48.34L250.317.593z"/><path d="M32.235 22.578C10.185 26.986.629 64.46.629 74.748c0 8.392-1.266 26.867 3.065 36.988.978 2.286 3.305 4.366 6.682 6.314 12.633 7.29 34.404 8.504 43.29 8.81.033-18.784 15.273-34.001 34.07-34.001 18.817 0 34.071 15.249 34.071 34.06H360.15c0-8.77 3.316-16.766 8.763-22.803V4.008H125.666l-8.94-3.489c-8.985 2.528-64.26 18.013-84.491 22.059z" id="c"/><path d="M32.235 22.578C10.185 26.986.629 64.46.629 74.748c0 8.392-1.266 26.867 3.065 36.988.978 2.286 3.305 4.366 6.682 6.314 12.633 7.29 34.404 8.504 43.29 8.81.033-18.784 15.273-34.001 34.07-34.001 18.817 0 34.071 15.249 34.071 34.06H360.15c0-8.77 3.316-16.766 8.763-22.803V4.008H125.666l-8.94-3.489c-8.985 2.528-64.26 18.013-84.491 22.059z" id="e"/><path d="M32.235 22.578C10.185 26.986.629 64.46.629 74.748c0 8.392-1.266 26.867 3.065 36.988.978 2.286 3.305 4.366 6.682 6.314 12.633 7.29 34.404 8.504 43.29 8.81.033-18.784 15.273-34.001 34.07-34.001 18.817 0 34.071 15.249 34.071 34.06H360.15c0-8.77 3.316-16.766 8.763-22.803V4.008H125.666l-8.94-3.489c-8.985 2.528-64.26 18.013-84.491 22.059z" id="g"/><path d="M32.235 22.578C10.185 26.986.629 64.46.629 74.748c0 8.392-1.266 26.867 3.065 36.988.978 2.286 3.305 4.366 6.682 6.314 12.633 7.29 34.404 8.504 43.29 8.81.033-18.784 15.273-34.001 34.07-34.001 18.817 0 34.071 15.249 34.071 34.06H360.15c0-8.77 3.316-16.766 8.763-22.803V4.008H125.666l-8.94-3.489c-8.985 2.528-64.26 18.013-84.491 22.059z" id="i"/><path d="M32.235 22.578C10.185 26.986.629 64.46.629 74.748c0 8.392-1.266 26.867 3.065 36.988.978 2.286 3.305 4.366 6.682 6.314 12.633 7.29 34.404 8.504 43.29 8.81.033-18.784 15.273-34.001 34.07-34.001 18.817 0 34.071 15.249 34.071 34.06H360.15c0-8.77 3.316-16.766 8.763-22.803V4.008H125.666l-8.94-3.489c-8.985 2.528-64.26 18.013-84.491 22.059z" id="k"/><path d="M530.446 102h94.28a8.274 8.274 0 0 1 0 16.547h-24.243a8.274 8.274 0 0 0-8.274 8.274 8.274 8.274 0 0 1-8.273 8.273h-89.662a8.274 8.274 0 1 1 0-16.547h19.625a8.274 8.274 0 0 0 8.274-8.273 8.274 8.274 0 0 1 8.273-8.274z" id="m"/></defs><g fill="none" fill-rule="evenodd"><g transform="translate(1 1)"><g><path fill="#FFF" d="M.325 694.22h1248.35v-48.874H.325z"/><g><path stroke="#A1A7A7" d="M.325 694.22h1248.35v-48.874H.325z"/><path d="M282.878 276.63H.924v372.434H519.51v-319.15c0-29.428-23.863-53.285-53.3-53.285H282.878z" fill="#FFF"/><path d="M282.878 276.63H.924v372.434H519.51v-319.15c0-29.428-23.863-53.285-53.3-53.285H282.878z" stroke="#A1A7A7"/><path stroke="#A1A7A7" d="M407.841 649.064h67.693V495.519h-67.693z"/><path stroke="#A1A7A7" d="M413.042 643.864h57.29V500.719h-57.29z"/><path d="M282.878 585.172h77.372v-89.715h-77.372v89.715zm.65-.65H359.6v-88.414h-76.072v88.415z" fill="#A1A7A7"/><path d="M321.564 495.458v85.505M360.25 538.21h-77.372M360.25 580.963h-77.372M321.564 576.506h-38.036" stroke="#A1A7A7"/><path d="M403.326 435.662h77.372v-89.715h-77.372v89.715zm.65-.65h76.072v-88.415h-76.072v88.415z" fill="#A1A7A7"/><path d="M442.012 345.947v85.506M480.698 388.7h-77.371M480.698 431.453h-77.371M442.012 426.996h-38.035" stroke="#A1A7A7"/><path d="M46.245 585.172h77.372v-89.715H46.245v89.715zm.65-.65h76.071v-88.414H46.895v88.415z" fill="#A1A7A7"/><path d="M84.93 495.458v85.505M123.617 538.21H46.245M123.617 580.963H46.245M84.93 576.506H46.896" stroke="#A1A7A7"/><path d="M46.245 435.662h77.372v-89.715H46.245v89.715zm.65-.65h76.071v-88.415H46.895v88.415z" fill="#A1A7A7"/><path d="M84.93 345.947v85.506M123.617 388.7H46.245M123.617 431.453H46.245M84.93 426.996H46.896" stroke="#A1A7A7"/><path d="M166.694 585.172h77.371v-89.715h-77.371v89.715zm.65-.65h76.071v-88.414h-76.071v88.415z" fill="#A1A7A7"/><path d="M205.38 495.458v85.505M244.065 538.21h-77.371M244.065 580.963h-77.371M205.38 576.506h-38.036" stroke="#A1A7A7"/><path fill="#FFF" d="M264.658 365.785l-88.688-88.662 88.688-88.663 88.687 88.663z"/><path stroke="#A1A7A7" d="M264.658 365.785l-88.688-88.662 88.688-88.663 88.687 88.663z"/><path d="M.325 669.783h3.901" stroke="#485253"/><path d="M34.229 669.783h1195.544" stroke="#A1A7A7" stroke-dasharray="7.82470006942749,29.99425029754639"/><path d="M1244.774 669.783h3.9" stroke="#A1A7A7" stroke-width=".65"/><path d="M649.51 576.243c0-10.287 9.556-47.762 31.606-52.17 22.05-4.41 85.733-22.408 85.733-22.408 28.113-19.288 85.685-53.851 144.667-53.851s165.772-4.937 177.899 4.982l26.643 67.654a48.22 48.22 0 0 1 3.288 20.072c-.722 14.457-1.493 40.88 1.39 56.228.493 2.621.8 4.95.8 6.681 0 17.721-34.73 23.45-44.366 24.697-.154-18.679-15.346-33.775-34.067-33.775-18.817 0-34.07 15.25-34.07 34.062H770.688c0-18.812-15.254-34.062-34.07-34.062-18.798 0-34.038 15.218-34.07 34.002-8.888-.306-30.659-1.52-43.291-8.81-3.377-1.949-5.704-4.028-6.683-6.314-4.33-10.121-3.064-28.596-3.064-36.988" fill="#1AC5E3"/><path d="M1013.702 628.414c0 16.234 13.163 29.393 29.4 29.393 16.239 0 29.401-13.16 29.401-29.393s-13.162-29.392-29.4-29.392-29.4 13.16-29.4 29.392M707.218 628.414c0 16.234 13.163 29.393 29.4 29.393 16.238 0 29.401-13.16 29.401-29.393s-13.163-29.392-29.4-29.392c-16.238 0-29.401 13.16-29.401 29.392" fill="#1AC5E3"/><path d="M1043.103 649.357c11.55 0 20.948-9.395 20.948-20.943 0-11.547-9.398-20.942-20.948-20.942s-20.948 9.395-20.948 20.942c0 11.548 9.397 20.943 20.948 20.943" fill="#FFF"/><path d="M1043.103 649.357c11.55 0 20.948-9.395 20.948-20.943 0-11.547-9.398-20.942-20.948-20.942s-20.948 9.395-20.948 20.942c0 11.548 9.397 20.943 20.948 20.943z" stroke="#FFF" stroke-width=".65"/><path d="M736.618 649.357c11.55 0 20.948-9.395 20.948-20.943 0-11.547-9.398-20.942-20.948-20.942s-20.948 9.395-20.948 20.942c0 11.548 9.398 20.943 20.948 20.943" fill="#FFF"/><path d="M736.618 649.357c11.55 0 20.948-9.395 20.948-20.943 0-11.547-9.398-20.942-20.948-20.942s-20.948 9.395-20.948 20.942c0 11.548 9.398 20.943 20.948 20.943z" stroke="#FFF" stroke-width=".65"/><path d="M782.426 504.261c4.208-3.06 8.926-6.855 14.944-11.007 1.002-.691 2.37.025 2.37 1.242v11.649a2.453 2.453 0 0 1-2.44 2.451c-5.418.03-9.97.022-13.514-.032-2.287-.036-3.208-2.958-1.36-4.303zm25.032-16.041c0-.878.47-1.687 1.23-2.126 5.865-3.378 12.737-6.845 20.974-10.238 30.386-12.513 56.95-19.592 81.854-19.592 3.973 0 8.152-.022 12.499-.061a4.452 4.452 0 0 1 4.48 4.776l-3.021 41.104a4.449 4.449 0 0 1-4.336 4.12c-44.124 1.015-84.218 1.934-111.2 2.272a2.449 2.449 0 0 1-2.48-2.45V488.22zm140.487-32.332c3.922-.063 7.913-.128 11.957-.196 19.35-.323 39.358-.656 57.89-.656 5.901 0 11.374.034 16.447.104a4.448 4.448 0 0 1 4.355 3.918l4.73 40.354a4.45 4.45 0 0 1-4.302 4.98c-21.324.56-53.325.278-87.998 1.11a4.452 4.452 0 0 1-4.549-4.133l-2.897-40.716a4.45 4.45 0 0 1 4.367-4.765zm106.415-.198c2.969.133 5.73.287 8.294.462 16.612 1.133 20.825 2.923 21.542 3.298 1.193 1.06 2.26 6.346 11.278 28.427 1.768 4.33-.34 9.288-4.672 11.053-4.666 1.9-12.398 3.584-25.17 3.653 0 0-2.361.065-6.66.179a4.45 4.45 0 0 1-4.537-3.905l-4.697-38.178c-.336-2.733 1.87-5.112 4.622-4.989z" fill="#FFF"/><path d="M782.426 504.261c4.208-3.06 8.926-6.855 14.944-11.007 1.002-.691 2.37.025 2.37 1.242v11.649a2.453 2.453 0 0 1-2.44 2.451c-5.418.03-9.97.022-13.514-.032-2.287-.036-3.208-2.958-1.36-4.303zm25.032-16.041c0-.878.47-1.687 1.23-2.126 5.865-3.378 12.737-6.845 20.974-10.238 30.386-12.513 56.95-19.592 81.854-19.592 3.973 0 8.152-.022 12.499-.061a4.452 4.452 0 0 1 4.48 4.776l-3.021 41.104a4.449 4.449 0 0 1-4.336 4.12c-44.124 1.015-84.218 1.934-111.2 2.272a2.449 2.449 0 0 1-2.48-2.45V488.22zm140.487-32.332c3.922-.063 7.913-.128 11.957-.196 19.35-.323 39.358-.656 57.89-.656 5.901 0 11.374.034 16.447.104a4.448 4.448 0 0 1 4.355 3.918l4.73 40.354a4.45 4.45 0 0 1-4.302 4.98c-21.324.56-53.325.278-87.998 1.11a4.452 4.452 0 0 1-4.549-4.133l-2.897-40.716a4.45 4.45 0 0 1 4.367-4.765zm106.415-.198c2.969.133 5.73.287 8.294.462 16.612 1.133 20.825 2.923 21.542 3.298 1.193 1.06 2.26 6.346 11.278 28.427 1.768 4.33-.34 9.288-4.672 11.053-4.666 1.9-12.398 3.584-25.17 3.653 0 0-2.361.065-6.66.179a4.45 4.45 0 0 1-4.537-3.905l-4.697-38.178c-.336-2.733 1.87-5.112 4.622-4.989z" stroke="#FFF" stroke-width=".65"/><path fill="#1AC5E3" d="M953.303 430.624v13.243h-3.524v3.946h-27.85v-3.946h-3.526v-13.243z"/><path d="M936.589 512.687v88.6" stroke="#FFF" stroke-width=".65"/><path d="M1054.36 455.69c2.969.134 5.73.287 8.293.462 16.613 1.133 20.826 2.924 21.543 3.298 1.193 1.06 2.26 6.346 11.277 28.428 1.769 4.329-.34 9.287-4.671 11.052-4.666 1.9-12.398 3.584-25.17 3.653 0 0-2.361.065-6.66.179a4.45 4.45 0 0 1-4.537-3.905l-4.697-38.178c-.336-2.733 1.87-5.112 4.622-4.989" fill="#FFF"/></g><g transform="translate(797.123 487.845)"><mask id="b" fill="#fff"><use xlink:href="#a"/></mask><path d="M10.335 18.18L8.366 45.956a54.67 54.67 0 0 1-.492 4.863A154.754 154.754 0 0 0 8.2 98.867l3.81 23.21a5.851 5.851 0 0 0 5.773 4.903h178.555c4.823 0 9.877-1.47 9.877-10.287 0-8.818 27.93-44.089 36.016-50.702 8.086-6.613 8.88-13.593 9.615-26.086.735-12.491-5.645-19.595-5.645-28.338L10.335 18.18z" stroke="#FFF" stroke-width=".65" mask="url(#b)"/></g><g><path d="M657.91 546.25s6.81.596 14.554.017c3.612-.27 6.7 2.56 6.7 6.182a6.21 6.21 0 0 1-5.072 6.099c-6.371 1.2-16.445.453-20.72-1.203M1119.346 540.522h-5.145a1.816 1.816 0 0 0-1.816 1.816v12.07c0 1.003.813 1.816 1.816 1.816h4.67" fill="#FFF"/><path d="M917.71 526.832h-10.903M1028.697 526.832h-10.903" stroke="#FFF" stroke-width=".65"/></g><g><g transform="translate(648.882 501.495)"><mask id="d" fill="#fff"><use xlink:href="#c"/></mask><path fill="#FFF" mask="url(#d)" d="M288.044 109.187h19.054l-54.78-53.696h-19.054z"/></g><g transform="translate(648.882 501.495)"><mask id="f" fill="#fff"><use xlink:href="#e"/></mask><path fill="#FFF" mask="url(#f)" d="M249.963 109.187h19.054l-54.78-53.696h-19.054z"/></g><g transform="translate(648.882 501.495)"><mask id="h" fill="#fff"><use xlink:href="#g"/></mask><path fill="#FFF" mask="url(#h)" d="M211.881 109.187h19.055l-54.78-53.696h-19.054z"/></g><g transform="translate(648.882 501.495)"><mask id="j" fill="#fff"><use xlink:href="#i"/></mask><path fill="#FFF" mask="url(#j)" d="M173.8 109.187h19.054l-54.78-53.696H119.02z"/></g><g transform="translate(648.882 501.495)"><mask id="l" fill="#fff"><use xlink:href="#k"/></mask><path fill="#FFF" mask="url(#l)" d="M135.288 109.187h19.055l-54.78-53.696H80.509z"/></g></g></g><g><use fill="#FFF" xlink:href="#m"/><path stroke="#A1A7A7" d="M530.446 102.5a7.774 7.774 0 0 0-7.773 7.774 8.774 8.774 0 0 1-8.774 8.773h-19.625a7.774 7.774 0 0 0 0 15.547h89.662a7.774 7.774 0 0 0 7.773-7.773 8.774 8.774 0 0 1 8.774-8.774h24.243a7.774 7.774 0 1 0 0-15.547h-94.28z"/></g><path d="M451.763 18h-88.18a6.494 6.494 0 0 0-6.494 6.494 6.494 6.494 0 0 1-6.494 6.493h-46.333a6.262 6.262 0 1 0 0 12.523h34.695a6.494 6.494 0 0 1 6.493 6.494 6.494 6.494 0 0 0 6.494 6.493h110.562a6.494 6.494 0 1 0 0-12.987h-29.323a6.262 6.262 0 1 1 0-12.523h18.58a6.494 6.494 0 0 0 0-12.987zM117.237 92h88.18a6.494 6.494 0 0 1 6.494 6.494 6.494 6.494 0 0 0 6.494 6.493h46.333a6.262 6.262 0 0 1 0 12.523h-34.695a6.494 6.494 0 0 0-6.493 6.494 6.494 6.494 0 0 1-6.494 6.493H106.494a6.494 6.494 0 1 1 0-12.987h29.323a6.262 6.262 0 1 0 0-12.523h-18.58a6.494 6.494 0 0 1 0-12.987z" stroke="#A1A7A7" fill="#FFF"/><circle stroke="#A1A7A7" fill="#FFF" cx="979" cy="55" r="38"/><path d="M744.485 0h94.708a5.485 5.485 0 0 1 5.484 5.485 5.485 5.485 0 0 0 5.485 5.484h27.55a5.289 5.289 0 1 1 0 10.578H857.71a5.485 5.485 0 0 0-5.484 5.484 5.485 5.485 0 0 1-5.485 5.485h-69.16a5.485 5.485 0 0 1 0-10.97h16.517a5.289 5.289 0 1 0 0-10.578l-49.613.001a5.485 5.485 0 0 1 0-10.97zM1010.143 63h48.379a6.95 6.95 0 0 1 6.95 6.95 6.95 6.95 0 0 0 6.948 6.948h42.879a6.701 6.701 0 0 1 0 13.402h-37.13a6.95 6.95 0 0 0-6.95 6.95 6.95 6.95 0 0 1-6.948 6.949H945.949a6.95 6.95 0 1 1 0-13.898h31.381c3.701 0 6.701-3 6.701-6.702 0-3.7 3-6.7 6.701-6.7h5.512a6.95 6.95 0 0 0 6.95-6.95 6.95 6.95 0 0 1 6.949-6.949z" stroke="#A1A7A7" fill="#FFF"/></g></g></svg>