<svg width="1344" height="427" viewBox="0 0 1344 427" xmlns="http://www.w3.org/2000/svg" xmlns:xlink="http://www.w3.org/1999/xlink" preserveAspectRatio="xMidYMax slice"><defs><path id="a" d="M.504.13h63.822v26.928H.504z"/><path id="c" d="M.604.13h63.822v26.928H.604z"/><path id="e" d="M.466.324h149.826V205.28H.466z"/><path id="g" d="M.178.068h6.58v188.3H.179z"/><path d="M75.856 16.98c-12.577 0-22.774-4.074-22.774-16.655C7.537.325.466 18.366.466 18.366S5.683 30.719 6.41 37.541c2.143 20.13 5.211 40.194 10.223 60.015l.481 1.901a217.351 217.351 0 0 1 1.566 55.4l-6.48 50.423h126.36l-6.48-50.422a217.352 217.352 0 0 1 1.567-55.4l.48-1.902c5.013-19.821 8.08-39.885 10.223-60.015.726-6.822 5.944-19.175 5.944-19.175S144.175.325 98.629.325c0 12.581-10.195 16.655-22.773 16.655z" id="i"/><path d="M75.856 16.98c-12.577 0-22.774-4.074-22.774-16.655C7.537.325.466 18.366.466 18.366S5.683 30.719 6.41 37.541c2.143 20.13 5.211 40.194 10.223 60.015l.481 1.901a217.351 217.351 0 0 1 1.566 55.4l-6.48 50.423h126.36l-6.48-50.422a217.352 217.352 0 0 1 1.567-55.4l.48-1.902c5.013-19.821 8.08-39.885 10.223-60.015.726-6.822 5.944-19.175 5.944-19.175S144.175.325 98.629.325c0 12.581-10.195 16.655-22.773 16.655" id="k"/><path d="M75.856 16.98c-12.577 0-22.774-4.074-22.774-16.655C7.537.325.466 18.366.466 18.366S5.683 30.719 6.41 37.541c2.143 20.13 5.211 40.194 10.223 60.015l.481 1.901a217.351 217.351 0 0 1 1.566 55.4l-6.48 50.423h126.36l-6.48-50.422a217.352 217.352 0 0 1 1.567-55.4l.48-1.902c5.013-19.821 8.08-39.885 10.223-60.015.726-6.822 5.944-19.175 5.944-19.175S144.175.325 98.629.325c0 12.581-10.195 16.655-22.773 16.655z" id="m"/><path d="M75.856 16.98c-12.577 0-22.774-4.074-22.774-16.655C7.537.325.466 18.366.466 18.366S5.683 30.719 6.41 37.541c2.143 20.13 5.211 40.194 10.223 60.015l.481 1.901a217.351 217.351 0 0 1 1.566 55.4l-6.48 50.423h126.36l-6.48-50.422a217.352 217.352 0 0 1 1.567-55.4l.48-1.902c5.013-19.821 8.08-39.885 10.223-60.015.726-6.822 5.944-19.175 5.944-19.175S144.175.325 98.629.325c0 12.581-10.195 16.655-22.773 16.655z" id="o"/><path id="q" d="M0 654.35h1343.588V.43H0z"/></defs><g fill="none" fill-rule="evenodd"><g><path d="M0 311.757h1248.418" stroke="#A1A7A7"/><g><path d="M577.682 242.565v139.092" stroke="#293F4E" stroke-width="26.3" stroke-linecap="round"/><path d="M577.682 335.391v46.266" stroke="#EABBA5" stroke-width="26.3"/><path d="M577.682 356.91v48.295" stroke="#EABBA5" stroke-width="26.3" stroke-linecap="round"/><path d="M703.865 242.565v139.092" stroke="#293F4E" stroke-width="26.3" stroke-linecap="round"/><path d="M703.865 335.391v46.266" stroke="#EABBA5" stroke-width="26.3"/><path d="M703.865 356.91v48.295" stroke="#EABBA5" stroke-width="26.3" stroke-linecap="round"/><g transform="translate(576.743 396.994)"><mask id="b" fill="#fff"><use xlink:href="#a"/></mask><path d="M32.415.13c17.624 0 31.91 14.292 31.91 31.923v10.704c-.01.104-9.551 109.081-9.551 165.15 0 28.049-9.867 34.213-19.732 33.944-9.866-.27-19.732-6.973-19.732-33.945C15.31 153.962.504 32.053.504 32.053.504 14.423 14.791.13 32.414.13" fill="#20363F" mask="url(#b)"/></g><g transform="translate(640.464 396.994)"><mask id="d" fill="#fff"><use xlink:href="#c"/></mask><path d="M32.515.13C14.89.13.605 14.423.605 32.054v10.704c.01.104 9.55 109.081 9.55 165.15 0 28.049 9.867 34.213 19.733 33.944 9.866-.27 19.732-6.973 19.732-33.945 0-53.944 14.806-175.853 14.806-175.853C64.426 14.423 50.138.13 32.515.13" fill="#20363F" mask="url(#d)"/></g><path d="M655.21 191.758h-28.467c0 25.06-7.97 27.338-7.97 27.338 0 12.582 10.195 16.655 22.772 16.655 12.578 0 22.774-4.073 22.774-16.655 0 0-9.11-2.279-9.11-27.338" fill="#CB9A81"/><g transform="translate(565.69 218.771)"><mask id="f" fill="#fff"><use xlink:href="#e"/></mask><path d="M134.126 97.556c5.013-19.822 8.08-39.885 10.223-60.015.726-6.822 5.943-19.175 5.943-19.175S144.175.324 98.63.324c0 12.582-10.196 16.655-22.773 16.655S53.083 12.906 53.083.324C7.536.324.466 18.366.466 18.366S5.683 30.72 6.41 37.541c2.142 20.13 5.21 40.193 10.222 60.015l.482 1.901a217.38 217.38 0 0 1 1.565 55.4l-7.122 55.418H139.2l-7.12-55.417a217.35 217.35 0 0 1 1.565-55.4l.481-1.902z" fill="#293F4E" mask="url(#f)"/></g><path d="M666.648 121.647c-4.606-4.694-14.737-5.48-25.58-5.48-10.842 0-20.973.786-25.58 5.48-7.249 7.387-5.318 19.945-5.318 19.945s.499 32.404 5.482 40.879c4.984 8.475 14.453 21.437 25.416 21.437 10.964 0 20.433-12.962 25.417-21.437 4.983-8.475 5.482-40.88 5.482-40.88s1.931-12.557-5.319-19.944" fill="#EABBA5"/><path d="M647.116 239.253c20.357-3.573 25.673-19.336 25.846-19.924l-8.656-.194 3.811 1.04-3.799-1.08c-.129.406-3.329 9.954-18.62 12.637l1.418 7.52zM635.962 239.213c-20.357-3.573-25.673-19.335-25.846-19.924l8.656-.193-3.81 1.038 3.798-1.078c.129.405 3.329 9.953 18.62 12.636l-1.418 7.52z" fill="#16272F"/><path d="M641.069 128.251c-19.1 0-31.831 11.463-31.831 11.463s-2.547-7.642 0-25.792c2.546-18.15 31.83-19.742 31.83-19.742s29.285 1.592 31.831 19.742c2.547 18.15 0 25.792 0 25.792s-12.732-11.463-31.83-11.463" fill="#293F4E"/><path d="M641.069 122.614c-19.1 0-31.831 17.1-31.831 17.1s12.732-11.463 31.83-11.463c19.1 0 31.831 11.463 31.831 11.463s-12.732-17.1-31.83-17.1" fill="#16272F"/><path d="M670.85 161.646l.982-15.122s1.435-1.263 2.682 1.444c1.117 2.423.855 4.559-.076 6.983-.93 2.424-.517 6.695-3.589 6.695M611.438 161.646l-.984-15.122s-1.435-1.263-2.681 1.444c-1.117 2.423-.855 4.559.075 6.983.932 2.424.518 6.695 3.59 6.695" fill="#EABBA5"/><g transform="translate(637.213 235.683)"><mask id="h" fill="#fff"><use xlink:href="#g"/></mask><path d="M4.332.068l2.313 51.487c.297 6.6.013 13.206-.856 19.755C3.782 86.433.178 115.496.178 129.237c0 19.046 4.154 64.126 4.154 64.126" stroke="#0D181D" stroke-width="1.385" mask="url(#h)"/></g></g><g><g transform="translate(565.69 218.771)"><mask id="j" fill="#fff"><use xlink:href="#i"/></mask><path fill="#C6F3AC" mask="url(#j)" d="M70.022 41.395H-80.107v9.35h150.55z"/></g><g transform="translate(565.69 218.771)"><mask id="l" fill="#fff"><use xlink:href="#k"/></mask><path d="M71.253 68.778l-.355-7.896H-80.106v15.92H71.287c.083-2.674.086-5.353-.034-8.024" fill="#C6F3AC" mask="url(#l)"/></g><g transform="translate(565.69 218.771)"><mask id="n" fill="#fff"><use xlink:href="#m"/></mask><path fill="#C6F3AC" mask="url(#n)" d="M84.206 41.395v7.186l.097 2.163h152.369v-9.349z"/></g><g transform="translate(565.69 218.771)"><mask id="p" fill="#fff"><use xlink:href="#o"/></mask><path d="M84.76 60.882l.326 7.274c.129 2.878.127 5.765.048 8.647h151.538V60.882H84.76z" fill="#C6F3AC" mask="url(#p)"/></g></g><g transform="translate(0 .221)"><path d="M846.34 299.896H402.078V281.68c0-6.658 5.395-12.055 12.05-12.055h420.16c6.655 0 12.05 5.397 12.05 12.055v18.216z" fill="#FFF"/><path d="M846.34 299.896H402.078V281.68c0-6.658 5.395-12.055 12.05-12.055h420.16c6.655 0 12.05 5.397 12.05 12.055v18.216z" stroke="#A1A7A7"/><mask id="r" fill="#fff"><use xlink:href="#q"/></mask><path fill="#FFF" mask="url(#r)" d="M402.079 425.782h444.26V299.896H402.08z"/><path stroke="#A1A7A7" mask="url(#r)" d="M402.079 425.782h444.26V299.896H402.08z"/><path d="M530.706 172.073l-27.682.444a5.178 5.178 0 0 0-4.13 2.055c-35.162 2.428-40.1 77.37-40.295 80.611l-11.898.181c-7.874 0-14.256 6.385-14.256 14.261h58.275c0-7.876-6.383-14.26-14.256-14.26h-11.887c.132-1.942 1.483-20.21 6.553-38.205 7.925-28.129 19.027-35.627 27.583-36.56a5.18 5.18 0 0 0 3.312 2.206l18.42 3.614c5.638 1.105 11.553-1.063 14.769-5.824l.046-.07c2.458-3.628-.173-8.524-4.554-8.453" fill="#FFF" mask="url(#r)"/><path d="M530.706 172.073l-27.682.444a5.178 5.178 0 0 0-4.13 2.055c-35.162 2.428-40.1 77.37-40.295 80.611l-11.898.181c-7.874 0-14.256 6.385-14.256 14.261h58.275c0-7.876-6.383-14.26-14.256-14.26h-11.887c.132-1.942 1.483-20.21 6.553-38.205 7.925-28.129 19.027-35.627 27.583-36.56a5.18 5.18 0 0 0 3.312 2.206l18.42 3.614c5.638 1.105 11.553-1.063 14.769-5.824l.046-.07c2.458-3.628-.173-8.524-4.554-8.453z" stroke="#A1A7A7" mask="url(#r)"/><path d="M689.256 269.625h-97.268a6.656 6.656 0 0 1-6.655-6.658v-58.003c0-10.085 8.172-18.26 18.254-18.26h74.07c10.082 0 18.255 8.175 18.255 18.26v58.003a6.657 6.657 0 0 1-6.656 6.658" fill="#FFF" mask="url(#r)"/><path d="M689.256 269.625h-97.268a6.656 6.656 0 0 1-6.655-6.658v-58.003c0-10.085 8.172-18.26 18.254-18.26h74.07c10.082 0 18.255 8.175 18.255 18.26v58.003a6.657 6.657 0 0 1-6.656 6.658zM89.165 210.521h189.69V.756H89.166zM184.01.756V210.52M278.856 105.638H89.165M863.579 210.521h189.69V.756H863.58zM958.424.756V210.52M1053.27 105.638H863.579M1153.573 210.521h189.69V.756h-189.69z" stroke="#A1A7A7" mask="url(#r)"/><path d="M1248.418.756V210.52" stroke="#A1A7A7" stroke-width=".65" mask="url(#r)"/><path d="M1343.263 105.638h-189.69" stroke="#A1A7A7" mask="url(#r)"/></g></g></g></svg>