<svg width="1688" height="538" viewBox="0 0 1688 538" xmlns="http://www.w3.org/2000/svg" xmlns:xlink="http://www.w3.org/1999/xlink" preserveAspectRatio="xMidYMax slice"><defs><path d="M84.704.526a31.496 31.496 0 0 0-28.439 17.958L3.017 130.337c-8.21 17.245 4.365 37.157 23.463 37.157h556.897c19.099 0 31.673-19.912 23.463-37.157L553.59 18.484A31.494 31.494 0 0 0 525.154.526" id="a"/><path d="M84.704.526a31.496 31.496 0 0 0-28.439 17.958L3.017 130.337c-8.21 17.245 4.365 37.157 23.463 37.157h556.897c19.099 0 31.673-19.912 23.463-37.157L553.59 18.484A31.494 31.494 0 0 0 525.154.526" id="c"/><path d="M84.704.526a31.496 31.496 0 0 0-28.439 17.958L3.017 130.337c-8.21 17.245 4.365 37.157 23.463 37.157h556.897c19.099 0 31.673-19.912 23.463-37.157L553.59 18.484A31.494 31.494 0 0 0 525.154.526" id="e"/><path d="M84.704.526a31.496 31.496 0 0 0-28.439 17.958L3.017 130.337c-8.21 17.245 4.365 37.157 23.463 37.157h556.897c19.099 0 31.673-19.912 23.463-37.157L553.59 18.484A31.494 31.494 0 0 0 525.154.526" id="g"/><path d="M84.704.526a31.496 31.496 0 0 0-28.439 17.958L3.017 130.337c-8.21 17.245 4.365 37.157 23.463 37.157h556.897c19.099 0 31.673-19.912 23.463-37.157L553.59 18.484A31.494 31.494 0 0 0 525.154.526" id="i"/><path d="M84.704.526a31.496 31.496 0 0 0-28.439 17.958L3.017 130.337c-8.21 17.245 4.365 37.157 23.463 37.157h556.897c19.099 0 31.673-19.912 23.463-37.157L553.59 18.484A31.494 31.494 0 0 0 525.154.526" id="k"/><path id="m" d="M.263 537.941h1715.474V.148H.263z"/></defs><g fill="none" fill-rule="evenodd"><g><path d="M-27.737 282.742h1715.474H-27.737z" fill="#FFF"/><path d="M-27.737 282h1715.474" stroke="#A1A7A7"/><g><g transform="translate(525 369.911)"><mask id="b" fill="#fff"><use xlink:href="#a"/></mask><path d="M-60.702 25h763.687" stroke="#A1A7A7" mask="url(#b)"/></g><g transform="translate(525 369.911)"><mask id="d" fill="#fff"><use xlink:href="#c"/></mask><path d="M-60.702 48h763.687" stroke="#A1A7A7" mask="url(#d)"/></g><g transform="translate(525 369.911)"><mask id="f" fill="#fff"><use xlink:href="#e"/></mask><path d="M-60.702 71h763.687" stroke="#A1A7A7" mask="url(#f)"/></g><g transform="translate(525 369.911)"><mask id="h" fill="#fff"><use xlink:href="#g"/></mask><path d="M-60.702 93h763.687" stroke="#A1A7A7" mask="url(#h)"/></g><g transform="translate(525 369.911)"><mask id="j" fill="#fff"><use xlink:href="#i"/></mask><path d="M-60.702 116h763.687" stroke="#A1A7A7" mask="url(#j)"/></g><g transform="translate(525 369.911)"><mask id="l" fill="#fff"><use xlink:href="#k"/></mask><path d="M-60.702 139h763.687" stroke="#A1A7A7" mask="url(#l)"/></g></g><g transform="translate(-28 -.089)"><path d="M1074.973 370.526H640.885c-16.404 0-29.702-13.297-29.702-29.701V82.06c0-44.992 36.473-81.466 81.465-81.466h330.561c44.992 0 81.465 36.474 81.465 81.466v258.765c0 16.404-13.298 29.701-29.701 29.701" fill="#FFF"/><path d="M1074.973 370.526H640.885c-16.404 0-29.702-13.297-29.702-29.701V82.06c0-44.992 36.473-81.466 81.465-81.466h330.561c44.992 0 81.465 36.474 81.465 81.466v258.765c0 16.404-13.298 29.701-29.701 29.701z" stroke="#A1A7A7"/><path d="M640.884 344.015c-1.759 0-3.19-1.43-3.19-3.19V82.06c0-30.302 24.652-54.954 54.954-54.954h330.56c30.302 0 54.954 24.652 54.954 54.954v258.765c0 1.76-1.43 3.19-3.189 3.19H640.884z" fill="#FFF"/><path d="M640.884 344.015c-1.759 0-3.19-1.43-3.19-3.19V82.06c0-30.302 24.652-54.954 54.954-54.954h330.56c30.302 0 54.954 24.652 54.954 54.954v258.765c0 1.76-1.43 3.19-3.189 3.19H640.884z" stroke="#A1A7A7"/><path d="M1078.154 370.527h-440.45a31.495 31.495 0 0 0-28.438 17.958l-53.249 111.853c-8.21 17.245 4.365 37.156 23.464 37.156h556.895c19.1 0 31.673-19.911 23.464-37.156l-53.249-111.853a31.495 31.495 0 0 0-28.437-17.958m0 24.123c2.828 0 5.44 1.65 6.655 4.203l53.25 111.855c.143.3.441.926-.108 1.794-.547.868-1.241.868-1.575.868H579.481c-.334 0-1.028 0-1.575-.868-.548-.868-.25-1.494-.108-1.794l53.25-111.855a7.406 7.406 0 0 1 6.655-4.203h440.45" fill="#FFF"/><path d="M1159.84 500.338l-53.248-111.854a31.496 31.496 0 0 0-28.438-17.958h-440.45a31.495 31.495 0 0 0-28.438 17.958l-53.249 111.854c-8.209 17.245 4.365 37.156 23.464 37.156h556.895c19.1 0 31.673-19.911 23.464-37.156z" stroke="#A1A7A7"/><mask id="n" fill="#fff"><use xlink:href="#m"/></mask><path stroke="#A1A7A7" mask="url(#n)" d="M670.017 261.317h375.823V220.5H670.017z"/><path fill="#04CEE8" mask="url(#n)" d="M670.017 261.317h3.033V220.5h-3.033z"/></g><text font-family="NPOSans-Bold, NPO Sans" font-size="34.542" font-weight="bold" fill="#5A6566" transform="translate(-28 -1)"><tspan x="717" y="183">Vid</tspan> <tspan x="766.603" y="183" letter-spacing="-.173">e</tspan> <tspan x="785.118" y="183">o uploaden...</tspan></text></g></g></svg>