<svg width="1533" height="538" viewBox="0 0 1533 538" xmlns="http://www.w3.org/2000/svg" preserveAspectRatio="xMidYMax slice"><g id="upload-scene" fill="none" fill-rule="evenodd"><g><path d="M.263 282h1715.474" stroke="#485253"/><g><path d="M1065.833 378.35H646.024a30.02 30.02 0 0 0-27.105 17.116l-50.753 106.612c-7.824 16.437 4.16 35.415 22.364 35.415h530.797c18.204 0 30.188-18.978 22.364-35.415l-50.753-106.612a30.02 30.02 0 0 0-27.105-17.116" fill="#FFF"/><g stroke="#485253"><path d="M616.5 394.911h478M600.5 417.911h505M593.5 440.911h528.002M585.5 462.911h547M571 485.911h568.5M571 508.911h581.5"/></g><path d="M1078.154 370.438h-440.45a31.495 31.495 0 0 0-28.438 17.958l-53.249 111.853c-8.21 17.245 4.365 37.156 23.464 37.156h556.895c19.1 0 31.673-19.911 23.464-37.156l-53.249-111.853a31.495 31.495 0 0 0-28.437-17.958m0 24.123c2.828 0 5.44 1.65 6.655 4.203l53.25 111.855c.143.3.441.926-.108 1.794-.547.868-1.241.868-1.575.868H579.481c-.334 0-1.028 0-1.575-.868-.548-.868-.25-1.494-.108-1.794l53.25-111.855a7.406 7.406 0 0 1 6.655-4.203h440.45" fill="#FFF"/><path d="M1159.84 500.249l-53.248-111.854a31.496 31.496 0 0 0-28.438-17.958h-440.45a31.495 31.495 0 0 0-28.438 17.958L556.017 500.25c-8.209 17.245 4.365 37.156 23.464 37.156h556.895c19.1 0 31.673-19.911 23.464-37.156z" stroke="#485253"/></g><g><path d="M1074.973 370.437H640.885c-16.404 0-29.702-13.297-29.702-29.701V81.97c0-44.992 36.473-81.466 81.465-81.466h330.561c44.992 0 81.465 36.474 81.465 81.466v258.765c0 16.404-13.298 29.701-29.701 29.701" fill="#FFF"/><path d="M1074.973 370.437H640.885c-16.404 0-29.702-13.297-29.702-29.701V81.97c0-44.992 36.473-81.466 81.465-81.466h330.561c44.992 0 81.465 36.474 81.465 81.466v258.765c0 16.404-13.298 29.701-29.701 29.701z" stroke="#485253"/><path d="M640.884 343.926c-1.759 0-3.19-1.43-3.19-3.19V81.971c0-30.302 24.652-54.954 54.954-54.954h330.56c30.302 0 54.954 24.652 54.954 54.954v258.765c0 1.76-1.43 3.19-3.189 3.19H640.884z" fill="#FFF"/><path d="M640.884 343.926c-1.759 0-3.19-1.43-3.19-3.19V81.971c0-30.302 24.652-54.954 54.954-54.954h330.56c30.302 0 54.954 24.652 54.954 54.954v258.765c0 1.76-1.43 3.19-3.189 3.19H640.884z" stroke="#485253"/><g fill="#04CEE8"><path d="M670 220.911h5v40h-5z"/></g><path stroke="#485253" d="M670.017 261.228h375.823V220.41H670.017z"/><text font-family="NPOSans-Bold, NPO Sans" font-size="34.542" font-weight="bold" fill="#5A6566" transform="translate(611 -.089)"><tspan x="106" y="182.089">Vid</tspan> <tspan x="155.603" y="182.089" letter-spacing="-.173">e</tspan> <tspan x="174.118" y="182.089">o uploaden...</tspan></text></g></g></g></svg>