<svg width="1026" height="600" xmlns="http://www.w3.org/2000/svg" xmlns:xlink="http://www.w3.org/1999/xlink"><defs><path d="M.648 23.631c.118 7.543 2.215 14.897 5.907 21.475 3.707 6.605 4.785 12.294 4.785 32.157 0 19.473 7.125 24.312 14.25 24.506 7.125.195 14.25-4.256 14.25-24.506 0-34.698 6.89-34.623 6.899-34.698V24.184c0-12.497-9.718-23.139-22.205-23.584-.282-.01-.561-.015-.841-.015C10.966.586.648 10.904.648 23.631z" id="a"/><path d="M.323 14.184v18.381c.008.075 6.898 0 6.898 34.698 0 20.25 7.126 24.701 14.25 24.506 7.125-.194 14.251-5.033 14.251-24.506 0-19.863 1.077-25.552 4.784-32.157 3.693-6.578 5.79-13.932 5.908-21.475C46.414.624 32.133.036 22.528.036 10.032.036.323 1.687.323 14.184z" id="c"/><path d="M54.634 9.408c-9.083 0-16.446.465-16.446-8.618C5.294.79.189 13.815.189 13.815s3.767 8.918 4.292 13.843c1.547 14.532 3.763 29.017 7.382 43.327l.348 1.372a156.896 156.896 0 0 1 1.13 39.996L8.199 152.36h92.182l-5.143-40.007a156.85 156.85 0 0 1 1.131-39.996l.347-1.372c3.62-14.31 5.836-28.795 7.383-43.327.525-4.925 4.292-13.843 4.292-13.843S103.974.79 71.081.79c0 9.083-7.364 8.618-16.447 8.618z" id="e"/><path d="M54.634 9.408c-9.083 0-16.446.465-16.446-8.618C5.294.79.189 13.815.189 13.815s3.767 8.918 4.292 13.843c1.547 14.532 3.763 29.017 7.382 43.327l.348 1.372a156.896 156.896 0 0 1 1.13 39.996L8.199 152.36h92.182l-5.143-40.007a156.85 156.85 0 0 1 1.131-39.996l.347-1.372c3.62-14.31 5.836-28.795 7.383-43.327.525-4.925 4.292-13.843 4.292-13.843S103.974.79 71.081.79c0 9.083-7.364 8.618-16.447 8.618" id="g"/><path d="M54.634 9.408c-9.083 0-16.446.465-16.446-8.618C5.294.79.189 13.815.189 13.815s3.767 8.918 4.292 13.843c1.547 14.532 3.763 29.017 7.382 43.327l.348 1.372a156.896 156.896 0 0 1 1.13 39.996L8.199 152.36h92.182l-5.143-40.007a156.85 156.85 0 0 1 1.131-39.996l.347-1.372c3.62-14.31 5.836-28.795 7.383-43.327.525-4.925 4.292-13.843 4.292-13.843S103.974.79 71.081.79c0 9.083-7.364 8.618-16.447 8.618z" id="i"/><path d="M54.634 9.408c-9.083 0-16.446.465-16.446-8.618C5.294.79.189 13.815.189 13.815s3.767 8.918 4.292 13.843c1.547 14.532 3.763 29.017 7.382 43.327l.348 1.372a156.896 156.896 0 0 1 1.13 39.996L8.199 152.36h92.182l-5.143-40.007a156.85 156.85 0 0 1 1.131-39.996l.347-1.372c3.62-14.31 5.836-28.795 7.383-43.327.525-4.925 4.292-13.843 4.292-13.843S103.974.79 71.081.79c0 9.083-7.364 8.618-16.447 8.618z" id="k"/><path id="m" d="M0 353h228.774V.609H0z"/><path id="o" d="M0 .646h47.449v98.519H0z"/><path d="M54.634 12.64c-9.083 0-16.446-2.941-16.446-12.024C5.294.616.189 13.641.189 13.641s3.767 8.918 4.292 13.843c1.547 14.533 3.763 29.017 7.382 43.326l.348 1.374a156.886 156.886 0 0 1 1.13 39.995l-5.142 40.007h92.182l-5.143-40.007a156.84 156.84 0 0 1 1.131-39.995l.347-1.374c3.62-14.309 5.836-28.793 7.383-43.326.525-4.925 4.292-13.843 4.292-13.843S103.974.616 71.081.616c0 9.083-7.364 12.024-16.447 12.024z" id="q"/><path d="M54.634 12.64c-9.083 0-16.446-2.941-16.446-12.024C5.294.616.189 13.641.189 13.641s3.767 8.918 4.292 13.843c1.547 14.533 3.763 29.017 7.382 43.326l.348 1.374a156.886 156.886 0 0 1 1.13 39.995l-5.142 40.007h92.182l-5.143-40.007a156.84 156.84 0 0 1 1.131-39.995l.347-1.374c3.62-14.309 5.836-28.793 7.383-43.326.525-4.925 4.292-13.843 4.292-13.843S103.974.616 71.081.616c0 9.083-7.364 12.024-16.447 12.024" id="s"/><path d="M54.634 12.64c-9.083 0-16.446-2.941-16.446-12.024C5.294.616.189 13.641.189 13.641s3.767 8.918 4.292 13.843c1.547 14.533 3.763 29.017 7.382 43.326l.348 1.374a156.886 156.886 0 0 1 1.13 39.995l-5.142 40.007h92.182l-5.143-40.007a156.84 156.84 0 0 1 1.131-39.995l.347-1.374c3.62-14.309 5.836-28.793 7.383-43.326.525-4.925 4.292-13.843 4.292-13.843S103.974.616 71.081.616c0 9.083-7.364 12.024-16.447 12.024z" id="u"/><path d="M54.634 12.64c-9.083 0-16.446-2.941-16.446-12.024C5.294.616.189 13.641.189 13.641s3.767 8.918 4.292 13.843c1.547 14.533 3.763 29.017 7.382 43.326l.348 1.374a156.886 156.886 0 0 1 1.13 39.995l-5.142 40.007h92.182l-5.143-40.007a156.84 156.84 0 0 1 1.131-39.995l.347-1.374c3.62-14.309 5.836-28.793 7.383-43.326.525-4.925 4.292-13.843 4.292-13.843S103.974.616 71.081.616c0 9.083-7.364 12.024-16.447 12.024z" id="w"/><path id="y" d="M.484.78h47.611v32.873H.485z"/></defs><g fill="none" fill-rule="evenodd"><g><path d="M1 344h1024" stroke="#979797" stroke-linecap="square"/><g><path fill="#1B2C35" d="M216.55 556.89l-5.505-1.144-1.437 5.368z"/><g><path d="M205.654 567.72c2.663-.77 4.178-3.55 3.439-6.222-2.2-7.957-8.4-5.419-18.151-7.75-8.42-2.013-15.95-.207-18.15 7.75-.74 2.672.776 5.451 3.439 6.221l2.328.673a44.586 44.586 0 0 0 24.767 0l2.328-.673z" fill="#1B2C35"/><path d="M201.534 464.992c12.488.444 22.205 11.087 22.205 23.583v18.38c-.008.076-6.898 0-6.898 34.7 0 20.25-7.125 24.7-14.25 24.506-7.125-.195-14.25-5.034-14.25-24.506 0-19.863-1.078-25.552-4.786-32.158-3.692-6.578-5.79-13.932-5.907-21.474 0-13.007 10.775-23.497 23.886-23.031" fill="#20363F"/><path d="M221.034 561.182c-.826-1.689-2.258-3.407-3.504-4.037-1-.505-2.533-.249-3.879.18-1.415.448-2.898.644-4.383.648l-.66.001c-1.043-.01-2.114-.007-3.207-.007-2.55 0-4.979-.015-7.196.165-1.119.09-2.247.015-3.343-.225-4.043-.884-6.508-1.828-6.508-1.828l-4.833 5.868 4.5 1.748c-.29.6-.552 1.242-.758 1.973-.754 2.683.81 5.513 3.488 6.287l2.266.656c7.741 2.238 15.936 1.334 23.716-.71 1.223-.322 2.356-.973 3.18-1.93a5.42 5.42 0 0 0 .986-1.658c1.098-2.984.778-6.497.135-7.13" fill="#1B2C35"/></g><g transform="translate(177 464.391)"><mask id="b" fill="#fff"><use xlink:href="#a"/></mask><path fill="#243D45" mask="url(#b)" d="M-9.027 43.062h55.765V22.483H-9.027z"/></g><g><path fill="#1B2C35" d="M239.512 556.89l5.504-1.144 1.437 5.368zM250.408 567.72c-2.663-.77-4.178-3.55-3.44-6.222 2.2-7.957 8.4-5.419 18.152-7.75 8.42-2.013 15.95-.207 18.15 7.75.739 2.672-.776 5.451-3.44 6.221l-2.327.673a44.586 44.586 0 0 1-24.767 0l-2.328-.673z"/><path d="M254.528 474.427c-12.488.444-22.205 1.651-22.205 14.147v18.381c.008.076 6.898 0 6.898 34.7 0 20.25 7.125 24.7 14.25 24.505 7.125-.195 14.25-5.034 14.25-24.506 0-19.863 1.078-25.552 4.786-32.157 3.692-6.579 5.789-13.932 5.907-21.475 0-13.007-10.775-14.06-23.886-13.595" fill="#20363F"/><path d="M235.027 561.182c.826-1.689 2.258-3.407 3.504-4.037 1-.505 2.533-.249 3.879.18 1.415.448 2.898.644 4.383.648l.66.001c1.043-.01 2.114-.007 3.207-.007 2.551 0 4.979-.015 7.196.165 1.119.09 2.247.015 3.343-.225 4.043-.884 6.508-1.828 6.508-1.828l4.833 5.868-4.499 1.748c.289.6.551 1.242.757 1.973.754 2.683-.81 5.513-3.488 6.287l-2.266.656c-7.741 2.238-15.936 1.334-23.716-.71-1.223-.322-2.356-.973-3.18-1.93a5.42 5.42 0 0 1-.986-1.658c-1.098-2.984-.778-6.497-.135-7.13" fill="#1B2C35"/></g><g transform="translate(232 474.391)"><mask id="d" fill="#fff"><use xlink:href="#c"/></mask><path fill="#293F4E" mask="url(#d)" d="M.323 33.063h55.765L34.706-31.025.323 12.483z"/></g><g><path d="M183.302 279.873s-5.015-4.341-5.684-6.574c-.62-2.067 25.047-5.21 28.672-4.67 3.625.543 22.988 11.244 22.988 11.244" fill="#16272F"/><path d="M216.502 317.445h-20.558c0 18.091-5.756 19.736-5.756 19.736 0 9.083 7.363 12.024 16.446 12.024 9.083 0 16.447-2.94 16.447-12.024 0 0-6.579-1.645-6.579-19.736" fill="#EABBA5"/><path d="M224.763 266.83c-3.327-3.388-10.643-3.957-18.473-3.957-7.83 0-15.147.569-18.473 3.957-5.236 5.333-3.842 14.398-3.842 14.398s.36 23.395 3.96 29.513c3.598 6.118 10.437 10.39 18.355 10.39 7.918 0 14.756-4.272 18.355-10.39 3.6-6.118 3.96-29.513 3.96-29.513s1.394-9.065-3.842-14.398" fill="#EABBA5"/><path d="M184.019 282.978s6.002.432 7.599 1.598c1.597 1.167 7.5 1.926 9.333 4.39 1.834 2.463 7.667-2.944 10.834-4.39 3.166-1.445 8.259-3.11 11.296-2.278 3.037.833 5.524-1.07 5.524-1.07l.673-1.356-20.493-13.74-25.483 13.74.717 3.106z" fill="#6F4518"/><path d="M227.797 295.706l.71-10.917s1.036-.912 1.937 1.042c.806 1.75.617 3.292-.055 5.042s-.374 4.833-2.592 4.833M184.89 295.706l-.71-10.917s-1.035-.912-1.936 1.042c-.806 1.75-.617 3.292.055 5.042s.374 4.833 2.592 4.833" fill="#D0A694"/><path d="M206.29 274.597c-13.793 0-22.988 5.275-22.988 5.275s-1.84-5.517 0-18.62C185.14 248.15 206.29 247 206.29 247s21.149 1.15 22.988 14.252c1.839 13.103 0 18.62 0 18.62s-9.195-5.275-22.988-5.275" fill="#293F4E"/><path d="M132.415 480.43c-.314 1.387.537 2.876 1.891 3.31a2.577 2.577 0 0 0 3.082-1.943l-.313 1.38c-.309 1.36.433 2.811 1.776 3.19a2.576 2.576 0 0 0 3.216-1.909 2.577 2.577 0 0 0 2.204 3.128c1.337.165 2.554-.818 2.852-2.132l1.04-4.583-.706 3.11c-.275 1.215.294 2.515 1.435 3.014a2.578 2.578 0 0 0 3.568-1.782l.7-3.088c.608 2.368 1.225 4.751 2.317 5.092.725.227 3.187.495 3.681-2.692.318-2.047-1.316-5.973-2.528-8.527a55.282 55.282 0 0 0-1.099-2.197v-.002c-4.894-6.383-14.613-7.094-20.317-.896a8.037 8.037 0 0 0-1.923 3.664l-.876 3.863z" fill="#EABBA5"/><path d="M159.513 354.124l-10.933 99.818" stroke="#293F4E" stroke-width="17" stroke-linecap="round"/><path d="M152.217 420.74l-3.637 33.202" stroke="#EABBA5" stroke-width="17"/><path d="M150.525 436.184l-3.796 34.658" stroke="#EABBA5" stroke-width="17" stroke-linecap="round"/><path d="M281.875 481.059c.314 1.387-.537 2.876-1.891 3.309a2.577 2.577 0 0 1-3.082-1.942l.313 1.38c.309 1.36-.433 2.81-1.776 3.19a2.576 2.576 0 0 1-3.216-1.91 2.577 2.577 0 0 1-2.204 3.129c-1.337.165-2.554-.818-2.852-2.132l-1.039-4.583.705 3.11c.275 1.215-.294 2.515-1.435 3.014a2.578 2.578 0 0 1-3.568-1.782l-.7-3.088c-.608 2.368-1.225 4.75-2.317 5.092-.725.227-3.187.495-3.681-2.692-.318-2.047 1.316-5.973 2.528-8.527a55.282 55.282 0 0 1 1.099-2.197l.001-.002c4.893-6.383 14.612-7.094 20.316-.896a8.037 8.037 0 0 1 1.923 3.664l.876 3.863z" fill="#EABBA5"/><path d="M252.641 354.124l13.785 99.465" stroke="#293F4E" stroke-width="17" stroke-linecap="round"/><path d="M261.84 420.504l4.586 33.084" stroke="#EABBA5" stroke-width="17"/><path d="M263.973 435.893l4.786 34.535" stroke="#EABBA5" stroke-width="17" stroke-linecap="round"/><path d="M248.716 407.376c3.62-14.31 5.836-28.794 7.383-43.326.524-4.926 4.292-13.843 4.292-13.843s-4.418-13.025-37.31-13.025c0 4.332-7.594 5.292-15.422 5.492-8.584.219-17.472-.742-17.472-5.492-32.893 0-37.999 13.025-37.999 13.025s3.768 8.917 4.293 13.843c1.547 14.532 3.762 29.017 7.382 43.326l.348 1.373a156.887 156.887 0 0 1 1.13 39.995l-5.142 40.008h92.182l-5.143-40.008a156.842 156.842 0 0 1 1.131-39.995l.347-1.373z" fill="#293F4E"/><path d="M223.19 337.198l-.11-.024c-.092.223-2.404 2.481-13.446 3.958 0 0-2.953.526-6.008-.022-11.043-1.477-13.354-3.735-13.447-3.958l-.111.024-6.132.104c.125.325 3.964 4.098 18.666 6.066 0 0 3.688.643 8.055 0 14.702-1.968 18.542-5.719 18.666-6.044l-6.132-.104z" fill="#16272F"/></g><g><g transform="translate(152 336.391)"><mask id="f" fill="#fff"><use xlink:href="#e"/></mask><path fill="#C6F3AC" mask="url(#f)" d="M70.929 30.44h-128.93v6.75H71.233z"/></g><g transform="translate(152 336.391)"><mask id="h" fill="#fff"><use xlink:href="#g"/></mask><path d="M67.573 50.209l-.256-5.7H-58v11.494H67.598c.06-1.931.062-3.865-.025-5.794" fill="#C6F3AC" mask="url(#h)"/></g><g transform="translate(152 336.391)"><mask id="j" fill="#fff"><use xlink:href="#i"/></mask><path fill="#C6F3AC" mask="url(#j)" d="M60.665 30.44v5.189l.07 1.56h110.039v-6.748z"/></g><g transform="translate(152 336.391)"><mask id="l" fill="#fff"><use xlink:href="#k"/></mask><path d="M61.064 44.508l.236 5.252a86.03 86.03 0 0 1 .034 6.242h109.44V44.508H61.064z" fill="#C6F3AC" mask="url(#l)"/></g></g><g transform="translate(94 246.391)"><path fill="#5A6566" d="M169.852 249.543l-100.6-1.51-30.386 17.494h130.986z"/><mask id="n" fill="#fff"><use xlink:href="#m"/></mask><path d="M38.866 281.676h112.021v-104.15H38.866v104.15zm16.148-40.255h79.725v-47.746H55.014v47.746z" fill="#9FA5A5" mask="url(#n)"/><path fill="#9FA5A5" mask="url(#n)" d="M38.866 296.989h112.021v-15.314H38.866zM169.852 264.857l-18.965 16.819v-15.314l18.965-16.82z"/><path fill="#9FA5A5" mask="url(#n)" d="M169.852 280.17l-18.965 16.82v-15.315l18.965-16.819zM38.866 353H54.18v-56.011H38.866zM59.552 341.293h15.314v-56.011H59.552z"/><path fill="#9FA5A5" mask="url(#n)" d="M135.574 353h15.314v-56.011h-15.314zM154.538 336.934h15.314v-56.011h-15.314z"/><path fill="#293F4E" mask="url(#n)" d="M150.887 258.345l14.646-12.333-10.995-10.834-3.651-1.875z"/></g></g><g><g><path d="M672.483 112.043l-50.588 86.742" stroke="#1F303D" stroke-width="17" stroke-linecap="round"/><path d="M638.722 169.933l-16.827 28.852" stroke="#DEA79F" stroke-width="17"/><path d="M630.895 183.353l-17.564 30.117" stroke="#DEA79F" stroke-width="17" stroke-linecap="round"/><path d="M596.355 216.408c-.851 1.14-.68 2.846.381 3.792a2.577 2.577 0 0 0 3.606-.52l-.848 1.133c-.835 1.117-.747 2.744.325 3.637a2.577 2.577 0 0 0 3.715-.436 2.577 2.577 0 0 0 .74 3.754c1.155.694 2.667.291 3.474-.788l2.813-3.764-1.91 2.554c-.745.998-.754 2.417.086 3.337a2.578 2.578 0 0 0 3.984-.176l1.896-2.537c-.408 2.41-.814 4.839.045 5.594.57.503 2.71 1.749 4.458-.962 1.123-1.74 1.227-5.991 1.159-8.818a55.282 55.282 0 0 0-.11-2.454v-.002c-1.875-7.821-10.464-12.424-18.196-9.082a8.037 8.037 0 0 0-3.247 2.565l-2.371 3.173z" fill="#DEA79F"/></g><g><g transform="translate(580 205.547)"><mask id="p" fill="#fff"><use xlink:href="#o"/></mask><path d="M2.232 86.287c14.825 3.697 29.133 8.953 44.228 11.607-5.355-31.379-5.246-63.383-5.21-95.16-13.121-.906-26.162-1.35-39.316-1.208-.856 28.5-2.816 56.484.298 84.761m45.217 12.878c-15.607-2.768-30.356-8.244-45.695-12.026C-1.365 58.3.427 29.767 1.416.68c13.57-.168 27.01.29 40.55 1.18-.018 33.272 1.366 64.33 5.483 97.305" fill="#5A6566" mask="url(#p)"/></g><path d="M626.972 304.076c-15.359-2.696-29.893-8.067-44.98-11.815-3.09-28.54-1.244-56.836-.318-85.61 13.363-.155 26.603.296 39.934 1.194-.023 32.199.067 64.426 5.364 96.23" fill="#FFF"/><path d="M615.259 215.16c-9.382-.667-18.778-1.04-28.19-1.193-.21-.003-.276-.263-.272-.434.004-.17.082-.427.292-.426 9.408.103 18.801.446 28.177 1.155.255.02.338.271.337.475 0 .202-.09.44-.344.422M615.216 221.63a834.36 834.36 0 0 0-28.28-1.549c-.21-.007-.277-.27-.274-.442.004-.172.082-.43.292-.422 9.435.316 18.86.781 28.267 1.5.256.02.34.279.34.484 0 .204-.089.447-.345.428M615.2 228.217c-9.442-.784-18.915-1.4-28.38-1.994-.21-.014-.277-.28-.274-.451.003-.172.08-.429.29-.417 9.461.542 18.924 1.153 28.364 1.93.256.02.344.287.344.494.002.205-.086.46-.343.438M615.231 234.892c-9.496-.814-19.004-1.68-28.508-2.495-.21-.018-.278-.286-.276-.459.002-.173.08-.431.29-.414 9.498.764 18.996 1.606 28.484 2.415.258.021.347.297.351.504.004.207-.082.471-.34.449M615.306 241.677c-9.557-.948-19.122-2.012-28.677-3.072-.211-.023-.28-.294-.278-.47.001-.173.079-.43.29-.409 9.55 1.008 19.106 2.021 28.652 3 .26.028.35.299.355.508.005.21-.081.47-.342.443M615.473 248.576c-9.657-1.112-19.309-2.4-28.945-3.728-.213-.03-.28-.304-.28-.48.002-.175.08-.431.293-.403 9.627 1.273 19.263 2.525 28.907 3.628.262.03.356.319.363.53.008.213-.075.484-.338.453M615.721 255.621c-9.783-1.375-19.569-2.859-29.317-4.509-.216-.037-.283-.31-.282-.489.002-.178.085-.43.3-.395 9.733 1.592 19.498 3.026 29.26 4.397.267.038.366.33.377.543.01.215-.07.491-.338.453M616.077 262.807c-9.947-1.642-19.88-3.496-29.789-5.394-.219-.042-.295-.317-.292-.5.004-.182.088-.43.306-.389 9.889 1.843 19.798 3.633 29.721 5.264.271.045.371.345.385.562.015.217-.06.502-.331.457M616.55 270.171c-10.146-1.923-20.224-4.292-30.337-6.426-.223-.047-.312-.321-.314-.513-.004-.192.088-.43.31-.383 10.087 2.092 20.143 4.368 30.263 6.272.276.052.385.37.403.59.02.219-.048.512-.325.46M617.198 277.706c-10.29-2.244-20.407-5.165-30.673-7.54-.227-.053-.366-.321-.39-.53-.024-.206.07-.439.296-.387 10.26 2.31 20.387 5.164 30.664 7.389.28.06.38.376.413.603.034.227-.028.526-.31.465M617.494 285.024c-10.336-2.282-20.481-5.36-30.73-8.05-.227-.06-.298-.385-.3-.578 0-.194.091-.482.317-.423 10.236 2.679 20.373 5.7 30.687 8.04.281.065.36.36.37.576.009.217-.062.497-.344.435" fill="#5A6566"/></g><path d="M765.641 111.779l13.785 99.465" stroke="#1F303D" stroke-width="17" stroke-linecap="round"/><path d="M774.84 178.159l4.585 33.084" stroke="#DEA79F" stroke-width="17"/><path d="M776.973 193.548l4.786 34.535" stroke="#DEA79F" stroke-width="17" stroke-linecap="round"/><g><path d="M712.709 400.485c2.663-.77 4.178-3.549 3.439-6.221-2.2-7.957-9.493-7.75-18.151-7.75-8.657 0-15.95-.207-18.15 7.75-.74 2.672.776 5.451 3.439 6.221l2.328.673a44.586 44.586 0 0 0 24.767 0l2.328-.673z" fill="#152128"/><path d="M696.244 223.36c12.728 0 23.046 10.319 23.046 23.046v7.728c-.008.075-6.899 78.75-6.899 119.227 0 20.25-7.125 24.7-14.25 24.506-7.125-.194-14.25-5.034-14.25-24.506 0-38.944-10.692-126.955-10.692-126.955 0-12.727 10.317-23.045 23.045-23.045" fill="#192930"/><path d="M700.75 406.792c2.663-.77 4.178-3.549 3.439-6.22-2.2-7.958-9.493-7.75-18.151-7.75-8.657 0-15.95-.208-18.15 7.75-.739 2.671.776 5.45 3.439 6.22l2.328.673a44.586 44.586 0 0 0 24.767 0l2.328-.673z" fill="#152128"/><path d="M700.75 406.792l3.661-2.639a24.163 24.163 0 0 1 5.687-3.04l4.535-1.692-2.209-9.736-.35.286a16.3 16.3 0 0 1-7.936 3.508 15.963 15.963 0 0 1-4.5.043 46.285 46.285 0 0 1-3.308-.575l-10.292-2.176-3.633-1.086-12.053 6.403M724.902 400.485c-2.663-.77-4.178-3.549-3.439-6.221 2.2-7.957 9.493-7.75 18.151-7.75 8.657 0 15.95-.207 18.15 7.75.739 2.672-.776 5.451-3.439 6.221l-2.328.673a44.586 44.586 0 0 1-24.767 0l-2.328-.673z" fill="#152128"/><path d="M742.335 223.36c-12.728 0-23.046 10.319-23.046 23.046v7.728c.008.075 6.9 78.75 6.9 119.227 0 20.25 7.124 24.7 14.25 24.506 7.124-.194 14.25-5.034 14.25-24.506 0-38.944 10.691-126.955 10.691-126.955 0-12.727-10.317-23.045-23.045-23.045" fill="#192930"/><path d="M736.86 406.792c-2.662-.77-4.177-3.549-3.438-6.22 2.2-7.958 9.493-7.75 18.15-7.75 8.658 0 15.95-.208 18.15 7.75.74 2.671-.775 5.45-3.438 6.22l-2.328.673a44.586 44.586 0 0 1-24.767 0l-2.328-.673z" fill="#152128"/><path d="M736.86 406.792l-3.66-2.639a24.163 24.163 0 0 0-5.687-3.04l-4.535-1.692 2.209-9.736.35.286a16.3 16.3 0 0 0 7.936 3.508c1.49.221 3.007.247 4.5.043a46.285 46.285 0 0 0 3.308-.575l10.292-2.176 3.633-1.086 12.053 6.403" fill="#152128"/><path d="M729.502 75.1h-20.558c0 18.091-5.756 19.736-5.756 19.736 0 9.083 7.363 12.024 16.446 12.024 9.083 0 16.447-2.94 16.447-12.024 0 0-6.579-1.645-6.579-19.736" fill="#C1918B"/><path d="M761.716 165.03c3.62-14.309 5.836-28.794 7.383-43.326.524-4.926 4.292-13.843 4.292-13.843s-4.418-13.025-37.31-13.025c0 9.083-7.364 12.024-16.447 12.024-9.083 0-16.447-2.94-16.447-12.024-32.893 0-37.999 13.025-37.999 13.025s3.768 8.917 4.293 13.843c1.547 14.532 3.762 29.017 7.382 43.326l.348 1.373a156.887 156.887 0 0 1 1.13 39.995l-5.142 40.008h92.182l-5.143-40.008a156.842 156.842 0 0 1 1.131-39.995l.347-1.373z" fill="#1F303D"/><path d="M723.657 109.388c14.702-2.58 18.542-13.96 18.666-14.384l-6.251-.14 2.752.75-2.743-.778c-.094.293-2.405 7.186-13.447 9.123l1.023 5.429zM715.602 109.359c-14.702-2.58-18.542-13.96-18.666-14.384l6.251-.14-2.752.75 2.743-.778c.094.293 2.405 7.186 13.447 9.123l-1.023 5.429z" fill="#121D23"/><path d="M719.634 106.86l1.671 37.17a80.851 80.851 0 0 1-.618 14.262c-1.45 10.918-4.053 31.899-4.053 41.819 0 13.75 3 46.296 3 46.296" stroke="#0C1316"/></g><g><g transform="translate(665 94.22)"><mask id="r" fill="#fff"><use xlink:href="#q"/></mask><path fill="#BDF49D" mask="url(#r)" d="M50.421 30.266h-108.42v6.75H50.723z"/></g><g transform="translate(665 94.22)"><mask id="t" fill="#fff"><use xlink:href="#s"/></mask><path d="M51.31 50.035l-.256-5.7H-58v11.493H51.335c.06-1.93.062-3.864-.025-5.794" fill="#BDF49D" mask="url(#t)"/></g><g transform="translate(665 94.22)"><mask id="v" fill="#fff"><use xlink:href="#u"/></mask><path fill="#BDF49D" mask="url(#v)" d="M60.665 30.266v5.188l.07 1.561h110.039v-6.749z"/></g><g transform="translate(665 94.22)"><mask id="x" fill="#fff"><use xlink:href="#w"/></mask><path d="M61.064 44.334l.236 5.252a86.03 86.03 0 0 1 .034 6.242h109.44V44.334H61.064z" fill="#BDF49D" mask="url(#x)"/></g></g><g><path d="M794.875 238.713c.314 1.387-.537 2.876-1.891 3.31a2.577 2.577 0 0 1-3.082-1.943l.313 1.38c.309 1.36-.433 2.811-1.776 3.19a2.576 2.576 0 0 1-3.216-1.909 2.577 2.577 0 0 1-2.204 3.128c-1.337.165-2.554-.818-2.852-2.132l-1.039-4.583.705 3.11c.275 1.215-.294 2.515-1.435 3.014a2.578 2.578 0 0 1-3.568-1.782l-.7-3.088c-.608 2.368-1.225 4.751-2.317 5.092-.725.227-3.187.495-3.681-2.692-.318-2.047 1.316-5.973 2.528-8.527a55.282 55.282 0 0 1 1.1-2.199c4.893-6.383 14.612-7.094 20.316-.896a8.037 8.037 0 0 1 1.923 3.664l.876 3.863zM737.763 24.484c-3.327-3.388-10.643-3.957-18.473-3.957-7.83 0-15.147.57-18.473 3.957-5.236 5.333-3.842 14.398-3.842 14.398s.36 23.395 3.96 29.513c3.598 6.118 10.437 15.476 18.355 15.476 7.918 0 14.756-9.358 18.355-15.476 3.6-6.118 3.96-29.513 3.96-29.513s1.394-9.065-3.842-14.398" fill="#DEA79F"/><path d="M740.797 53.36l.71-10.916s1.036-.912 1.937 1.042c.806 1.75.617 3.292-.055 5.042s-.374 4.833-2.592 4.833M697.89 53.36l-.71-10.916s-1.035-.912-1.936 1.042c-.806 1.75-.617 3.292.055 5.042s.374 4.833 2.592 4.833" fill="#C69683"/><g transform="translate(695 -.78)"><mask id="z" fill="#fff"><use xlink:href="#y"/></mask><path d="M24.29 25.377c-13.793 0-22.988 8.276-22.988 8.276s-1.84-5.517 0-18.621C3.14 1.929 24.29.78 24.29.78s21.149 1.149 22.988 14.252c1.839 13.104 0 18.62 0 18.62s-9.195-8.275-22.988-8.275" fill="#1F303D" mask="url(#z)"/></g><path d="M719.01 31.387c-13.793 0-22.708 1.486-22.708 1.486s9.195-12.345 22.988-12.345c13.792 0 22.987 12.345 22.987 12.345s-9.474-1.486-23.267-1.486" fill="#121D23"/><path d="M710.412 47.796a1.902 1.902 0 1 1-3.804 0 1.902 1.902 0 0 1 3.804 0M732.66 47.796a1.902 1.902 0 1 1-3.803 0 1.902 1.902 0 0 1 3.804 0" fill="#333535"/><path d="M729.104 66.42c-3.556 0-7.226-3.9-10.094-3.9-2.867 0-6.538 3.9-10.093 3.9-3.556 0-4.13-7.342-4.13-4.13 0 3.211 3.67 7.341 7.34 7.341 3.672 0 2.983-3.212 6.883-3.212s3.212 3.212 6.882 3.212c3.67 0 7.34-4.13 7.34-7.34 0-3.213-.572 4.128-4.128 4.128" fill="#DBDBDB"/><path d="M704.38 46.588s1.254-3.167 5.004-3.167M734.888 46.588s-1.254-3.167-5.004-3.167" stroke="#DBDBDB" stroke-width="2" stroke-linecap="round" stroke-linejoin="round"/><path d="M676.775 100.31l.398-.147c4.328-1.6 9.467-2.713 15.276-3.308l.454-.047.575 2.964-.545.055c-5.762.585-10.813 1.697-15.013 3.303l-.557.214-.588-3.033z" fill="#D1B300"/><path d="M693.307 96.265l-.909.093c-5.85.598-11.032 1.72-15.399 3.336l-.796.295.162.833.394 2.032.226 1.17 1.113-.427c4.16-1.59 9.168-2.692 14.886-3.272l1.09-.11-.21-1.075-.383-1.978-.174-.897zm-.808 1.088l.384 1.977c-6.432.652-11.37 1.891-15.143 3.333l-.394-2.03c3.86-1.429 8.813-2.632 15.153-3.28z" fill="#000"/><path d="M760.66 103.13c-4.2-1.606-9.251-2.718-15.013-3.303l-.545-.054.575-2.964.454.047c5.809.593 10.948 1.707 15.276 3.307l.398.148-.588 3.033-.556-.213z" fill="#D1B300"/><path d="M745.273 96.265l-.174.897-.383 1.978-.21 1.074 1.09.111c5.718.58 10.726 1.681 14.886 3.272l1.113.426.226-1.169.394-2.032.162-.833-.797-.295c-4.366-1.616-9.547-2.738-15.398-3.336l-.91-.093zm.808 1.088c6.34.648 11.293 1.851 15.153 3.28l-.394 2.03c-3.772-1.442-8.711-2.68-15.143-3.333l.384-1.977z" fill="#000"/></g></g></g></g></svg>