<svg width="1250" height="676" xmlns="http://www.w3.org/2000/svg" xmlns:xlink="http://www.w3.org/1999/xlink"><defs><path id="a" d="M.62 52.146l33.798 48.311 28.287 37.087 97.723-2.57 104.702-5.508 2.571-110.77-10.287-.536-11.388 79.728H74.83L39.928 49.615 19.144 6.52 17.518.583z"/><path d="M243.517 3.996H.357v100.049a33.902 33.902 0 0 1 8.76 22.79h238.258c0-18.8 15.248-34.04 34.057-34.04 18.791 0 34.027 15.208 34.058 33.98 8.885-.305 30.648-1.519 43.276-8.805 3.376-1.946 5.703-4.025 6.68-6.31 4.33-10.114 3.064-28.578 3.064-36.966 0-10.28-9.552-47.734-31.594-52.14-20.224-4.043-75.48-19.518-84.461-22.045l-8.938 3.487z" id="c"/><path d="M243.517 3.996H.357v100.049a33.902 33.902 0 0 1 8.76 22.79h238.258c0-18.8 15.248-34.04 34.057-34.04 18.791 0 34.027 15.208 34.058 33.98 8.885-.305 30.648-1.519 43.276-8.805 3.376-1.946 5.703-4.025 6.68-6.31 4.33-10.114 3.064-28.578 3.064-36.966 0-10.28-9.552-47.734-31.594-52.14-20.224-4.043-75.48-19.518-84.461-22.045l-8.938 3.487z" id="e"/><path d="M243.517 3.996H.357v100.049a33.902 33.902 0 0 1 8.76 22.79h238.258c0-18.8 15.248-34.04 34.057-34.04 18.791 0 34.027 15.208 34.058 33.98 8.885-.305 30.648-1.519 43.276-8.805 3.376-1.946 5.703-4.025 6.68-6.31 4.33-10.114 3.064-28.578 3.064-36.966 0-10.28-9.552-47.734-31.594-52.14-20.224-4.043-75.48-19.518-84.461-22.045l-8.938 3.487z" id="g"/><path d="M243.517 3.996H.357v100.049a33.902 33.902 0 0 1 8.76 22.79h238.258c0-18.8 15.248-34.04 34.057-34.04 18.791 0 34.027 15.208 34.058 33.98 8.885-.305 30.648-1.519 43.276-8.805 3.376-1.946 5.703-4.025 6.68-6.31 4.33-10.114 3.064-28.578 3.064-36.966 0-10.28-9.552-47.734-31.594-52.14-20.224-4.043-75.48-19.518-84.461-22.045l-8.938 3.487z" id="i"/><path d="M243.517 3.996H.357v100.049a33.902 33.902 0 0 1 8.76 22.79h238.258c0-18.8 15.248-34.04 34.057-34.04 18.791 0 34.027 15.208 34.058 33.98 8.885-.305 30.648-1.519 43.276-8.805 3.376-1.946 5.703-4.025 6.68-6.31 4.33-10.114 3.064-28.578 3.064-36.966 0-10.28-9.552-47.734-31.594-52.14-20.224-4.043-75.48-19.518-84.461-22.045l-8.938 3.487z" id="k"/><path d="M198.446 98h94.28a8.274 8.274 0 0 1 0 16.547h-24.243a8.274 8.274 0 0 0-8.274 8.274 8.274 8.274 0 0 1-8.273 8.273h-89.662a8.274 8.274 0 1 1 0-16.547h19.625a8.274 8.274 0 0 0 8.274-8.273A8.274 8.274 0 0 1 198.446 98z" id="m"/></defs><g fill="none" fill-rule="evenodd"><g><g><path d="M1.325 365.689h1247.908H1.325z" fill="#FFF"/><g><path d="M283.778 257.808H1.924v372.217h518.402V311.063c0-29.412-23.854-53.255-53.28-53.255H283.777z" fill="#FFF"/><path d="M283.778 257.808H1.924v372.217h518.402V311.063c0-29.412-23.854-53.255-53.28-53.255H283.777z" stroke="#A1A7A7"/><path stroke="#A1A7A7" d="M408.697 628.076h67.669V476.57h-67.67z"/><path stroke="#A1A7A7" d="M421.984 624.828h41.093v-136.2h-41.093z"/><path d="M283.778 566.172h77.344V476.51h-77.344v89.663zm.65-.65h76.044v-88.364h-76.044v88.364z" fill="#A1A7A7"/><path d="M322.45 476.509v85.456M361.122 519.237h-77.344M361.122 561.965h-77.344M322.45 557.51h-38.022" stroke="#A1A7A7"/><path d="M404.184 416.75h77.344v-89.664h-77.344v89.663zm.65-.651h76.044v-88.364h-76.044v88.364z" fill="#A1A7A7"/><path d="M442.856 327.086v85.455M481.528 369.814h-77.344M481.528 412.541h-77.344M442.856 408.087h-38.022" stroke="#A1A7A7"/><path d="M47.228 566.172h77.345V476.51H47.228v89.663zm.65-.65h76.045v-88.364H47.878v88.364z" fill="#A1A7A7"/><path d="M85.9 476.509v85.456M124.573 519.237H47.229M124.573 561.965H47.229M85.9 557.51H47.88" stroke="#A1A7A7" stroke-width=".65"/><path d="M47.228 416.75h77.345v-89.664H47.228v89.663zm.65-.651h76.045v-88.364H47.878v88.364z" fill="#A1A7A7"/><path d="M85.9 327.086v85.455M124.573 369.814H47.229M124.573 412.541H47.229M85.9 408.087H47.88" stroke="#A1A7A7" stroke-width=".65"/><path d="M167.635 566.172h77.344V476.51h-77.344v89.663zm.65-.65h76.044v-88.364h-76.044v88.364z" fill="#A1A7A7"/><path d="M206.307 476.509v85.456M244.979 519.237h-77.344M244.979 561.965h-77.344M206.307 557.51h-38.022" stroke="#A1A7A7"/><path fill="#FFF" d="M1.325 675.155h1247.907V626.31H1.325z"/><path stroke="#A1A7A7" d="M1.325 675.155h1247.907V626.31H1.325z"/><path fill="#FFF" d="M265.564 346.912l-88.656-88.61 88.656-88.612L354.22 258.3z"/><path stroke="#A1A7A7" d="M265.564 346.912l-88.656-88.61 88.656-88.612L354.22 258.3z"/><path d="M1.325 650.733h3.9" stroke="#A1A7A7" stroke-width=".65"/><path d="M35.217 650.733h1195.12" stroke="#A1A7A7" stroke-dasharray="7.82470006942749,29.99425029754639"/><path d="M1245.333 650.733h3.9" stroke="#A1A7A7" stroke-width=".65"/><path d="M1024.011 574.127c0-10.28-9.551-47.734-31.594-52.14-22.042-4.407-85.702-22.395-85.702-22.395-28.103-19.276-85.656-53.82-144.617-53.82-58.96 0-165.713-4.933-177.835 4.98l-26.634 67.614a48.17 48.17 0 0 0-3.286 20.06c.72 14.45 1.493 40.857-1.39 56.196-.493 2.62-.799 4.946-.799 6.678 0 17.71 34.717 23.435 44.35 24.682.154-18.669 15.34-33.755 34.055-33.755 18.81 0 34.058 15.24 34.058 34.042h238.259c0-18.801 15.249-34.042 34.058-34.042 18.79 0 34.026 15.208 34.058 33.982 8.884-.306 30.647-1.52 43.276-8.806 3.375-1.947 5.702-4.025 6.68-6.31 4.328-10.115 3.063-28.578 3.063-36.966" fill="#1AC5E3"/><path d="M659.948 626.268c0 16.224-13.158 29.376-29.39 29.376-16.231 0-29.39-13.152-29.39-29.376 0-16.223 13.159-29.375 29.39-29.375 16.232 0 29.39 13.152 29.39 29.375M966.324 626.268c0 16.224-13.158 29.376-29.39 29.376-16.231 0-29.39-13.152-29.39-29.376 0-16.223 13.159-29.375 29.39-29.375 16.232 0 29.39 13.152 29.39 29.375" fill="#1AC5E3"/><path d="M630.559 647.198c-11.547 0-20.94-9.39-20.94-20.93s9.393-20.93 20.94-20.93c11.546 0 20.94 9.39 20.94 20.93s-9.394 20.93-20.94 20.93" fill="#FFF"/><path d="M630.559 647.198c-11.547 0-20.94-9.39-20.94-20.93s9.393-20.93 20.94-20.93c11.546 0 20.94 9.39 20.94 20.93s-9.394 20.93-20.94 20.93z" stroke="#FFF" stroke-width=".65"/><path d="M936.935 647.198c-11.547 0-20.94-9.39-20.94-20.93s9.393-20.93 20.94-20.93c11.546 0 20.94 9.39 20.94 20.93s-9.394 20.93-20.94 20.93" fill="#FFF"/><path d="M936.935 647.198c-11.547 0-20.94-9.39-20.94-20.93s9.393-20.93 20.94-20.93c11.546 0 20.94 9.39 20.94 20.93s-9.394 20.93-20.94 20.93z" stroke="#FFF" stroke-width=".65"/><path d="M889.784 506.487c-3.544.055-8.093.063-13.51.033a2.452 2.452 0 0 1-2.44-2.45v-11.643c0-1.216 1.368-1.932 2.37-1.241 6.016 4.15 10.732 7.942 14.94 11.001 1.847 1.344.926 4.265-1.36 4.3zm-23.664-2.537a2.447 2.447 0 0 1-2.479 2.449c-26.973-.339-67.053-1.257-111.161-2.27a4.448 4.448 0 0 1-4.334-4.12l-3.02-41.079a4.45 4.45 0 0 1 4.478-4.772c4.346.038 8.523.06 12.495.06 24.895 0 51.45 7.075 81.824 19.58 8.235 3.391 15.104 6.856 20.966 10.233a2.451 2.451 0 0 1 1.23 2.125v17.794zm-136.072-45.345l-2.897 40.691a4.45 4.45 0 0 1-4.546 4.131c-34.661-.831-66.65-.55-87.967-1.108a4.448 4.448 0 0 1-4.3-4.979l4.728-40.33a4.445 4.445 0 0 1 4.353-3.915c5.072-.07 10.543-.105 16.441-.105 18.526 0 38.527.333 57.87.656 4.043.068 8.032.134 11.953.196a4.447 4.447 0 0 1 4.365 4.763zm-106.123.026l-4.695 38.155a4.45 4.45 0 0 1-4.536 3.903l-6.655-.179c-12.77-.069-20.499-1.751-25.162-3.65-4.33-1.765-6.438-6.72-4.67-11.047 9.014-22.068 10.08-27.35 11.273-28.41.717-.375 4.929-2.165 21.535-3.297a354.64 354.64 0 0 1 8.29-.461c2.752-.123 4.957 2.254 4.62 4.986z" fill="#FFF"/><path d="M889.784 506.487c-3.544.055-8.093.063-13.51.033a2.452 2.452 0 0 1-2.44-2.45v-11.643c0-1.216 1.368-1.932 2.37-1.241 6.016 4.15 10.732 7.942 14.94 11.001 1.847 1.344.926 4.265-1.36 4.3zm-23.664-2.537a2.447 2.447 0 0 1-2.479 2.449c-26.973-.339-67.053-1.257-111.161-2.27a4.448 4.448 0 0 1-4.334-4.12l-3.02-41.079a4.45 4.45 0 0 1 4.478-4.772c4.346.038 8.523.06 12.495.06 24.895 0 51.45 7.075 81.824 19.58 8.235 3.391 15.104 6.856 20.966 10.233a2.451 2.451 0 0 1 1.23 2.125v17.794zm-136.072-45.345l-2.897 40.691a4.45 4.45 0 0 1-4.546 4.131c-34.661-.831-66.65-.55-87.967-1.108a4.448 4.448 0 0 1-4.3-4.979l4.728-40.33a4.445 4.445 0 0 1 4.353-3.915c5.072-.07 10.543-.105 16.441-.105 18.526 0 38.527.333 57.87.656 4.043.068 8.032.134 11.953.196a4.447 4.447 0 0 1 4.365 4.763zm-106.123.026l-4.695 38.155a4.45 4.45 0 0 1-4.536 3.903l-6.655-.179c-12.77-.069-20.499-1.751-25.162-3.65-4.33-1.765-6.438-6.72-4.67-11.047 9.014-22.068 10.08-27.35 11.273-28.41.717-.375 4.929-2.165 21.535-3.297a354.64 354.64 0 0 1 8.29-.461c2.752-.123 4.957 2.254 4.62 4.986z" stroke="#FFF" stroke-width=".65"/><path fill="#1AC5E3" d="M720.327 428.593v13.236h3.523v3.943h27.84v-3.943h3.523v-13.236z"/><path d="M737.035 510.608v88.548" stroke="#FFF" stroke-width=".65"/><path d="M619.305 453.645c-2.967.133-5.728.286-8.29.461-16.607 1.132-20.818 2.922-21.535 3.297-1.193 1.06-2.259 6.341-11.273 28.41-1.768 4.327.34 9.282 4.67 11.046 4.663 1.9 12.393 3.583 25.161 3.651 0 0 2.36.065 6.656.18a4.45 4.45 0 0 0 4.537-3.904l4.694-38.155c.337-2.733-1.868-5.11-4.62-4.986" fill="#FFF"/></g><g transform="translate(608.705 485.79)"><mask id="b" fill="#fff"><use xlink:href="#a"/></mask><path d="M257.415 18.159l1.967 27.76c.097 1.626.25 3.25.493 4.86a154.613 154.613 0 0 1-.327 48.02l-3.807 23.197a5.849 5.849 0 0 1-5.772 4.9H71.477c-4.821 0-9.874-1.469-9.874-10.282S33.683 72.552 25.6 65.942c-8.083-6.61-8.877-13.586-9.612-26.07-.734-12.485 5.643-19.584 5.643-28.322l235.783 6.609z" stroke="#FFF" stroke-width=".65" mask="url(#b)"/></g><g><path d="M1015.615 544.15s-6.807.598-14.549.018c-3.61-.27-6.698 2.56-6.698 6.179a6.207 6.207 0 0 0 5.07 6.095c6.37 1.2 16.44.453 20.713-1.202M554.343 538.427h5.143c1.002 0 1.815.812 1.815 1.815v12.063a1.815 1.815 0 0 1-1.815 1.815h-4.669" fill="#FFF"/><path d="M755.907 524.744h10.899M644.96 524.744h10.898" stroke="#FFF" stroke-width=".65"/></g><g><g transform="translate(655.501 499.433)"><mask id="d" fill="#fff"><use xlink:href="#c"/></mask><path fill="#FFF" mask="url(#d)" d="M81.196 109.113H62.15l54.76-53.664h19.048z"/></g><g transform="translate(655.501 499.433)"><mask id="f" fill="#fff"><use xlink:href="#e"/></mask><path fill="#FFF" mask="url(#f)" d="M119.264 109.113h-19.047l54.76-53.664h19.048z"/></g><g transform="translate(655.501 499.433)"><mask id="h" fill="#fff"><use xlink:href="#g"/></mask><path fill="#FFF" mask="url(#h)" d="M157.332 109.113h-19.047l54.76-53.664h19.048z"/></g><g transform="translate(655.501 499.433)"><mask id="j" fill="#fff"><use xlink:href="#i"/></mask><path fill="#FFF" mask="url(#j)" d="M195.4 109.113h-19.047l54.76-53.664h19.048z"/></g><g transform="translate(655.501 499.433)"><mask id="l" fill="#fff"><use xlink:href="#k"/></mask><path fill="#FFF" mask="url(#l)" d="M233.898 109.113H214.85l54.761-53.664h19.048z"/></g></g></g><g transform="translate(247 1)"><circle stroke="#919898" fill="#FFF" cx="764" cy="56" r="38"/><g><use fill="#FFF" xlink:href="#m"/><path stroke="#919898" d="M198.446 98.5a7.774 7.774 0 0 0-7.773 7.774 8.774 8.774 0 0 1-8.774 8.773h-19.625a7.774 7.774 0 0 0 0 15.547h89.662a7.774 7.774 0 0 0 7.773-7.773 8.774 8.774 0 0 1 8.774-8.774h24.243a7.774 7.774 0 1 0 0-15.547h-94.28z"/></g><path d="M153.763 19.25h-88.18a6.494 6.494 0 0 0-6.494 6.494 6.494 6.494 0 0 1-6.494 6.493H6.262a6.262 6.262 0 1 0 0 12.523h34.695a6.494 6.494 0 0 1 6.493 6.494 6.494 6.494 0 0 0 6.494 6.493h110.562a6.494 6.494 0 0 0 0-12.987h-29.323a6.262 6.262 0 1 1 0-12.523h18.58a6.494 6.494 0 0 0 0-12.987zM469.485 0h94.708a5.485 5.485 0 0 1 5.484 5.485 5.485 5.485 0 0 0 5.485 5.484h27.55a5.289 5.289 0 1 1 0 10.578H582.71a5.485 5.485 0 0 0-5.484 5.484 5.485 5.485 0 0 1-5.485 5.485h-69.16a5.485 5.485 0 0 1 0-10.97h16.517a5.289 5.289 0 1 0 0-10.578l-49.613.001a5.485 5.485 0 0 1 0-10.97zM778.143 59h48.379a6.95 6.95 0 0 1 6.95 6.95 6.95 6.95 0 0 0 6.948 6.948H883.3a6.701 6.701 0 0 1 0 13.402h-37.13a6.95 6.95 0 0 0-6.95 6.95 6.95 6.95 0 0 1-6.948 6.949H713.949a6.95 6.95 0 1 1 0-13.898h31.381c3.701 0 6.701-3 6.701-6.702 0-3.7 3-6.7 6.701-6.7h5.512a6.95 6.95 0 0 0 6.95-6.95A6.95 6.95 0 0 1 778.143 59z" stroke="#919898" fill="#FFF"/></g></g></g></svg>