<svg width="1249" height="676" viewBox="0 0 1249 676" xmlns="http://www.w3.org/2000/svg" xmlns:xlink="http://www.w3.org/1999/xlink" preserveAspectRatio="xMidYMax slice"><defs><path d="M44.446 98h94.28a8.274 8.274 0 0 1 0 16.547h-24.243a8.274 8.274 0 0 0-8.274 8.274 8.274 8.274 0 0 1-8.273 8.273H8.274a8.274 8.274 0 1 1 0-16.547h19.625a8.274 8.274 0 0 0 8.274-8.273A8.274 8.274 0 0 1 44.446 98z" id="a"/><path id="b" d="M0 444.6h1248.65V.226H0z"/><path id="d" d="M.411 52.176l33.802 48.34 28.29 37.109 97.73-2.573 104.71-5.51 2.571-110.834-10.288-.538-11.389 79.775H74.627l-34.903-48.3L18.94 6.522 17.312.583z"/><path d="M243.327 3.998H.15v100.108a33.937 33.937 0 0 1 8.76 22.803h238.276c0-18.811 15.25-34.06 34.062-34.06 18.79 0 34.028 15.217 34.06 34 8.884-.306 30.65-1.52 43.28-8.81 3.374-1.948 5.701-4.028 6.679-6.313 4.329-10.121 3.064-28.596 3.064-36.988 0-10.287-9.553-47.762-31.597-52.17-20.225-4.046-75.484-19.53-84.467-22.06l-8.939 3.49z" id="f"/><path d="M243.327 3.998H.15v100.108a33.937 33.937 0 0 1 8.76 22.803h238.276c0-18.811 15.25-34.06 34.062-34.06 18.79 0 34.028 15.217 34.06 34 8.884-.306 30.65-1.52 43.28-8.81 3.374-1.948 5.701-4.028 6.679-6.313 4.329-10.121 3.064-28.596 3.064-36.988 0-10.287-9.553-47.762-31.597-52.17-20.225-4.046-75.484-19.53-84.467-22.06l-8.939 3.49z" id="h"/><path d="M243.327 3.998H.15v100.108a33.937 33.937 0 0 1 8.76 22.803h238.276c0-18.811 15.25-34.06 34.062-34.06 18.79 0 34.028 15.217 34.06 34 8.884-.306 30.65-1.52 43.28-8.81 3.374-1.948 5.701-4.028 6.679-6.313 4.329-10.121 3.064-28.596 3.064-36.988 0-10.287-9.553-47.762-31.597-52.17-20.225-4.046-75.484-19.53-84.467-22.06l-8.939 3.49z" id="j"/><path d="M243.327 3.998H.15v100.108a33.937 33.937 0 0 1 8.76 22.803h238.276c0-18.811 15.25-34.06 34.062-34.06 18.79 0 34.028 15.217 34.06 34 8.884-.306 30.65-1.52 43.28-8.81 3.374-1.948 5.701-4.028 6.679-6.313 4.329-10.121 3.064-28.596 3.064-36.988 0-10.287-9.553-47.762-31.597-52.17-20.225-4.046-75.484-19.53-84.467-22.06l-8.939 3.49z" id="l"/><path d="M243.327 3.998H.15v100.108a33.937 33.937 0 0 1 8.76 22.803h238.276c0-18.811 15.25-34.06 34.062-34.06 18.79 0 34.028 15.217 34.06 34 8.884-.306 30.65-1.52 43.28-8.81 3.374-1.948 5.701-4.028 6.679-6.313 4.329-10.121 3.064-28.596 3.064-36.988 0-10.287-9.553-47.762-31.597-52.17-20.225-4.046-75.484-19.53-84.467-22.06l-8.939 3.49z" id="n"/></defs><g fill="none" fill-rule="evenodd"><g><g transform="translate(374 1)"><circle stroke="#919898" fill="#FFF" cx="707" cy="56" r="38"/><g><use fill="#FFF" xlink:href="#a"/><path stroke="#919898" d="M44.446 98.5a7.774 7.774 0 0 0-7.773 7.774 8.774 8.774 0 0 1-8.774 8.773H8.274a7.774 7.774 0 0 0 0 15.547h89.662a7.774 7.774 0 0 0 7.773-7.773 8.774 8.774 0 0 1 8.774-8.774h24.243a7.774 7.774 0 1 0 0-15.547h-94.28z"/></g><path d="M257.763 19h-88.18a6.494 6.494 0 0 0-6.494 6.494 6.494 6.494 0 0 1-6.494 6.493h-46.333a6.262 6.262 0 1 0 0 12.523h34.695a6.494 6.494 0 0 1 6.493 6.494 6.494 6.494 0 0 0 6.494 6.493h110.562a6.494 6.494 0 1 0 0-12.987h-29.323a6.262 6.262 0 1 1 0-12.523h18.58a6.494 6.494 0 0 0 0-12.987zM454.485 0h94.708a5.485 5.485 0 0 1 5.484 5.485 5.485 5.485 0 0 0 5.485 5.484h27.55a5.289 5.289 0 1 1 0 10.578H567.71a5.485 5.485 0 0 0-5.484 5.484 5.485 5.485 0 0 1-5.485 5.485h-69.16a5.485 5.485 0 0 1 0-10.97h16.517a5.289 5.289 0 1 0 0-10.578l-49.613.001a5.485 5.485 0 0 1 0-10.97zM640.143 59h48.379a6.95 6.95 0 0 1 6.95 6.95 6.95 6.95 0 0 0 6.948 6.948H745.3a6.701 6.701 0 0 1 0 13.402h-37.13a6.95 6.95 0 0 0-6.95 6.95 6.95 6.95 0 0 1-6.948 6.949H575.949a6.95 6.95 0 1 1 0-13.898h31.381c3.701 0 6.701-3 6.701-6.702 0-3.7 3-6.7 6.701-6.7h5.512a6.95 6.95 0 0 0 6.95-6.95A6.95 6.95 0 0 1 640.143 59z" stroke="#919898" fill="#FFF"/></g><g><path d="M.325 365.052h1248-1248z" fill="#FFF"/><path d="M.325 365.052h1248" stroke="#A1A7A7" stroke-width=".65"/><g><path fill="#FFF" d="M324.49 411.223V344.19h-11.447v67.032"/><path stroke="#A1A7A7" stroke-width=".65" d="M324.49 411.223V344.19h-11.447v67.032"/></g><g transform="translate(0 230.424)"><path d="M365.564 61.407l-.92-.92c-1.66-1.66-1.933-4.282-.586-6.202 3.045-4.342 3.152-10.65-1.273-15.075l-4.674-4.675c-1.588-1.587-2.25-3.863-1.812-6.064.536-2.689-.236-5.503-2.217-7.982-3.274-4.096-11.657-5.008-13.648-12.375C338.39.551 323.304.551 318.767.551c-4.538 0-19.624 0-21.668 7.563-1.99 7.367-10.374 8.279-13.648 12.375-1.981 2.479-2.753 5.293-2.217 7.982.439 2.201-.224 4.477-1.812 6.064l-4.675 4.675c-4.424 4.425-4.317 10.733-1.272 15.075 1.347 1.92 1.074 4.542-.585 6.201l-.921.921c-6.49 6.49-3.809 16.785 3.59 20.152a3.619 3.619 0 0 1 1.914 4.525c-2.222 6.28 2.23 13.755 9.775 13.755 1.235 0 2.332.889 2.484 2.114.637 5.12 16.968 11.814 23.31 11.814h11.448c6.343 0 22.674-6.693 23.311-11.814.152-1.225 1.249-2.114 2.484-2.114 7.544 0 11.997-7.474 9.775-13.755a3.619 3.619 0 0 1 1.914-4.525c7.399-3.367 10.08-13.662 3.59-20.152" fill="#FFF"/><path d="M365.564 61.407l-.92-.92c-1.66-1.66-1.933-4.282-.586-6.202 3.045-4.342 3.152-10.65-1.273-15.075l-4.674-4.675c-1.588-1.587-2.25-3.863-1.812-6.064.536-2.689-.236-5.503-2.217-7.982-3.274-4.096-11.657-5.008-13.648-12.375C338.39.551 323.304.551 318.767.551c-4.538 0-19.624 0-21.668 7.563-1.99 7.367-10.374 8.279-13.648 12.375-1.981 2.479-2.753 5.293-2.217 7.982.439 2.201-.224 4.477-1.812 6.064l-4.675 4.675c-4.424 4.425-4.317 10.733-1.272 15.075 1.347 1.92 1.074 4.542-.585 6.201l-.921.921c-6.49 6.49-3.809 16.785 3.59 20.152a3.619 3.619 0 0 1 1.914 4.525c-2.222 6.28 2.23 13.755 9.775 13.755 1.235 0 2.332.889 2.484 2.114.637 5.12 16.968 11.814 23.31 11.814h11.448c6.343 0 22.674-6.693 23.311-11.814.152-1.225 1.249-2.114 2.484-2.114 7.544 0 11.997-7.474 9.775-13.755a3.619 3.619 0 0 1 1.914-4.525c7.399-3.367 10.08-13.662 3.59-20.152z" stroke="#A1A7A7" stroke-width=".65"/><g><path fill="#FFF" d="M786.658 114.542v57.684h9.85v-57.684"/><path stroke="#A1A7A7" stroke-width=".65" d="M786.658 114.542v57.684h9.85v-57.684"/></g><path d="M831.855 69.484l-.792-.792c-1.428-1.427-1.663-3.684-.504-5.337 2.62-3.737 2.712-9.165-1.095-12.973l-4.023-4.022a5.771 5.771 0 0 1-1.559-5.22c.46-2.313-.203-4.735-1.908-6.868-2.817-3.524-10.032-4.31-11.745-10.648-1.76-6.51-14.74-6.51-18.645-6.51-3.906 0-16.887 0-18.646 6.51-1.714 6.338-8.927 7.124-11.745 10.648-1.705 2.133-2.369 4.555-1.908 6.868a5.773 5.773 0 0 1-1.56 5.22l-4.022 4.022c-3.808 3.808-3.716 9.236-1.095 12.973 1.16 1.653.923 3.91-.503 5.337l-.793.792c-5.585 5.585-3.278 14.444 3.089 17.342a3.114 3.114 0 0 1 1.647 3.894c-1.912 5.405 1.92 11.836 8.412 11.836 1.063.001 2.007.765 2.138 1.82.548 4.406 14.601 10.166 20.06 10.166H796.509c5.458 0 19.511-5.76 20.06-10.166.13-1.055 1.074-1.819 2.137-1.82 6.493 0 10.325-6.431 8.412-11.836a3.114 3.114 0 0 1 1.648-3.894c6.366-2.898 8.674-11.757 3.089-17.342" fill="#FFF"/><path d="M831.855 69.484l-.792-.792c-1.428-1.427-1.663-3.684-.504-5.337 2.62-3.737 2.712-9.165-1.095-12.973l-4.023-4.022a5.771 5.771 0 0 1-1.559-5.22c.46-2.313-.203-4.735-1.908-6.868-2.817-3.524-10.032-4.31-11.745-10.648-1.76-6.51-14.74-6.51-18.645-6.51-3.906 0-16.887 0-18.646 6.51-1.714 6.338-8.927 7.124-11.745 10.648-1.705 2.133-2.369 4.555-1.908 6.868a5.773 5.773 0 0 1-1.56 5.22l-4.022 4.022c-3.808 3.808-3.716 9.236-1.095 12.973 1.16 1.653.923 3.91-.503 5.337l-.793.792c-5.585 5.585-3.278 14.444 3.089 17.342a3.114 3.114 0 0 1 1.647 3.894c-1.912 5.405 1.92 11.836 8.412 11.836 1.063.001 2.007.765 2.138 1.82.548 4.406 14.601 10.166 20.06 10.166H796.509c5.458 0 19.511-5.76 20.06-10.166.13-1.055 1.074-1.819 2.137-1.82 6.493 0 10.325-6.431 8.412-11.836a3.114 3.114 0 0 1 1.648-3.894c6.366-2.898 8.674-11.757 3.089-17.342z" stroke="#A1A7A7" stroke-width=".65"/><g><path fill="#FFF" d="M631.495 241.458v-83.969h-14.34v83.969"/><path stroke="#A1A7A7" stroke-width=".65" d="M631.495 241.458v-83.969h-14.34v83.969"/></g><path d="M682.947 91.9l-1.154-1.153c-2.077-2.078-2.42-5.363-.733-7.769 3.814-5.44 3.949-13.34-1.594-18.884l-5.856-5.855c-1.988-1.988-2.819-4.84-2.27-7.597.671-3.368-.295-6.893-2.776-9.999-4.102-5.13-14.603-6.273-17.097-15.5-2.56-9.474-21.458-9.474-27.142-9.474-5.684 0-24.582 0-27.142 9.473-2.494 9.228-12.995 10.371-17.096 15.501-2.483 3.106-3.448 6.631-2.778 9.999.55 2.758-.28 5.609-2.27 7.597l-5.855 5.855c-5.543 5.543-5.408 13.445-1.594 18.884 1.687 2.406 1.345 5.69-.733 7.769l-1.154 1.154c-8.129 8.128-4.77 21.024 4.497 25.242a4.533 4.533 0 0 1 2.398 5.669c-2.784 7.868 2.795 17.23 12.246 17.23 1.547 0 2.92 1.114 3.11 2.649.799 6.413 21.255 14.798 29.202 14.798H631.495c7.946 0 28.402-8.385 29.2-14.798.191-1.535 1.564-2.648 3.111-2.649 9.452 0 15.03-9.362 12.246-17.23a4.533 4.533 0 0 1 2.397-5.669c9.269-4.218 12.627-17.114 4.498-25.242" fill="#FFF"/><path d="M682.947 91.9l-1.154-1.153c-2.077-2.078-2.42-5.363-.733-7.769 3.814-5.44 3.949-13.34-1.594-18.884l-5.856-5.855c-1.988-1.988-2.819-4.84-2.27-7.597.671-3.368-.295-6.893-2.776-9.999-4.102-5.13-14.603-6.273-17.097-15.5-2.56-9.474-21.458-9.474-27.142-9.474-5.684 0-24.582 0-27.142 9.473-2.494 9.228-12.995 10.371-17.096 15.501-2.483 3.106-3.448 6.631-2.778 9.999.55 2.758-.28 5.609-2.27 7.597l-5.855 5.855c-5.543 5.543-5.408 13.445-1.594 18.884 1.687 2.406 1.345 5.69-.733 7.769l-1.154 1.154c-8.129 8.128-4.77 21.024 4.497 25.242a4.533 4.533 0 0 1 2.398 5.669c-2.784 7.868 2.795 17.23 12.246 17.23 1.547 0 2.92 1.114 3.11 2.649.799 6.413 21.255 14.798 29.202 14.798H631.495c7.946 0 28.402-8.385 29.2-14.798.191-1.535 1.564-2.648 3.111-2.649 9.452 0 15.03-9.362 12.246-17.23a4.533 4.533 0 0 1 2.397-5.669c9.269-4.218 12.627-17.114 4.498-25.242z" stroke="#A1A7A7" stroke-width=".65"/><mask id="c" fill="#fff"><use xlink:href="#b"/></mask><path fill="#FFF" mask="url(#c)" d="M.325 444.275h1248v-48.874H.325z"/><path stroke="#A1A7A7" mask="url(#c)" d="M.325 444.275h1248v-48.874H.325z"/><path d="M.325 419.838h3.9" stroke="#A1A7A7" stroke-width=".65" mask="url(#c)"/><path d="M34.22 419.838h1195.208" stroke="#A1A7A7" stroke-dasharray="7.82470006942749,29.99425029754639" mask="url(#c)"/><path d="M1244.425 419.838h3.9" stroke="#A1A7A7" stroke-width=".65" mask="url(#c)"/><path d="M614.68 343.188c0-10.287-9.553-47.762-31.597-52.171-22.044-4.409-85.709-22.407-85.709-22.407-28.104-19.288-85.661-53.852-144.626-53.852s-165.725-4.936-177.85 4.983l-26.635 67.654a48.22 48.22 0 0 0-3.287 20.072c.722 14.457 1.493 40.88-1.39 56.227-.492 2.622-.798 4.95-.798 6.682 0 17.72 34.72 23.449 44.352 24.697.154-18.68 15.342-33.775 34.058-33.775 18.811 0 34.061 15.25 34.061 34.062h238.276c0-18.812 15.25-34.062 34.062-34.062 18.791 0 34.028 15.217 34.06 34.002 8.884-.306 30.65-1.52 43.28-8.811 3.374-1.948 5.701-4.027 6.679-6.313 4.329-10.122 3.064-28.596 3.064-36.988" fill="#1AC5E3" mask="url(#c)"/><path d="M250.59 395.36c0 16.232-13.159 29.392-29.392 29.392-16.233 0-29.392-13.16-29.392-29.393s13.16-29.392 29.392-29.392c16.233 0 29.392 13.16 29.392 29.392M556.989 395.36c0 16.232-13.16 29.392-29.392 29.392-16.233 0-29.393-13.16-29.393-29.393s13.16-29.392 29.393-29.392 29.392 13.16 29.392 29.392" fill="#1AC5E3" mask="url(#c)"/><path d="M221.198 416.301c-11.547 0-20.942-9.395-20.942-20.942s9.395-20.942 20.942-20.942c11.548 0 20.942 9.395 20.942 20.942s-9.394 20.942-20.942 20.942" fill="#FFF" mask="url(#c)"/><path d="M221.198 416.301c-11.547 0-20.942-9.395-20.942-20.942s9.395-20.942 20.942-20.942c11.548 0 20.942 9.395 20.942 20.942s-9.394 20.942-20.942 20.942z" stroke="#FFF" stroke-width=".65" mask="url(#c)"/><path d="M527.597 416.301c-11.548 0-20.942-9.395-20.942-20.942s9.394-20.942 20.942-20.942c11.547 0 20.942 9.395 20.942 20.942s-9.395 20.942-20.942 20.942" fill="#FFF" mask="url(#c)"/><path d="M527.597 416.301c-11.548 0-20.942-9.395-20.942-20.942s9.394-20.942 20.942-20.942c11.547 0 20.942 9.395 20.942 20.942s-9.395 20.942-20.942 20.942z" stroke="#FFF" stroke-width=".65" mask="url(#c)"/><path d="M480.443 275.508c-3.544.055-8.094.063-13.512.033a2.452 2.452 0 0 1-2.439-2.451v-11.65c0-1.216 1.368-1.933 2.369-1.242 6.016 4.153 10.734 7.947 14.94 11.008 1.85 1.345.928 4.267-1.358 4.302zm-23.666-2.539a2.448 2.448 0 0 1-2.48 2.45c-26.975-.338-67.057-1.256-111.169-2.27a4.449 4.449 0 0 1-4.334-4.122l-3.021-41.103a4.451 4.451 0 0 1 4.479-4.776c4.347.039 8.524.06 12.496.06 24.897 0 51.454 7.08 81.83 19.593 8.236 3.392 15.105 6.86 20.968 10.238a2.453 2.453 0 0 1 1.23 2.126v17.804zM320.694 227.6l-2.896 40.714a4.45 4.45 0 0 1-4.547 4.134c-34.664-.832-66.656-.551-87.974-1.11a4.45 4.45 0 0 1-4.3-4.98l4.729-40.355a4.446 4.446 0 0 1 4.353-3.917c5.072-.07 10.543-.105 16.442-.105 18.527 0 38.53.334 57.875.657 4.043.067 8.033.134 11.953.196a4.448 4.448 0 0 1 4.365 4.765zm-106.13.025l-4.695 38.178a4.45 4.45 0 0 1-4.537 3.905c-4.296-.115-6.656-.18-6.656-.18-12.77-.068-20.499-1.752-25.163-3.652-4.33-1.765-6.439-6.723-4.671-11.053 9.015-22.081 10.081-27.366 11.275-28.427.717-.374 4.928-2.166 21.535-3.298a354.55 354.55 0 0 1 8.293-.462c2.75-.123 4.956 2.255 4.62 4.99z" fill="#FFF" mask="url(#c)"/><path d="M480.443 275.508c-3.544.055-8.094.063-13.512.033a2.452 2.452 0 0 1-2.439-2.451v-11.65c0-1.216 1.368-1.933 2.369-1.242 6.016 4.153 10.734 7.947 14.94 11.008 1.85 1.345.928 4.267-1.358 4.302zm-23.666-2.539a2.448 2.448 0 0 1-2.48 2.45c-26.975-.338-67.057-1.256-111.169-2.27a4.449 4.449 0 0 1-4.334-4.122l-3.021-41.103a4.451 4.451 0 0 1 4.479-4.776c4.347.039 8.524.06 12.496.06 24.897 0 51.454 7.08 81.83 19.593 8.236 3.392 15.105 6.86 20.968 10.238a2.453 2.453 0 0 1 1.23 2.126v17.804zM320.694 227.6l-2.896 40.714a4.45 4.45 0 0 1-4.547 4.134c-34.664-.832-66.656-.551-87.974-1.11a4.45 4.45 0 0 1-4.3-4.98l4.729-40.355a4.446 4.446 0 0 1 4.353-3.917c5.072-.07 10.543-.105 16.442-.105 18.527 0 38.53.334 57.875.657 4.043.067 8.033.134 11.953.196a4.448 4.448 0 0 1 4.365 4.765zm-106.13.025l-4.695 38.178a4.45 4.45 0 0 1-4.537 3.905c-4.296-.115-6.656-.18-6.656-.18-12.77-.068-20.499-1.752-25.163-3.652-4.33-1.765-6.439-6.723-4.671-11.053 9.015-22.081 10.081-27.366 11.275-28.427.717-.374 4.928-2.166 21.535-3.298a354.55 354.55 0 0 1 8.293-.462c2.75-.123 4.956 2.255 4.62 4.99z" stroke="#FFF" stroke-width=".65" mask="url(#c)"/><path fill="#1AC5E3" mask="url(#c)" d="M310.972 197.569v13.243h3.525v3.946h27.841v-3.946h3.524v-13.243z"/><path d="M327.683 279.631v88.6" stroke="#FFF" stroke-width=".65" mask="url(#c)"/><path d="M209.944 222.635c-2.968.133-5.729.287-8.292.462-16.607 1.133-20.819 2.923-21.536 3.298-1.193 1.06-2.258 6.346-11.274 28.427-1.768 4.33.34 9.288 4.67 11.052 4.665 1.901 12.395 3.585 25.164 3.654l6.656.179a4.45 4.45 0 0 0 4.538-3.905l4.694-38.178c.337-2.734-1.869-5.112-4.62-4.989" fill="#FFF" mask="url(#c)"/></g><g transform="translate(199.55 485.224)"><mask id="e" fill="#fff"><use xlink:href="#d"/></mask><path d="M257.227 18.17l1.967 27.776c.098 1.627.25 3.251.493 4.863a154.8 154.8 0 0 1-.326 48.048l-3.809 23.21a5.849 5.849 0 0 1-5.772 4.903H71.275c-4.822 0-9.874-1.47-9.874-10.288S33.478 72.594 25.395 65.981c-8.083-6.614-8.877-13.594-9.611-26.086-.736-12.492 5.642-19.595 5.642-28.339l235.8 6.614z" stroke="#FFF" stroke-width=".65" mask="url(#e)"/></g><g><path d="M606.282 543.617s-6.806.598-14.55.018c-3.61-.27-6.697 2.561-6.697 6.182a6.21 6.21 0 0 0 5.07 6.1c6.37 1.199 16.44.453 20.714-1.204M144.976 537.891h5.143c1.003 0 1.816.812 1.816 1.815v12.07a1.815 1.815 0 0 1-1.816 1.816h-4.668" fill="#FFF"/><path d="M346.556 524.2h10.9M235.6 524.2h10.9" stroke="#FFF" stroke-width=".65"/></g><g><g transform="translate(246.35 498.874)"><mask id="g" fill="#fff"><use xlink:href="#f"/></mask><path fill="#FFF" mask="url(#g)" d="M80.995 109.177h-19.05l54.766-53.696h19.049z"/></g><g transform="translate(246.35 498.874)"><mask id="i" fill="#fff"><use xlink:href="#h"/></mask><path fill="#FFF" mask="url(#i)" d="M119.066 109.177h-19.05l54.766-53.696h19.049z"/></g><g transform="translate(246.35 498.874)"><mask id="k" fill="#fff"><use xlink:href="#j"/></mask><path fill="#FFF" mask="url(#k)" d="M157.137 109.177h-19.049l54.764-53.696h19.05z"/></g><g transform="translate(246.35 498.874)"><mask id="m" fill="#fff"><use xlink:href="#l"/></mask><path fill="#FFF" mask="url(#m)" d="M195.208 109.177h-19.05l54.765-53.696h19.049z"/></g><g transform="translate(246.35 498.874)"><mask id="o" fill="#fff"><use xlink:href="#n"/></mask><path fill="#FFF" mask="url(#o)" d="M233.708 109.177h-19.049l54.765-53.696h19.048z"/></g></g><g transform="translate(974 512.624)"><path d="M47.233 50.549v27.874M128.904 50.549v27.874" stroke="#1AC5E3" stroke-width="4.55"/><rect fill="#1AC5E3" width="179" height="50.376" rx="5"/><text font-family="NPOSans-Bold, NPO Sans" font-size="23.4" font-weight="bold" letter-spacing=".024" fill="#FFF"><tspan x="37" y="33">Hil</tspan> <tspan x="64.708" y="33" letter-spacing="-.21">v</tspan> <tspan x="75.94" y="33">ersum</tspan></text></g><g><g><path fill="#FFF" d="M120.044 496.48v-97.753h-16.693v97.754"/><path stroke="#A1A7A7" stroke-width=".65" d="M120.044 496.48v-97.753h-16.693v97.754"/></g><path d="M179.943 322.37l-1.343-1.343c-2.419-2.419-2.817-6.243-.854-9.044 4.441-6.332 4.598-15.53-1.855-21.984l-6.817-6.817c-2.315-2.315-3.282-5.633-2.642-8.844.78-3.921-.344-8.025-3.233-11.64-4.775-5.973-17-7.303-19.903-18.046-2.981-11.029-24.982-11.029-31.599-11.029-6.617 0-28.617 0-31.598 11.03-2.903 10.742-15.128 12.072-19.903 18.045-2.89 3.615-4.014 7.719-3.233 11.64.64 3.21-.327 6.529-2.642 8.844L47.504 290c-6.453 6.453-6.296 15.652-1.856 21.984 1.964 2.801 1.565 6.625-.853 9.044l-1.343 1.343c-9.464 9.464-5.555 24.477 5.235 29.387a5.277 5.277 0 0 1 2.79 6.6c-3.24 9.159 3.254 20.059 14.257 20.059 1.8 0 3.4 1.296 3.622 3.083.929 7.467 24.744 17.228 33.995 17.228H120.044c9.25 0 33.065-9.761 33.995-17.228.222-1.787 1.82-3.083 3.622-3.083 11.002 0 17.496-10.9 14.255-20.06a5.277 5.277 0 0 1 2.792-6.599c10.79-4.91 14.699-19.923 5.235-29.387" fill="#FFF"/><path d="M179.943 322.37l-1.343-1.343c-2.419-2.419-2.817-6.243-.854-9.044 4.441-6.332 4.598-15.53-1.855-21.984l-6.817-6.817c-2.315-2.315-3.282-5.633-2.642-8.844.78-3.921-.344-8.025-3.233-11.64-4.775-5.973-17-7.303-19.903-18.046-2.981-11.029-24.982-11.029-31.599-11.029-6.617 0-28.617 0-31.598 11.03-2.903 10.742-15.128 12.072-19.903 18.045-2.89 3.615-4.014 7.719-3.233 11.64.64 3.21-.327 6.529-2.642 8.844L47.504 290c-6.453 6.453-6.296 15.652-1.856 21.984 1.964 2.801 1.565 6.625-.853 9.044l-1.343 1.343c-9.464 9.464-5.555 24.477 5.235 29.387a5.277 5.277 0 0 1 2.79 6.6c-3.24 9.159 3.254 20.059 14.257 20.059 1.8 0 3.4 1.296 3.622 3.083.929 7.467 24.744 17.228 33.995 17.228H120.044c9.25 0 33.065-9.761 33.995-17.228.222-1.787 1.82-3.083 3.622-3.083 11.002 0 17.496-10.9 14.255-20.06a5.277 5.277 0 0 1 2.792-6.599c10.79-4.91 14.699-19.923 5.235-29.387z" stroke="#A1A7A7" stroke-width=".65"/><g><path fill="#FFF" d="M1075.144 505.959v-92.154h-15.737v92.154"/><path stroke="#A1A7A7" stroke-width=".65" d="M1075.144 505.959v-92.154h-15.737v92.154"/></g><path d="M1131.612 341.822l-1.266-1.266c-2.28-2.28-2.657-5.885-.805-8.526 4.186-5.97 4.334-14.641-1.75-20.725l-6.426-6.426c-2.182-2.182-3.094-5.31-2.49-8.338.735-3.696-.325-7.565-3.05-10.973-4.5-5.63-16.024-6.884-18.761-17.012-2.811-10.397-23.55-10.397-29.789-10.397-6.238 0-26.977 0-29.788 10.397-2.737 10.128-14.261 11.382-18.762 17.012-2.724 3.408-3.784 7.277-3.049 10.973.604 3.027-.308 6.156-2.49 8.338l-6.427 6.426c-6.083 6.084-5.935 14.755-1.749 20.725 1.852 2.64 1.475 6.246-.805 8.526l-1.266 1.266c-8.921 8.921-5.236 23.074 4.936 27.704a4.975 4.975 0 0 1 2.63 6.22c-3.054 8.636 3.067 18.91 13.44 18.91 1.698.001 3.205 1.223 3.415 2.907.876 7.04 23.326 16.241 32.047 16.241h15.737c8.72 0 31.171-9.201 32.047-16.24.21-1.685 1.717-2.907 3.414-2.907 10.373 0 16.495-10.275 13.44-18.91a4.975 4.975 0 0 1 2.631-6.221c10.172-4.63 13.857-18.783 4.936-27.704" fill="#FFF"/><path d="M1131.612 341.822l-1.266-1.266c-2.28-2.28-2.657-5.885-.805-8.526 4.186-5.97 4.334-14.641-1.75-20.725l-6.426-6.426c-2.182-2.182-3.094-5.31-2.49-8.338.735-3.696-.325-7.565-3.05-10.973-4.5-5.63-16.024-6.884-18.761-17.012-2.811-10.397-23.55-10.397-29.789-10.397-6.238 0-26.977 0-29.788 10.397-2.737 10.128-14.261 11.382-18.762 17.012-2.724 3.408-3.784 7.277-3.049 10.973.604 3.027-.308 6.156-2.49 8.338l-6.427 6.426c-6.083 6.084-5.935 14.755-1.749 20.725 1.852 2.64 1.475 6.246-.805 8.526l-1.266 1.266c-8.921 8.921-5.236 23.074 4.936 27.704a4.975 4.975 0 0 1 2.63 6.22c-3.054 8.636 3.067 18.91 13.44 18.91 1.698.001 3.205 1.223 3.415 2.907.876 7.04 23.326 16.241 32.047 16.241h15.737c8.72 0 31.171-9.201 32.047-16.24.21-1.685 1.717-2.907 3.414-2.907 10.373 0 16.495-10.275 13.44-18.91a4.975 4.975 0 0 1 2.631-6.221c10.172-4.63 13.857-18.783 4.936-27.704z" stroke="#A1A7A7" stroke-width=".65"/><g><path d="M775.808 540.742s3.396-20.049-16.733-34.101c0 0 17.766-.368 24.484 25.151 0 0 4.283-15.227 12.95-16.31 0 0-10.568 15.877-7.318 26.277" fill="#FFF"/><path d="M775.808 540.742s3.396-20.049-16.733-34.101c0 0 17.766-.368 24.484 25.151 0 0 4.283-15.227 12.95-16.31 0 0-10.568 15.877-7.318 26.277" stroke="#A1A7A7" stroke-width=".65"/></g><g><path d="M918.345 460.357s3.29-21.42-17.726-30.35c16.92 2.954 22.024 9.938 23.904 22.024 0 0-2.149-15.846 8.863-22.024 0 0-6.983 15.175-1.61 25.247 0 0 7.385-10.072 4.565-18.532 0 0 7.877 7.52.672 22.561" fill="#FFF"/><path d="M918.345 460.357s3.29-21.42-17.726-30.35c16.92 2.954 22.024 9.938 23.904 22.024 0 0-2.149-15.846 8.863-22.024 0 0-6.983 15.175-1.61 25.247 0 0 7.385-10.072 4.565-18.532 0 0 7.877 7.52.672 22.561" stroke="#A1A7A7" stroke-width=".65"/></g><g><path d="M456.945 436.587c0-13.975 9.147-21.775 9.147-21.775-11.212 0-15.723 18.85-15.723 18.85s-4.101-21.775-20.839-25.025c0 0 14.728 13.975 12.838 27.95" fill="#FFF"/><path d="M456.945 436.587c0-13.975 9.147-21.775 9.147-21.775-11.212 0-15.723 18.85-15.723 18.85s-4.101-21.775-20.839-25.025c0 0 14.728 13.975 12.838 27.95" stroke="#A1A7A7" stroke-width=".65"/></g><g><path d="M1187.716 485.856c0-13.975-9.148-21.775-9.148-21.775 11.212 0 15.723 18.85 15.723 18.85s4.102-21.775 20.84-25.025c0 0-14.728 13.975-12.838 27.95" fill="#FFF"/><path d="M1187.716 485.856c0-13.975-9.148-21.775-9.148-21.775 11.212 0 15.723 18.85 15.723 18.85s4.102-21.775 20.84-25.025c0 0-14.728 13.975-12.838 27.95" stroke="#A1A7A7" stroke-width=".65"/></g><g><path d="M37.158 568.153s7.106-15.436-5.894-24.147c0 0 11.744.314 16.294 18.73 6.104-12.042 4.984-20.366 18.85-30.766 0 0-13.216 22.1-6.716 36.183" fill="#FFF"/><path d="M37.158 568.153s7.106-15.436-5.894-24.147c0 0 11.744.314 16.294 18.73 6.104-12.042 4.984-20.366 18.85-30.766 0 0-13.216 22.1-6.716 36.183" stroke="#A1A7A7" stroke-width=".65"/></g></g></g></g></g></svg>