<svg width="1249" height="676" viewBox="0 0 1249 676" xmlns="http://www.w3.org/2000/svg" xmlns:xlink="http://www.w3.org/1999/xlink"><defs><path d="M44.446 98h94.28a8.274 8.274 0 0 1 0 16.547h-24.243a8.274 8.274 0 0 0-8.274 8.274 8.274 8.274 0 0 1-8.273 8.273H8.274a8.274 8.274 0 1 1 0-16.547h19.625a8.274 8.274 0 0 0 8.274-8.273A8.274 8.274 0 0 1 44.446 98z" id="a"/><path id="b" d="M0 444.6h1248.65V.226H0z"/><path id="d" d="M.535 52.13l33.797 48.298 28.288 37.076 97.719-2.57 104.698-5.506 2.572-110.735-10.287-.54-11.388 79.707H74.743L39.843 49.6 19.06 6.518 17.434.582z"/><path d="M243.425 3.994H.273v100.022a33.893 33.893 0 0 1 8.758 22.782h238.251c0-18.794 15.248-34.03 34.057-34.03 18.79 0 34.026 15.203 34.058 33.971 8.883-.306 30.646-1.52 43.274-8.803 3.375-1.946 5.701-4.024 6.68-6.308 4.328-10.113 3.062-28.57 3.062-36.955 0-10.279-9.551-47.72-31.592-52.125-20.223-4.042-75.478-19.513-84.459-22.04l-8.937 3.486z" id="f"/><path d="M243.425 3.994H.273v100.022a33.893 33.893 0 0 1 8.758 22.782h238.251c0-18.794 15.248-34.03 34.057-34.03 18.79 0 34.026 15.203 34.058 33.971 8.883-.306 30.646-1.52 43.274-8.803 3.375-1.946 5.701-4.024 6.68-6.308 4.328-10.113 3.062-28.57 3.062-36.955 0-10.279-9.551-47.72-31.592-52.125-20.223-4.042-75.478-19.513-84.459-22.04l-8.937 3.486z" id="h"/><path d="M243.425 3.994H.273v100.022a33.893 33.893 0 0 1 8.758 22.782h238.251c0-18.794 15.248-34.03 34.057-34.03 18.79 0 34.026 15.203 34.058 33.971 8.883-.306 30.646-1.52 43.274-8.803 3.375-1.946 5.701-4.024 6.68-6.308 4.328-10.113 3.062-28.57 3.062-36.955 0-10.279-9.551-47.72-31.592-52.125-20.223-4.042-75.478-19.513-84.459-22.04l-8.937 3.486z" id="j"/><path d="M243.425 3.994H.273v100.022a33.893 33.893 0 0 1 8.758 22.782h238.251c0-18.794 15.248-34.03 34.057-34.03 18.79 0 34.026 15.203 34.058 33.971 8.883-.306 30.646-1.52 43.274-8.803 3.375-1.946 5.701-4.024 6.68-6.308 4.328-10.113 3.062-28.57 3.062-36.955 0-10.279-9.551-47.72-31.592-52.125-20.223-4.042-75.478-19.513-84.459-22.04l-8.937 3.486z" id="l"/><path d="M243.425 3.994H.273v100.022a33.893 33.893 0 0 1 8.758 22.782h238.251c0-18.794 15.248-34.03 34.057-34.03 18.79 0 34.026 15.203 34.058 33.971 8.883-.306 30.646-1.52 43.274-8.803 3.375-1.946 5.701-4.024 6.68-6.308 4.328-10.113 3.062-28.57 3.062-36.955 0-10.279-9.551-47.72-31.592-52.125-20.223-4.042-75.478-19.513-84.459-22.04l-8.937 3.486z" id="n"/></defs><g fill="none" fill-rule="evenodd"><g><g transform="translate(374 1)"><circle stroke="#919898" fill="#FFF" cx="707" cy="56" r="38"/><g><use fill="#FFF" xlink:href="#a"/><path stroke="#919898" d="M44.446 98.5a7.774 7.774 0 0 0-7.773 7.774 8.774 8.774 0 0 1-8.774 8.773H8.274a7.774 7.774 0 0 0 0 15.547h89.662a7.774 7.774 0 0 0 7.773-7.773 8.774 8.774 0 0 1 8.774-8.774h24.243a7.774 7.774 0 1 0 0-15.547h-94.28z"/></g><path d="M257.763 19h-88.18a6.494 6.494 0 0 0-6.494 6.494 6.494 6.494 0 0 1-6.494 6.493h-46.333a6.262 6.262 0 1 0 0 12.523h34.695a6.494 6.494 0 0 1 6.493 6.494 6.494 6.494 0 0 0 6.494 6.493h110.562a6.494 6.494 0 1 0 0-12.987h-29.323a6.262 6.262 0 1 1 0-12.523h18.58a6.494 6.494 0 0 0 0-12.987zM454.485 0h94.708a5.485 5.485 0 0 1 5.484 5.485 5.485 5.485 0 0 0 5.485 5.484h27.55a5.289 5.289 0 1 1 0 10.578H567.71a5.485 5.485 0 0 0-5.484 5.484 5.485 5.485 0 0 1-5.485 5.485h-69.16a5.485 5.485 0 0 1 0-10.97h16.517a5.289 5.289 0 1 0 0-10.578l-49.613.001a5.485 5.485 0 0 1 0-10.97zM640.143 59h48.379a6.95 6.95 0 0 1 6.95 6.95 6.95 6.95 0 0 0 6.948 6.948H745.3a6.701 6.701 0 0 1 0 13.402h-37.13a6.95 6.95 0 0 0-6.95 6.95 6.95 6.95 0 0 1-6.948 6.949H575.949a6.95 6.95 0 1 1 0-13.898h31.381c3.701 0 6.701-3 6.701-6.702 0-3.7 3-6.7 6.701-6.7h5.512a6.95 6.95 0 0 0 6.95-6.95A6.95 6.95 0 0 1 640.143 59z" stroke="#919898" fill="#FFF"/></g><g><path d="M.325 365.052h1248-1248z" fill="#FFF"/><path d="M.325 365.052h1248" stroke="#A1A7A7" stroke-width=".65"/><g><path fill="#FFF" d="M324.49 411.223V344.19h-11.447v67.032"/><path stroke="#A1A7A7" stroke-width=".65" d="M324.49 411.223V344.19h-11.447v67.032"/></g><g transform="translate(0 230.424)"><path d="M365.564 61.407l-.92-.92c-1.66-1.66-1.933-4.282-.586-6.202 3.045-4.342 3.152-10.65-1.273-15.075l-4.674-4.675c-1.588-1.587-2.25-3.863-1.812-6.064.536-2.689-.236-5.503-2.217-7.982-3.274-4.096-11.657-5.008-13.648-12.375C338.39.551 323.304.551 318.767.551c-4.538 0-19.624 0-21.668 7.563-1.99 7.367-10.374 8.279-13.648 12.375-1.981 2.479-2.753 5.293-2.217 7.982.439 2.201-.224 4.477-1.812 6.064l-4.675 4.675c-4.424 4.425-4.317 10.733-1.272 15.075 1.347 1.92 1.074 4.542-.585 6.201l-.921.921c-6.49 6.49-3.809 16.785 3.59 20.152a3.619 3.619 0 0 1 1.914 4.525c-2.222 6.28 2.23 13.755 9.775 13.755 1.235 0 2.332.889 2.484 2.114.637 5.12 16.968 11.814 23.31 11.814h11.448c6.343 0 22.674-6.693 23.311-11.814.152-1.225 1.249-2.114 2.484-2.114 7.544 0 11.997-7.474 9.775-13.755a3.619 3.619 0 0 1 1.914-4.525c7.399-3.367 10.08-13.662 3.59-20.152" fill="#FFF"/><path d="M365.564 61.407l-.92-.92c-1.66-1.66-1.933-4.282-.586-6.202 3.045-4.342 3.152-10.65-1.273-15.075l-4.674-4.675c-1.588-1.587-2.25-3.863-1.812-6.064.536-2.689-.236-5.503-2.217-7.982-3.274-4.096-11.657-5.008-13.648-12.375C338.39.551 323.304.551 318.767.551c-4.538 0-19.624 0-21.668 7.563-1.99 7.367-10.374 8.279-13.648 12.375-1.981 2.479-2.753 5.293-2.217 7.982.439 2.201-.224 4.477-1.812 6.064l-4.675 4.675c-4.424 4.425-4.317 10.733-1.272 15.075 1.347 1.92 1.074 4.542-.585 6.201l-.921.921c-6.49 6.49-3.809 16.785 3.59 20.152a3.619 3.619 0 0 1 1.914 4.525c-2.222 6.28 2.23 13.755 9.775 13.755 1.235 0 2.332.889 2.484 2.114.637 5.12 16.968 11.814 23.31 11.814h11.448c6.343 0 22.674-6.693 23.311-11.814.152-1.225 1.249-2.114 2.484-2.114 7.544 0 11.997-7.474 9.775-13.755a3.619 3.619 0 0 1 1.914-4.525c7.399-3.367 10.08-13.662 3.59-20.152z" stroke="#A1A7A7" stroke-width=".65"/><g><path fill="#FFF" d="M786.658 114.542v57.684h9.85v-57.684"/><path stroke="#A1A7A7" stroke-width=".65" d="M786.658 114.542v57.684h9.85v-57.684"/></g><path d="M831.855 69.484l-.792-.792c-1.428-1.427-1.663-3.684-.504-5.337 2.62-3.737 2.712-9.165-1.095-12.973l-4.023-4.022a5.771 5.771 0 0 1-1.559-5.22c.46-2.313-.203-4.735-1.908-6.868-2.817-3.524-10.032-4.31-11.745-10.648-1.76-6.51-14.74-6.51-18.645-6.51-3.906 0-16.887 0-18.646 6.51-1.714 6.338-8.927 7.124-11.745 10.648-1.705 2.133-2.369 4.555-1.908 6.868a5.773 5.773 0 0 1-1.56 5.22l-4.022 4.022c-3.808 3.808-3.716 9.236-1.095 12.973 1.16 1.653.923 3.91-.503 5.337l-.793.792c-5.585 5.585-3.278 14.444 3.089 17.342a3.114 3.114 0 0 1 1.647 3.894c-1.912 5.405 1.92 11.836 8.412 11.836 1.063.001 2.007.765 2.138 1.82.548 4.406 14.601 10.166 20.06 10.166H796.509c5.458 0 19.511-5.76 20.06-10.166.13-1.055 1.074-1.819 2.137-1.82 6.493 0 10.325-6.431 8.412-11.836a3.114 3.114 0 0 1 1.648-3.894c6.366-2.898 8.674-11.757 3.089-17.342" fill="#FFF"/><path d="M831.855 69.484l-.792-.792c-1.428-1.427-1.663-3.684-.504-5.337 2.62-3.737 2.712-9.165-1.095-12.973l-4.023-4.022a5.771 5.771 0 0 1-1.559-5.22c.46-2.313-.203-4.735-1.908-6.868-2.817-3.524-10.032-4.31-11.745-10.648-1.76-6.51-14.74-6.51-18.645-6.51-3.906 0-16.887 0-18.646 6.51-1.714 6.338-8.927 7.124-11.745 10.648-1.705 2.133-2.369 4.555-1.908 6.868a5.773 5.773 0 0 1-1.56 5.22l-4.022 4.022c-3.808 3.808-3.716 9.236-1.095 12.973 1.16 1.653.923 3.91-.503 5.337l-.793.792c-5.585 5.585-3.278 14.444 3.089 17.342a3.114 3.114 0 0 1 1.647 3.894c-1.912 5.405 1.92 11.836 8.412 11.836 1.063.001 2.007.765 2.138 1.82.548 4.406 14.601 10.166 20.06 10.166H796.509c5.458 0 19.511-5.76 20.06-10.166.13-1.055 1.074-1.819 2.137-1.82 6.493 0 10.325-6.431 8.412-11.836a3.114 3.114 0 0 1 1.648-3.894c6.366-2.898 8.674-11.757 3.089-17.342z" stroke="#A1A7A7" stroke-width=".65"/><g><path fill="#FFF" d="M631.495 241.458v-83.969h-14.34v83.969"/><path stroke="#A1A7A7" stroke-width=".65" d="M631.495 241.458v-83.969h-14.34v83.969"/></g><path d="M682.947 91.9l-1.154-1.153c-2.077-2.078-2.42-5.363-.733-7.769 3.814-5.44 3.949-13.34-1.594-18.884l-5.856-5.855c-1.988-1.988-2.819-4.84-2.27-7.597.671-3.368-.295-6.893-2.776-9.999-4.102-5.13-14.603-6.273-17.097-15.5-2.56-9.474-21.458-9.474-27.142-9.474-5.684 0-24.582 0-27.142 9.473-2.494 9.228-12.995 10.371-17.096 15.501-2.483 3.106-3.448 6.631-2.778 9.999.55 2.758-.28 5.609-2.27 7.597l-5.855 5.855c-5.543 5.543-5.408 13.445-1.594 18.884 1.687 2.406 1.345 5.69-.733 7.769l-1.154 1.154c-8.129 8.128-4.77 21.024 4.497 25.242a4.533 4.533 0 0 1 2.398 5.669c-2.784 7.868 2.795 17.23 12.246 17.23 1.547 0 2.92 1.114 3.11 2.649.799 6.413 21.255 14.798 29.202 14.798H631.495c7.946 0 28.402-8.385 29.2-14.798.191-1.535 1.564-2.648 3.111-2.649 9.452 0 15.03-9.362 12.246-17.23a4.533 4.533 0 0 1 2.397-5.669c9.269-4.218 12.627-17.114 4.498-25.242" fill="#FFF"/><path d="M682.947 91.9l-1.154-1.153c-2.077-2.078-2.42-5.363-.733-7.769 3.814-5.44 3.949-13.34-1.594-18.884l-5.856-5.855c-1.988-1.988-2.819-4.84-2.27-7.597.671-3.368-.295-6.893-2.776-9.999-4.102-5.13-14.603-6.273-17.097-15.5-2.56-9.474-21.458-9.474-27.142-9.474-5.684 0-24.582 0-27.142 9.473-2.494 9.228-12.995 10.371-17.096 15.501-2.483 3.106-3.448 6.631-2.778 9.999.55 2.758-.28 5.609-2.27 7.597l-5.855 5.855c-5.543 5.543-5.408 13.445-1.594 18.884 1.687 2.406 1.345 5.69-.733 7.769l-1.154 1.154c-8.129 8.128-4.77 21.024 4.497 25.242a4.533 4.533 0 0 1 2.398 5.669c-2.784 7.868 2.795 17.23 12.246 17.23 1.547 0 2.92 1.114 3.11 2.649.799 6.413 21.255 14.798 29.202 14.798H631.495c7.946 0 28.402-8.385 29.2-14.798.191-1.535 1.564-2.648 3.111-2.649 9.452 0 15.03-9.362 12.246-17.23a4.533 4.533 0 0 1 2.397-5.669c9.269-4.218 12.627-17.114 4.498-25.242z" stroke="#A1A7A7" stroke-width=".65"/><mask id="c" fill="#fff"><use xlink:href="#b"/></mask><path fill="#FFF" mask="url(#c)" d="M.325 444.275h1248v-48.874H.325z"/><path stroke="#A1A7A7" mask="url(#c)" d="M.325 444.275h1248v-48.874H.325z"/><path d="M.325 419.838h3.9" stroke="#A1A7A7" stroke-width=".65" mask="url(#c)"/><path d="M34.22 419.838h1195.208" stroke="#A1A7A7" stroke-dasharray="7.82470006942749,29.99425029754639" mask="url(#c)"/><path d="M1244.425 419.838h3.9" stroke="#A1A7A7" stroke-width=".65" mask="url(#c)"/></g><g transform="translate(974 512.624)"><path d="M47.233 50.549v27.874M128.904 50.549v27.874" stroke="#1AC5E3" stroke-width="4.55"/><rect fill="#1AC5E3" width="179" height="50.376" rx="5"/><text font-family="NPOSans-Bold, NPO Sans" font-size="23.4" font-weight="bold" letter-spacing=".024" fill="#FFF"><tspan x="37" y="33">Hil</tspan> <tspan x="64.708" y="33" letter-spacing="-.21">v</tspan> <tspan x="75.94" y="33">ersum</tspan></text></g><g><g><path fill="#FFF" d="M120.044 496.48v-97.753h-16.693v97.754"/><path stroke="#A1A7A7" stroke-width=".65" d="M120.044 496.48v-97.753h-16.693v97.754"/></g><path d="M179.943 322.37l-1.343-1.343c-2.419-2.419-2.817-6.243-.854-9.044 4.441-6.332 4.598-15.53-1.855-21.984l-6.817-6.817c-2.315-2.315-3.282-5.633-2.642-8.844.78-3.921-.344-8.025-3.233-11.64-4.775-5.973-17-7.303-19.903-18.046-2.981-11.029-24.982-11.029-31.599-11.029-6.617 0-28.617 0-31.598 11.03-2.903 10.742-15.128 12.072-19.903 18.045-2.89 3.615-4.014 7.719-3.233 11.64.64 3.21-.327 6.529-2.642 8.844L47.504 290c-6.453 6.453-6.296 15.652-1.856 21.984 1.964 2.801 1.565 6.625-.853 9.044l-1.343 1.343c-9.464 9.464-5.555 24.477 5.235 29.387a5.277 5.277 0 0 1 2.79 6.6c-3.24 9.159 3.254 20.059 14.257 20.059 1.8 0 3.4 1.296 3.622 3.083.929 7.467 24.744 17.228 33.995 17.228H120.044c9.25 0 33.065-9.761 33.995-17.228.222-1.787 1.82-3.083 3.622-3.083 11.002 0 17.496-10.9 14.255-20.06a5.277 5.277 0 0 1 2.792-6.599c10.79-4.91 14.699-19.923 5.235-29.387" fill="#FFF"/><path d="M179.943 322.37l-1.343-1.343c-2.419-2.419-2.817-6.243-.854-9.044 4.441-6.332 4.598-15.53-1.855-21.984l-6.817-6.817c-2.315-2.315-3.282-5.633-2.642-8.844.78-3.921-.344-8.025-3.233-11.64-4.775-5.973-17-7.303-19.903-18.046-2.981-11.029-24.982-11.029-31.599-11.029-6.617 0-28.617 0-31.598 11.03-2.903 10.742-15.128 12.072-19.903 18.045-2.89 3.615-4.014 7.719-3.233 11.64.64 3.21-.327 6.529-2.642 8.844L47.504 290c-6.453 6.453-6.296 15.652-1.856 21.984 1.964 2.801 1.565 6.625-.853 9.044l-1.343 1.343c-9.464 9.464-5.555 24.477 5.235 29.387a5.277 5.277 0 0 1 2.79 6.6c-3.24 9.159 3.254 20.059 14.257 20.059 1.8 0 3.4 1.296 3.622 3.083.929 7.467 24.744 17.228 33.995 17.228H120.044c9.25 0 33.065-9.761 33.995-17.228.222-1.787 1.82-3.083 3.622-3.083 11.002 0 17.496-10.9 14.255-20.06a5.277 5.277 0 0 1 2.792-6.599c10.79-4.91 14.699-19.923 5.235-29.387z" stroke="#A1A7A7" stroke-width=".65"/><g><path fill="#FFF" d="M1075.144 505.959v-92.154h-15.737v92.154"/><path stroke="#A1A7A7" stroke-width=".65" d="M1075.144 505.959v-92.154h-15.737v92.154"/></g><path d="M1131.612 341.822l-1.266-1.266c-2.28-2.28-2.657-5.885-.805-8.526 4.186-5.97 4.334-14.641-1.75-20.725l-6.426-6.426c-2.182-2.182-3.094-5.31-2.49-8.338.735-3.696-.325-7.565-3.05-10.973-4.5-5.63-16.024-6.884-18.761-17.012-2.811-10.397-23.55-10.397-29.789-10.397-6.238 0-26.977 0-29.788 10.397-2.737 10.128-14.261 11.382-18.762 17.012-2.724 3.408-3.784 7.277-3.049 10.973.604 3.027-.308 6.156-2.49 8.338l-6.427 6.426c-6.083 6.084-5.935 14.755-1.749 20.725 1.852 2.64 1.475 6.246-.805 8.526l-1.266 1.266c-8.921 8.921-5.236 23.074 4.936 27.704a4.975 4.975 0 0 1 2.63 6.22c-3.054 8.636 3.067 18.91 13.44 18.91 1.698.001 3.205 1.223 3.415 2.907.876 7.04 23.326 16.241 32.047 16.241h15.737c8.72 0 31.171-9.201 32.047-16.24.21-1.685 1.717-2.907 3.414-2.907 10.373 0 16.495-10.275 13.44-18.91a4.975 4.975 0 0 1 2.631-6.221c10.172-4.63 13.857-18.783 4.936-27.704" fill="#FFF"/><path d="M1131.612 341.822l-1.266-1.266c-2.28-2.28-2.657-5.885-.805-8.526 4.186-5.97 4.334-14.641-1.75-20.725l-6.426-6.426c-2.182-2.182-3.094-5.31-2.49-8.338.735-3.696-.325-7.565-3.05-10.973-4.5-5.63-16.024-6.884-18.761-17.012-2.811-10.397-23.55-10.397-29.789-10.397-6.238 0-26.977 0-29.788 10.397-2.737 10.128-14.261 11.382-18.762 17.012-2.724 3.408-3.784 7.277-3.049 10.973.604 3.027-.308 6.156-2.49 8.338l-6.427 6.426c-6.083 6.084-5.935 14.755-1.749 20.725 1.852 2.64 1.475 6.246-.805 8.526l-1.266 1.266c-8.921 8.921-5.236 23.074 4.936 27.704a4.975 4.975 0 0 1 2.63 6.22c-3.054 8.636 3.067 18.91 13.44 18.91 1.698.001 3.205 1.223 3.415 2.907.876 7.04 23.326 16.241 32.047 16.241h15.737c8.72 0 31.171-9.201 32.047-16.24.21-1.685 1.717-2.907 3.414-2.907 10.373 0 16.495-10.275 13.44-18.91a4.975 4.975 0 0 1 2.631-6.221c10.172-4.63 13.857-18.783 4.936-27.704z" stroke="#A1A7A7" stroke-width=".65"/><g><path d="M775.808 540.742s3.396-20.049-16.733-34.101c0 0 17.766-.368 24.484 25.151 0 0 4.283-15.227 12.95-16.31 0 0-10.568 15.877-7.318 26.277" fill="#FFF"/><path d="M775.808 540.742s3.396-20.049-16.733-34.101c0 0 17.766-.368 24.484 25.151 0 0 4.283-15.227 12.95-16.31 0 0-10.568 15.877-7.318 26.277" stroke="#A1A7A7" stroke-width=".65"/></g><g><path d="M918.345 460.357s3.29-21.42-17.726-30.35c16.92 2.954 22.024 9.938 23.904 22.024 0 0-2.149-15.846 8.863-22.024 0 0-6.983 15.175-1.61 25.247 0 0 7.385-10.072 4.565-18.532 0 0 7.877 7.52.672 22.561" fill="#FFF"/><path d="M918.345 460.357s3.29-21.42-17.726-30.35c16.92 2.954 22.024 9.938 23.904 22.024 0 0-2.149-15.846 8.863-22.024 0 0-6.983 15.175-1.61 25.247 0 0 7.385-10.072 4.565-18.532 0 0 7.877 7.52.672 22.561" stroke="#A1A7A7" stroke-width=".65"/></g><g><path d="M456.945 436.587c0-13.975 9.147-21.775 9.147-21.775-11.212 0-15.723 18.85-15.723 18.85s-4.101-21.775-20.839-25.025c0 0 14.728 13.975 12.838 27.95" fill="#FFF"/><path d="M456.945 436.587c0-13.975 9.147-21.775 9.147-21.775-11.212 0-15.723 18.85-15.723 18.85s-4.101-21.775-20.839-25.025c0 0 14.728 13.975 12.838 27.95" stroke="#A1A7A7" stroke-width=".65"/></g><g><path d="M1187.716 485.856c0-13.975-9.148-21.775-9.148-21.775 11.212 0 15.723 18.85 15.723 18.85s4.102-21.775 20.84-25.025c0 0-14.728 13.975-12.838 27.95" fill="#FFF"/><path d="M1187.716 485.856c0-13.975-9.148-21.775-9.148-21.775 11.212 0 15.723 18.85 15.723 18.85s4.102-21.775 20.84-25.025c0 0-14.728 13.975-12.838 27.95" stroke="#A1A7A7" stroke-width=".65"/></g><g><path d="M37.158 568.153s7.106-15.436-5.894-24.147c0 0 11.744.314 16.294 18.73 6.104-12.042 4.984-20.366 18.85-30.766 0 0-13.216 22.1-6.716 36.183" fill="#FFF"/><path d="M37.158 568.153s7.106-15.436-5.894-24.147c0 0 11.744.314 16.294 18.73 6.104-12.042 4.984-20.366 18.85-30.766 0 0-13.216 22.1-6.716 36.183" stroke="#A1A7A7" stroke-width=".65"/></g></g></g><g><g><path d="M633.629 563.067c0-10.278-9.552-47.72-31.593-52.125-22.042-4.405-85.7-22.388-85.7-22.388-28.102-19.27-85.652-53.804-144.611-53.804-58.96 0-165.708-4.933-177.83 4.978l-26.633 67.595a48.156 48.156 0 0 0-3.287 20.055c.722 14.444 1.493 40.844-1.39 56.178-.492 2.62-.798 4.945-.798 6.676 0 17.705 34.717 23.427 44.348 24.675.154-18.663 15.34-33.745 34.054-33.745 18.81 0 34.057 15.236 34.057 34.031h238.252c0-18.795 15.247-34.031 34.057-34.031 18.79 0 34.025 15.204 34.057 33.972 8.883-.307 30.646-1.52 43.274-8.803 3.375-1.947 5.702-4.024 6.68-6.308 4.328-10.113 3.063-28.57 3.063-36.956" fill="#1AC5E3"/><path d="M269.578 615.193c0 16.22-13.158 29.367-29.39 29.367-16.23 0-29.388-13.148-29.388-29.367s13.158-29.366 29.389-29.366 29.389 13.147 29.389 29.366M575.944 615.193c0 16.22-13.158 29.367-29.389 29.367s-29.39-13.148-29.39-29.367 13.159-29.366 29.39-29.366 29.39 13.147 29.39 29.366" fill="#1AC5E3"/><path d="M240.189 636.117c-11.546 0-20.94-9.387-20.94-20.924 0-11.537 9.394-20.924 20.94-20.924 11.546 0 20.94 9.387 20.94 20.924 0 11.537-9.394 20.924-20.94 20.924" fill="#FFF"/><path d="M240.189 636.117c-11.546 0-20.94-9.387-20.94-20.924 0-11.537 9.394-20.924 20.94-20.924 11.546 0 20.94 9.387 20.94 20.924 0 11.537-9.394 20.924-20.94 20.924z" stroke="#FFF"/><path d="M546.555 636.117c-11.546 0-20.94-9.387-20.94-20.924 0-11.537 9.394-20.924 20.94-20.924 11.546 0 20.94 9.387 20.94 20.924 0 11.537-9.394 20.924-20.94 20.924" fill="#FFF"/><path d="M546.555 636.117c-11.546 0-20.94-9.387-20.94-20.924 0-11.537 9.394-20.924 20.94-20.924 11.546 0 20.94 9.387 20.94 20.924 0 11.537-9.394 20.924-20.94 20.924z" stroke="#FFF"/><path d="M499.406 495.447c-3.544.055-8.093.063-13.51.032a2.452 2.452 0 0 1-2.439-2.448v-11.64c0-1.216 1.368-1.93 2.369-1.241 6.016 4.15 10.733 7.94 14.939 10.998 1.848 1.344.926 4.263-1.359 4.3zm-23.664-2.537a2.446 2.446 0 0 1-2.478 2.448c-26.973-.338-67.05-1.255-111.158-2.269a4.446 4.446 0 0 1-4.333-4.117l-3.022-41.069a4.45 4.45 0 0 1 4.48-4.77c4.345.037 8.523.06 12.494.06 24.894 0 51.448 7.073 81.822 19.575 8.235 3.39 15.103 6.853 20.965 10.23a2.45 2.45 0 0 1 1.23 2.123v17.79zM339.675 447.58l-2.896 40.68a4.45 4.45 0 0 1-4.547 4.129c-34.66-.83-66.648-.55-87.964-1.108a4.448 4.448 0 0 1-4.3-4.977l4.728-40.319a4.444 4.444 0 0 1 4.353-3.914c5.071-.07 10.542-.105 16.44-.105 18.526 0 38.526.334 57.869.656 4.042.068 8.032.134 11.952.197a4.445 4.445 0 0 1 4.365 4.76zm-106.119.025l-4.694 38.145a4.45 4.45 0 0 1-4.537 3.901l-6.656-.178c-12.768-.07-20.497-1.751-25.16-3.65-4.33-1.764-6.438-6.718-4.67-11.043 9.014-22.063 10.08-27.343 11.273-28.403.716-.374 4.928-2.163 21.534-3.295 2.562-.174 5.322-.328 8.29-.461 2.751-.123 4.956 2.253 4.62 4.984z" fill="#FFF"/><path d="M499.406 495.447c-3.544.055-8.093.063-13.51.032a2.452 2.452 0 0 1-2.439-2.448v-11.64c0-1.216 1.368-1.93 2.369-1.241 6.016 4.15 10.733 7.94 14.939 10.998 1.848 1.344.926 4.263-1.359 4.3zm-23.664-2.537a2.446 2.446 0 0 1-2.478 2.448c-26.973-.338-67.05-1.255-111.158-2.269a4.446 4.446 0 0 1-4.333-4.117l-3.022-41.069a4.45 4.45 0 0 1 4.48-4.77c4.345.037 8.523.06 12.494.06 24.894 0 51.448 7.073 81.822 19.575 8.235 3.39 15.103 6.853 20.965 10.23a2.45 2.45 0 0 1 1.23 2.123v17.79zM339.675 447.58l-2.896 40.68a4.45 4.45 0 0 1-4.547 4.129c-34.66-.83-66.648-.55-87.964-1.108a4.448 4.448 0 0 1-4.3-4.977l4.728-40.319a4.444 4.444 0 0 1 4.353-3.914c5.071-.07 10.542-.105 16.44-.105 18.526 0 38.526.334 57.869.656 4.042.068 8.032.134 11.952.197a4.445 4.445 0 0 1 4.365 4.76zm-106.119.025l-4.694 38.145a4.45 4.45 0 0 1-4.537 3.901l-6.656-.178c-12.768-.07-20.497-1.751-25.16-3.65-4.33-1.764-6.438-6.718-4.67-11.043 9.014-22.063 10.08-27.343 11.273-28.403.716-.374 4.928-2.163 21.534-3.295 2.562-.174 5.322-.328 8.29-.461 2.751-.123 4.956 2.253 4.62 4.984z" stroke="#FFF"/><path fill="#1AC5E3" d="M329.954 417.575v13.232h3.523v3.943h27.839v-3.943h3.524v-13.232z"/><path d="M346.662 499.566v88.523" stroke="#FFF"/><path d="M228.936 442.62c-2.968.133-5.728.286-8.29.46-16.606 1.133-20.817 2.922-21.534 3.296-1.193 1.06-2.259 6.34-11.273 28.403-1.768 4.325.34 9.28 4.67 11.042 4.663 1.9 12.392 3.582 25.16 3.65l6.656.18a4.45 4.45 0 0 0 4.537-3.902l4.694-38.145c.336-2.73-1.868-5.107-4.62-4.984" fill="#FFF"/></g><g transform="translate(218.42 474.757)"><mask id="e" fill="#fff"><use xlink:href="#d"/></mask><path d="M257.323 18.154l1.967 27.752c.097 1.625.25 3.248.493 4.859a154.545 154.545 0 0 1-.327 48.006l-3.808 23.19a5.847 5.847 0 0 1-5.771 4.898H71.39c-4.822 0-9.874-1.468-9.874-10.279 0-8.81-27.92-44.05-36.001-50.657-8.082-6.608-8.877-13.582-9.612-26.063-.734-12.48 5.644-19.578 5.644-28.314l235.775 6.608z" stroke="#FFF" mask="url(#e)"/></g><g><path d="M625.233 533.099s-6.807.597-14.548.018c-3.61-.27-6.699 2.559-6.699 6.176a6.207 6.207 0 0 0 5.071 6.095c6.369 1.198 16.439.452 20.712-1.203M163.975 527.378h5.143c1.003 0 1.816.812 1.816 1.814v12.06a1.814 1.814 0 0 1-1.816 1.813h-4.668" fill="#FFF"/><path d="M365.533 513.7h10.899M254.59 513.7h10.898" stroke="#FFF"/></g><g><g transform="translate(265.215 488.395)"><mask id="g" fill="#fff"><use xlink:href="#f"/></mask><path fill="#FFF" mask="url(#g)" d="M81.11 109.082H62.063l54.758-53.65h19.047z"/></g><g transform="translate(265.215 488.395)"><mask id="i" fill="#fff"><use xlink:href="#h"/></mask><path fill="#FFF" mask="url(#i)" d="M119.176 109.082H100.13l54.76-53.65h19.046z"/></g><g transform="translate(265.215 488.395)"><mask id="k" fill="#fff"><use xlink:href="#j"/></mask><path fill="#FFF" mask="url(#k)" d="M157.243 109.082h-19.047l54.76-53.65h19.046z"/></g><g transform="translate(265.215 488.395)"><mask id="m" fill="#fff"><use xlink:href="#l"/></mask><path fill="#FFF" mask="url(#m)" d="M195.31 109.082h-19.047l54.759-53.65h19.047z"/></g><g transform="translate(265.215 488.395)"><mask id="o" fill="#fff"><use xlink:href="#n"/></mask><path fill="#FFF" mask="url(#o)" d="M233.806 109.082H214.76l54.759-53.65h19.047z"/></g></g></g></g></g></svg>