<svg width="1260" height="675" viewBox="0 0 1260 675" xmlns="http://www.w3.org/2000/svg" xmlns:xlink="http://www.w3.org/1999/xlink" preserveAspectRatio="xMidYMax slice"><defs><path id="house-a" d="M0 515h1410.774V0H0z"/><path id="house-c" d="M.325.337h128.927v375.68H.325z"/><path id="house-e" d="M.535 52.13l33.797 48.298 28.288 37.076 97.719-2.57 104.698-5.506 2.572-110.735-10.287-.54-11.388 79.707H74.743L39.843 49.6 19.06 6.518 17.434.582z"/><path d="M243.425 3.994H.273v100.022a33.893 33.893 0 0 1 8.758 22.782h238.251c0-18.794 15.248-34.03 34.057-34.03 18.79 0 34.026 15.203 34.058 33.971 8.883-.306 30.646-1.52 43.274-8.803 3.375-1.946 5.701-4.024 6.68-6.308 4.328-10.113 3.062-28.57 3.062-36.955 0-10.279-9.551-47.72-31.592-52.125-20.223-4.042-75.478-19.513-84.459-22.04l-8.937 3.486z" id="house-g"/><path d="M243.425 3.994H.273v100.022a33.893 33.893 0 0 1 8.758 22.782h238.251c0-18.794 15.248-34.03 34.057-34.03 18.79 0 34.026 15.203 34.058 33.971 8.883-.306 30.646-1.52 43.274-8.803 3.375-1.946 5.701-4.024 6.68-6.308 4.328-10.113 3.062-28.57 3.062-36.955 0-10.279-9.551-47.72-31.592-52.125-20.223-4.042-75.478-19.513-84.459-22.04l-8.937 3.486z" id="house-i"/><path d="M243.425 3.994H.273v100.022a33.893 33.893 0 0 1 8.758 22.782h238.251c0-18.794 15.248-34.03 34.057-34.03 18.79 0 34.026 15.203 34.058 33.971 8.883-.306 30.646-1.52 43.274-8.803 3.375-1.946 5.701-4.024 6.68-6.308 4.328-10.113 3.062-28.57 3.062-36.955 0-10.279-9.551-47.72-31.592-52.125-20.223-4.042-75.478-19.513-84.459-22.04l-8.937 3.486z" id="house-k"/><path d="M243.425 3.994H.273v100.022a33.893 33.893 0 0 1 8.758 22.782h238.251c0-18.794 15.248-34.03 34.057-34.03 18.79 0 34.026 15.203 34.058 33.971 8.883-.306 30.646-1.52 43.274-8.803 3.375-1.946 5.701-4.024 6.68-6.308 4.328-10.113 3.062-28.57 3.062-36.955 0-10.279-9.551-47.72-31.592-52.125-20.223-4.042-75.478-19.513-84.459-22.04l-8.937 3.486z" id="house-m"/><path d="M243.425 3.994H.273v100.022a33.893 33.893 0 0 1 8.758 22.782h238.251c0-18.794 15.248-34.03 34.057-34.03 18.79 0 34.026 15.203 34.058 33.971 8.883-.306 30.646-1.52 43.274-8.803 3.375-1.946 5.701-4.024 6.68-6.308 4.328-10.113 3.062-28.57 3.062-36.955 0-10.279-9.551-47.72-31.592-52.125-20.223-4.042-75.478-19.513-84.459-22.04l-8.937 3.486z" id="house-o"/><path d="M119.446 98h94.28a8.274 8.274 0 0 1 0 16.547h-24.243a8.274 8.274 0 0 0-8.274 8.274 8.274 8.274 0 0 1-8.273 8.273H83.274a8.274 8.274 0 1 1 0-16.547h19.625a8.274 8.274 0 0 0 8.274-8.273A8.274 8.274 0 0 1 119.446 98z" id="house-q"/></defs><g fill="none" fill-rule="evenodd"><g><g id="house-scene"><path stroke="#A1A7A7" d="M173.408 625.64h62.556V484.283h-62.556z"/><path d="M124.212 417.728h49.196v-89.637h-49.196v89.637zm.717-.716h47.763v-88.204H124.93v88.204z" fill="#A1A7A7"/><path d="M124.212 414.152h49.197" stroke="#A1A7A7" stroke-width=".717"/><path d="M46.628 571.319h77.342v-89.637H46.628v89.637zm.65-.649h76.042v-88.338H47.278v88.338z" fill="#A1A7A7"/><path d="M85.299 481.682v85.431M123.97 524.398H46.628M123.97 567.113H46.628" stroke="#A1A7A7" stroke-width=".65"/><path d="M124.212 371.122h49.197" stroke="#A1A7A7" stroke-width=".717"/><path stroke="#A1A7A7" d="M149.673 249.958L1.325 421.3v204.34h281.844V421.3zM455.478 625.64h62.556V484.283h-62.556z"/><path d="M406.282 417.728h49.196v-89.637h-49.196v89.637zm.717-.716h47.763v-88.204H407v88.204z" fill="#A1A7A7"/><path d="M406.282 414.152h49.197" stroke="#A1A7A7"/><path d="M328.698 571.319h77.342v-89.637h-77.342v89.637zm.65-.649h76.042v-88.338h-76.042v88.338z" fill="#A1A7A7"/><path d="M367.369 481.682v85.431M406.04 524.398h-77.342M406.04 567.113h-77.342M406.282 371.122h49.197M431.743 249.958L283.395 421.3v204.34h281.844V421.3zM737.548 625.64h62.556V484.283h-62.556z" stroke="#A1A7A7"/><path d="M688.352 417.728h49.196v-89.637h-49.196v89.637zm.718-.716h47.762v-88.204H689.07v88.204z" fill="#A1A7A7"/><path d="M688.352 414.152h49.197" stroke="#A1A7A7"/><path d="M610.768 571.319h77.342v-89.637h-77.342v89.637zm.65-.649h76.042v-88.338h-76.042v88.338z" fill="#A1A7A7"/><path d="M649.44 481.682v85.431M688.11 524.398h-77.342M688.11 567.113h-77.342M688.352 371.122h49.197M713.813 249.958L565.465 421.3v204.34h281.844V421.3zM1019.619 625.64h62.555V484.283h-62.555z" stroke="#A1A7A7"/><path d="M892.838 571.319h77.342v-89.637h-77.342v89.637zm.65-.649h76.042v-88.338h-76.042v88.338z" fill="#A1A7A7"/><path d="M931.51 481.682v85.431M970.18 524.398h-77.342M970.18 567.113h-77.342" stroke="#A1A7A7"/><g transform="translate(3 160)"><path d="M934.636 157.234L844.535 261.3v204.34h281.844V261.3l-78.807-101.149c-28.306-36.33-82.788-37.738-112.936-2.917z" stroke="#A1A7A7"/><path d="M1021.557 204.896c0 17.754-14.404 32.147-32.172 32.147-17.767 0-32.171-14.393-32.171-32.147 0-17.754 14.404-32.147 32.171-32.147 17.768 0 32.172 14.393 32.172 32.147zM989.71 172.75v64.293M957.214 205.22h64.343" stroke="#A1A7A7"/><mask id="house-b" fill="#fff"><use xlink:href="#house-a"/></mask><path fill="#FFF" mask="url(#house-b)" d="M7.99 514.675h1247.867v-48.831H7.99z"/><path stroke="#A1A7A7" mask="url(#house-b)" d="M7.99 514.675h1247.867v-48.831H7.99z"/><path d="M7.99 490.26h3.9" stroke="#A1A7A7" stroke-width=".65" mask="url(#house-b)"/><path d="M41.88 490.26h1195.082" stroke="#A1A7A7" stroke-dasharray="7.82470006942749,29.99425029754639" mask="url(#house-b)"/><path d="M1251.958 490.26h3.9" stroke="#A1A7A7" stroke-width=".65" mask="url(#house-b)"/></g><g transform="translate(1129.28 249.622)"><mask id="house-d" fill="#fff"><use xlink:href="#house-c"/></mask><path d="M123.212 168.106h49.196V78.47h-49.196v89.636zm.717-.715h47.763V79.186H123.93v88.205z" fill="#A1A7A7" mask="url(#house-d)"/><path d="M123.212 164.53h49.197" stroke="#A1A7A7" stroke-width=".717" mask="url(#house-d)"/><path d="M45.628 321.697h77.342V232.06H45.628v89.637zm.65-.649h76.042v-88.337H46.278v88.337z" fill="#A1A7A7" mask="url(#house-d)"/><path d="M84.299 232.06v85.432" stroke="#A1A7A7" stroke-width=".65" mask="url(#house-d)"/><path d="M122.97 274.776H45.628M122.97 317.492H45.628" stroke="#A1A7A7" mask="url(#house-d)"/><path d="M123.212 121.5h49.197" stroke="#A1A7A7" stroke-width=".717" mask="url(#house-d)"/><path stroke="#A1A7A7" mask="url(#house-d)" d="M148.673.337L.325 171.679v204.339h281.844v-204.34z"/></g></g><g id="house-car"><g><path d="M697.629 584.067c0-10.278-9.552-47.72-31.593-52.125-22.042-4.405-85.7-22.388-85.7-22.388-28.102-19.27-85.652-53.804-144.611-53.804-58.96 0-165.708-4.933-177.83 4.978l-26.633 67.595a48.156 48.156 0 0 0-3.287 20.055c.722 14.444 1.493 40.844-1.39 56.178-.492 2.62-.798 4.945-.798 6.676 0 17.705 34.717 23.427 44.348 24.675.154-18.663 15.34-33.745 34.054-33.745 18.81 0 34.057 15.236 34.057 34.031h238.252c0-18.795 15.247-34.031 34.057-34.031 18.79 0 34.025 15.204 34.057 33.972 8.883-.307 30.646-1.52 43.274-8.803 3.375-1.947 5.702-4.024 6.68-6.308 4.328-10.113 3.063-28.57 3.063-36.956" fill="#1AC5E3"/><path d="M333.578 636.193c0 16.22-13.158 29.367-29.39 29.367-16.23 0-29.388-13.148-29.388-29.367s13.158-29.366 29.389-29.366 29.389 13.147 29.389 29.366M639.944 636.193c0 16.22-13.158 29.367-29.389 29.367s-29.39-13.148-29.39-29.367 13.159-29.366 29.39-29.366 29.39 13.147 29.39 29.366" fill="#1AC5E3"/><path d="M304.189 657.117c-11.546 0-20.94-9.387-20.94-20.924 0-11.537 9.394-20.924 20.94-20.924 11.546 0 20.94 9.387 20.94 20.924 0 11.537-9.394 20.924-20.94 20.924" fill="#FFF"/><path d="M304.189 657.117c-11.546 0-20.94-9.387-20.94-20.924 0-11.537 9.394-20.924 20.94-20.924 11.546 0 20.94 9.387 20.94 20.924 0 11.537-9.394 20.924-20.94 20.924z" stroke="#FFF"/><path d="M610.555 657.117c-11.546 0-20.94-9.387-20.94-20.924 0-11.537 9.394-20.924 20.94-20.924 11.546 0 20.94 9.387 20.94 20.924 0 11.537-9.394 20.924-20.94 20.924" fill="#FFF"/><path d="M610.555 657.117c-11.546 0-20.94-9.387-20.94-20.924 0-11.537 9.394-20.924 20.94-20.924 11.546 0 20.94 9.387 20.94 20.924 0 11.537-9.394 20.924-20.94 20.924z" stroke="#FFF"/><path d="M563.406 516.447c-3.544.055-8.093.063-13.51.032a2.452 2.452 0 0 1-2.439-2.448v-11.64c0-1.216 1.368-1.93 2.369-1.241 6.016 4.15 10.733 7.94 14.939 10.998 1.848 1.344.926 4.263-1.359 4.3zm-23.664-2.537a2.446 2.446 0 0 1-2.478 2.448c-26.973-.338-67.05-1.255-111.158-2.269a4.446 4.446 0 0 1-4.333-4.117l-3.022-41.069a4.45 4.45 0 0 1 4.48-4.77c4.345.037 8.523.06 12.494.06 24.894 0 51.448 7.073 81.822 19.575 8.235 3.39 15.103 6.853 20.965 10.23a2.45 2.45 0 0 1 1.23 2.123v17.79zM403.675 468.58l-2.896 40.68a4.45 4.45 0 0 1-4.547 4.129c-34.66-.83-66.648-.55-87.964-1.108a4.448 4.448 0 0 1-4.3-4.977l4.728-40.319a4.444 4.444 0 0 1 4.353-3.914c5.071-.07 10.542-.105 16.44-.105 18.526 0 38.526.334 57.869.656 4.042.068 8.032.134 11.952.197a4.445 4.445 0 0 1 4.365 4.76zm-106.119.025l-4.694 38.145a4.45 4.45 0 0 1-4.537 3.901l-6.656-.178c-12.768-.07-20.497-1.751-25.16-3.65-4.33-1.764-6.438-6.718-4.67-11.043 9.014-22.063 10.08-27.343 11.273-28.403.716-.374 4.928-2.163 21.534-3.295 2.562-.174 5.322-.328 8.29-.461 2.751-.123 4.956 2.253 4.62 4.984z" fill="#FFF"/><path d="M563.406 516.447c-3.544.055-8.093.063-13.51.032a2.452 2.452 0 0 1-2.439-2.448v-11.64c0-1.216 1.368-1.93 2.369-1.241 6.016 4.15 10.733 7.94 14.939 10.998 1.848 1.344.926 4.263-1.359 4.3zm-23.664-2.537a2.446 2.446 0 0 1-2.478 2.448c-26.973-.338-67.05-1.255-111.158-2.269a4.446 4.446 0 0 1-4.333-4.117l-3.022-41.069a4.45 4.45 0 0 1 4.48-4.77c4.345.037 8.523.06 12.494.06 24.894 0 51.448 7.073 81.822 19.575 8.235 3.39 15.103 6.853 20.965 10.23a2.45 2.45 0 0 1 1.23 2.123v17.79zM403.675 468.58l-2.896 40.68a4.45 4.45 0 0 1-4.547 4.129c-34.66-.83-66.648-.55-87.964-1.108a4.448 4.448 0 0 1-4.3-4.977l4.728-40.319a4.444 4.444 0 0 1 4.353-3.914c5.071-.07 10.542-.105 16.44-.105 18.526 0 38.526.334 57.869.656 4.042.068 8.032.134 11.952.197a4.445 4.445 0 0 1 4.365 4.76zm-106.119.025l-4.694 38.145a4.45 4.45 0 0 1-4.537 3.901l-6.656-.178c-12.768-.07-20.497-1.751-25.16-3.65-4.33-1.764-6.438-6.718-4.67-11.043 9.014-22.063 10.08-27.343 11.273-28.403.716-.374 4.928-2.163 21.534-3.295 2.562-.174 5.322-.328 8.29-.461 2.751-.123 4.956 2.253 4.62 4.984z" stroke="#FFF"/><path fill="#1AC5E3" d="M393.954 438.575v13.232h3.523v3.943h27.839v-3.943h3.524v-13.232z"/><path d="M410.662 520.566v88.523" stroke="#FFF"/><path d="M292.936 463.62c-2.968.133-5.728.286-8.29.46-16.606 1.133-20.817 2.922-21.534 3.296-1.193 1.06-2.259 6.34-11.273 28.403-1.768 4.325.34 9.28 4.67 11.042 4.663 1.9 12.392 3.582 25.16 3.65l6.656.18a4.45 4.45 0 0 0 4.537-3.902l4.694-38.145c.336-2.73-1.868-5.107-4.62-4.984" fill="#FFF"/></g><g transform="translate(282.42 495.757)"><mask id="house-f" fill="#fff"><use xlink:href="#house-e"/></mask><path d="M257.323 18.154l1.967 27.752c.097 1.625.25 3.248.493 4.859a154.545 154.545 0 0 1-.327 48.006l-3.808 23.19a5.847 5.847 0 0 1-5.771 4.898H71.39c-4.822 0-9.874-1.468-9.874-10.279 0-8.81-27.92-44.05-36.001-50.657-8.082-6.608-8.877-13.582-9.612-26.063-.734-12.48 5.644-19.578 5.644-28.314l235.775 6.608z" stroke="#FFF" mask="url(#house-f)"/></g><g><path d="M689.233 554.099s-6.807.597-14.548.018c-3.61-.27-6.699 2.559-6.699 6.176a6.207 6.207 0 0 0 5.071 6.095c6.369 1.198 16.439.452 20.712-1.203M227.975 548.378h5.143c1.003 0 1.816.812 1.816 1.814v12.06a1.814 1.814 0 0 1-1.816 1.813h-4.668" fill="#FFF"/><path d="M429.533 534.7h10.899M318.59 534.7h10.898" stroke="#FFF"/></g><g><g transform="translate(329.215 509.395)"><mask id="house-h" fill="#fff"><use xlink:href="#house-g"/></mask><path fill="#FFF" mask="url(#house-h)" d="M81.11 109.082H62.063l54.758-53.65h19.047z"/></g><g transform="translate(329.215 509.395)"><mask id="house-j" fill="#fff"><use xlink:href="#house-i"/></mask><path fill="#FFF" mask="url(#house-j)" d="M119.176 109.082H100.13l54.76-53.65h19.046z"/></g><g transform="translate(329.215 509.395)"><mask id="house-l" fill="#fff"><use xlink:href="#house-k"/></mask><path fill="#FFF" mask="url(#house-l)" d="M157.243 109.082h-19.047l54.76-53.65h19.046z"/></g><g transform="translate(329.215 509.395)"><mask id="house-n" fill="#fff"><use xlink:href="#house-m"/></mask><path fill="#FFF" mask="url(#house-n)" d="M195.31 109.082h-19.047l54.759-53.65h19.047z"/></g><g transform="translate(329.215 509.395)"><mask id="house-p" fill="#fff"><use xlink:href="#house-o"/></mask><path fill="#FFF" mask="url(#house-p)" d="M233.806 109.082H214.76l54.759-53.65h19.047z"/></g></g></g><g id="house-clouds" transform="translate(341 1)"><circle stroke="#919898" fill="#FFF" cx="681" cy="56" r="38"/><g><use fill="#FFF" xlink:href="#house-q"/><path stroke="#919898" d="M119.446 98.5a7.774 7.774 0 0 0-7.773 7.774 8.774 8.774 0 0 1-8.774 8.773H83.274a7.774 7.774 0 0 0 0 15.547h89.662a7.774 7.774 0 0 0 7.773-7.773 8.774 8.774 0 0 1 8.774-8.774h24.243a7.774 7.774 0 1 0 0-15.547h-94.28z"/></g><path d="M153.763 19h-88.18a6.494 6.494 0 0 0-6.494 6.494 6.494 6.494 0 0 1-6.494 6.493H6.262a6.262 6.262 0 1 0 0 12.523h34.695a6.494 6.494 0 0 1 6.493 6.494 6.494 6.494 0 0 0 6.494 6.493h110.562a6.494 6.494 0 0 0 0-12.987h-29.323a6.262 6.262 0 1 1 0-12.523h18.58a6.494 6.494 0 0 0 0-12.987zM487.485 0h94.708a5.485 5.485 0 0 1 5.484 5.485 5.485 5.485 0 0 0 5.485 5.484h27.55a5.289 5.289 0 1 1 0 10.578H600.71a5.485 5.485 0 0 0-5.484 5.484 5.485 5.485 0 0 1-5.485 5.485h-69.16a5.485 5.485 0 0 1 0-10.97h16.517a5.289 5.289 0 1 0 0-10.578l-49.613.001a5.485 5.485 0 0 1 0-10.97zM672.143 59h48.379a6.95 6.95 0 0 1 6.95 6.95 6.95 6.95 0 0 0 6.948 6.948H777.3a6.701 6.701 0 0 1 0 13.402h-37.13a6.95 6.95 0 0 0-6.95 6.95 6.95 6.95 0 0 1-6.948 6.949H607.949a6.95 6.95 0 1 1 0-13.898h31.381c3.701 0 6.701-3 6.701-6.702 0-3.7 3-6.7 6.701-6.7h5.512a6.95 6.95 0 0 0 6.95-6.95A6.95 6.95 0 0 1 672.143 59z" stroke="#919898" fill="#FFF"/></g></g></g></svg>