<svg width="1248" height="482" viewBox="0 0 1248 482" xmlns="http://www.w3.org/2000/svg" xmlns:xlink="http://www.w3.org/1999/xlink" preserveAspectRatio="xMidYMax slice"><defs><path id="open-door-a" d="M.094.192h98.651v416.783H.095z"/></defs><g fill="none" fill-rule="evenodd"><g id="open-door-scene"><g><g stroke="#A1A7A7"><path d="M677.165 164.995h46.15v-56.55h-46.15z"/><path d="M715.544 136.335c0 8.36-6.777 15.136-15.136 15.136-8.36 0-15.136-6.777-15.136-15.136 0-8.36 6.777-15.136 15.136-15.136 8.36 0 15.136 6.776 15.136 15.136z"/><path d="M710.483 136.335c0 5.564-4.511 10.075-10.075 10.075-5.564 0-10.075-4.511-10.075-10.075 0-5.564 4.511-10.075 10.075-10.075 5.564 0 10.075 4.51 10.075 10.075z"/></g><g><path d="M303.875 264.428h227.863V.138H303.875v264.29zm.65-.65h226.563V.788H304.525v262.99z" fill="#A1A7A7"/><path d="M417.807.139v251.888M531.738 126.083H303.875M531.738 252.027H303.875" stroke="#A1A7A7"/></g><g><path fill="#1AC5E3" d="M664.658 60.935h68.25v-40.95h-68.25z"/><text font-family="Relative-Medium, Relative" font-size="18.2" font-weight="400" letter-spacing="2" fill="#FFF" transform="translate(664 19.164)"><tspan x="21.787" y="27.718">40</tspan></text></g><g><g><path d="M0 417.114h1248" fill="#FFF"/><path d="M0 417.114h1248" stroke="#A1A7A7"/></g><path fill="#FFF" d="M1028.625 481.139H835.402l19.902-46.8h153.42z"/><path stroke="#A1A7A7" d="M1028.625 481.139H835.402l19.902-46.8h153.42z"/></g><g><path fill="#919898" d="M837.944 417.794h184.301V.494h-184.3z"/><path fill="#FFF" d="M837.944.494v416.783l98.651-27.648V.494z"/><g transform="translate(837.85 .302)"><mask id="open-door-b" fill="#fff"><use xlink:href="#open-door-a"/></mask><path stroke="#A1A7A7" stroke-width=".712" mask="url(#open-door-b)" d="M.094 416.975l98.651-27.648V-17.228L.095.192"/></g><path stroke="#A1A7A7" stroke-width=".712" d="M837.944 417.277h184.301V.494h-184.3z"/></g></g><g><path d="M1001.65 208.302a8.45 8.45 0 0 1-8.45 8.45 8.45 8.45 0 0 1-8.45-8.45 8.45 8.45 0 0 1 8.45-8.45 8.45 8.45 0 0 1 8.45 8.45z" stroke="#A1A7A7" stroke-width=".712"/><path d="M838.64 152.367l-25.637 62.32" stroke="#4B3726" stroke-width="17.093" stroke-linecap="round"/><path d="M813.04 214.759l-30.98 12.963" stroke="#EABBA5" stroke-width="17.093"/><path d="M798.63 220.788l-32.339 13.533" stroke="#EABBA5" stroke-width="17.093" stroke-linecap="round"/><path fill="#4B3726" d="M806.386 208.3l9.845 13.95 4.023-25.19z"/><path d="M751.156 225.143c-1.422.152-2.562 1.446-2.533 2.875a2.59 2.59 0 0 0 2.85 2.3l-1.415.151c-1.394.15-2.533 1.328-2.457 2.728a2.59 2.59 0 0 0 2.862 2.438 2.59 2.59 0 0 0-2.257 3.115c.277 1.326 1.609 2.164 2.955 2.02l4.699-.503-3.188.342c-1.245.133-2.297 1.097-2.401 2.345a2.592 2.592 0 0 0 2.856 2.815l3.166-.339c-2.055 1.348-4.122 2.711-4.09 3.861.02.764.566 3.193 3.759 2.627 2.05-.364 5.254-3.196 7.289-5.18a54.72 54.72 0 0 0 1.733-1.76l.002-.003c4.48-6.732 1.993-16.21-5.759-19.619a8.077 8.077 0 0 0-4.112-.637l-3.96.424z" fill="#EABBA5"/><path d="M931.965 144.722l54.155 85.212" stroke="#4B3726" stroke-width="17.093" stroke-linecap="round"/><path d="M968.107 201.59l18.013 28.344" stroke="#EABBA5" stroke-width="17.093"/><path d="M976.485 214.774l18.803 29.586" stroke="#EABBA5" stroke-width="17.093" stroke-linecap="round"/><path d="M1011.725 248.605c.867 1.136.71 2.854-.348 3.816a2.59 2.59 0 0 1-3.63-.49l.863 1.133c.85 1.115.778 2.751-.291 3.658a2.59 2.59 0 0 1-3.74-.401 2.59 2.59 0 0 1-.71 3.78c-1.153.71-2.676.32-3.498-.758l-2.865-3.757 1.945 2.55c.759.996.782 2.423-.054 3.356a2.593 2.593 0 0 1-4.008-.14l-1.93-2.531c.433 2.419.865 4.856.008 5.625-.568.51-2.708 1.783-4.491-.925-1.145-1.739-1.292-6.012-1.25-8.855.017-1.152.062-2.055.088-2.468v-.003c1.81-7.882 10.4-12.592 18.207-9.305a8.082 8.082 0 0 1 3.289 2.547l2.415 3.168z" fill="#EABBA5"/><path d="M884.104 440.785c2.705-.671 4.334-3.406 3.694-6.118-1.905-8.08-9.24-8.151-17.94-8.483-8.697-.332-16.017-.82-18.533 7.09-.845 2.656.571 5.507 3.217 6.383l2.313.766a44.822 44.822 0 0 0 24.884.95l2.365-.588z" fill="#565445"/><path d="M874.356 262.19c12.788.488 22.76 11.251 22.271 24.04l-.296 7.763c-.011.076-9.952 78.858-11.505 119.528-.777 20.345-8.106 24.544-15.258 24.075-7.151-.469-14.124-5.604-13.377-25.169 1.494-39.128-5.874-127.966-5.874-127.966.489-12.788 11.251-22.759 24.04-22.27" fill="#4B3726"/><path d="M871.847 446.664c2.704-.672 4.334-3.406 3.694-6.119-1.905-8.08-9.24-8.15-17.94-8.482-8.698-.332-16.018-.821-18.534 7.09-.844 2.656.572 5.506 3.217 6.382l2.313.766a44.822 44.822 0 0 0 24.884.95l2.366-.587z" fill="#565445"/><path d="M871.847 446.664l3.78-2.512a24.326 24.326 0 0 1 5.83-2.836l4.62-1.526-1.845-9.866-.362.273a16.39 16.39 0 0 1-8.109 3.221c-1.506.164-3.03.132-4.522-.13a46.611 46.611 0 0 1-3.303-.705l-10.256-2.58-3.609-1.231-12.356 5.97M969.401 429.369c-2.753.432-5.317-1.454-5.78-4.202-1.385-8.185 5.347-11.101 13.233-14.787s14.44-6.98 19.832-.668c1.81 2.119 1.614 5.295-.484 7.13l-1.833 1.604a44.82 44.82 0 0 1-22.56 10.545l-2.408.378z" fill="#565445"/><path d="M909.87 260.607c-11.593 5.42-16.599 19.21-11.18 30.804l3.29 7.038c.04.065 39.812 68.795 57.045 105.665 8.621 18.446 17.006 19.466 23.413 16.255 6.407-3.21 10.837-10.652 2.547-28.388-16.58-35.474-44.311-120.194-44.311-120.194-5.42-11.593-19.21-16.599-30.804-11.18" fill="#4B3726"/><path d="M982.98 430.023c-2.754.432-5.317-1.454-5.781-4.203-1.384-8.184 5.347-11.1 13.233-14.787 7.886-3.686 14.441-6.98 19.833-.668 1.81 2.12 1.613 5.296-.484 7.13l-1.834 1.605a44.82 44.82 0 0 1-22.56 10.544l-2.407.379z" fill="#565445"/><path d="M982.98 430.023l-4.459-.846a24.32 24.32 0 0 0-6.474-.348l-4.851.39-2.133-9.809.44.112a16.39 16.39 0 0 0 8.723-.183 16.08 16.08 0 0 0 4.117-1.877c.945-.61 1.87-1.255 2.769-1.932l8.448-6.364 2.846-2.536 13.705.7" fill="#565445"/><path d="M892.738 110.932l-20.601 1.688c1.485 18.129-4.149 20.25-4.149 20.25.746 9.102 8.367 11.445 17.469 10.7 9.102-.746 16.24-4.298 15.494-13.4 0 0-6.727-1.108-8.213-19.238" fill="#CB9A81"/><path d="M932.403 198.409c2.453-14.637 3.484-29.334 3.842-44.024.121-4.98 3.165-14.225 3.165-14.225s-5.496-12.69-38.459-9.99c.746 9.102-6.392 12.654-15.494 13.4-9.103.745-16.723-1.598-17.469-10.7-32.962 2.7-37.01 16.172-37.01 16.172s4.508 8.626 5.438 13.52c2.743 14.436 6.153 28.769 10.954 42.811l.461 1.348a157.712 157.712 0 0 1 4.416 39.987l-1.87 40.515 92.377-7.567-8.437-39.67a157.698 157.698 0 0 1-2.15-40.173l.236-1.404z" fill="#7F5C2D"/><path d="M889.696 145.772c14.521-3.791 17.435-15.51 17.525-15.946l-6.276.374 2.82.525-2.814-.555c-.07.3-1.82 7.398-12.726 10.246l-2.768 3.153 4.239 2.203zM881.621 146.405c-14.944-1.378-19.726-12.467-19.886-12.883l6.253-.652-2.696.977 2.685-1.005c.117.286 3 7.003 14.224 8.038l3.255 2.69-3.835 2.835z" fill="#4B3726"/><path d="M777.421 249.768l-43.58-35.376-18.431 22.705 43.58 35.376c1.857 1.507 7.487-2.355 12.577-8.625s7.71-12.573 5.854-14.08" fill="#FDA101"/><path d="M727.986 228.472c-5.09 6.27-10.72 10.131-12.576 8.625-1.856-1.507.765-7.811 5.855-14.081 5.09-6.27 10.72-10.13 12.575-8.624 1.857 1.507-.765 7.81-5.854 14.08" fill="#A1A7A7"/><path d="M724.625 225.744c-1.93 2.379-4.067 3.844-4.77 3.272-.705-.572.29-2.963 2.22-5.341 1.931-2.38 4.067-3.844 4.771-3.272.704.57-.29 2.963-2.22 5.341" fill="#5A6566"/><path d="M725.9 226.78c-1.93 2.377-4.067 3.843-4.77 3.271-.705-.572.29-2.963 2.22-5.341 1.931-2.38 4.067-3.844 4.771-3.273.704.572-.29 2.964-2.22 5.342z" stroke="#A1A7A7" stroke-width=".538"/><path d="M738.174 242.985c1.325 1.076 2.268 1.003 2.978.128.732-.9.598-1.825-.727-2.9l-1.953-1.586-2.25 2.773 1.952 1.585zm3.043-4.418c1.23.997 2.17.9 2.835.08.654-.806.546-1.732-.697-2.742l-1.612-1.308-2.151 2.65 1.625 1.32zm-.467-6.18c.344-.424.665-.457 1.089-.113l2.718 2.206c2.472 2.007 2.469 4.02 1.283 5.482-.644.792-1.554 1.3-2.745 1.036.816 1.341.576 2.53-.245 3.54-1.485 1.83-3.474 1.824-5.878-.127l-3.005-2.44c-.424-.343-.457-.665-.113-1.088l6.896-8.496zM749.424 239.428c.344-.423.666-.457 1.089-.113l.492.399c.423.344.456.665.113 1.089l-6.897 8.496c-.343.423-.665.457-1.088.113l-.492-.4c-.424-.343-.457-.665-.113-1.088l6.896-8.496zM753.085 242.4c.344-.424.665-.458 1.089-.114l5.053 4.102c.423.344.457.666.113 1.09l-.2.245c-.343.424-.665.457-1.088.114l-3.961-3.216-2.118 2.61 2.91 2.36c.314.255.419.545.186.832a1.395 1.395 0 0 1-.44.346c-.578.322-.987.24-1.425-.115l-2.417-1.963-2.218 2.732 3.961 3.216c.424.344.457.665.113 1.089l-.2.245c-.343.424-.665.457-1.088.113l-5.054-4.102c-.423-.344-.457-.665-.113-1.089l6.897-8.496zM760.139 255.037c1.79 1.452 2.882 1.501 3.825.34.942-1.16.659-2.207-1.13-3.66l-1.093-.887-2.695 3.32 1.093.887zm.595-6.428c.344-.424.665-.457 1.09-.113l2.143 1.74c2.623 2.13 3.517 4.35 1.742 6.535-1.108 1.366-2.449 1.706-3.935 1.247l-1 4.582a.895.895 0 0 1-.192.432c-.189.233-.457.173-.69-.015l-.655-.533c-.396-.32-.518-.646-.421-1.044l1.006-4.394c-.254-.161-.58-.403-.866-.636l-1.052-.853-2.373 2.923c-.343.423-.665.457-1.089.113l-.491-.4c-.424-.343-.457-.665-.113-1.088l6.896-8.496zM712.204 261.797c.167 2.12-.874 3.932-2.325 4.047-1.452.114-2.763-1.513-2.93-3.634-.168-2.12.874-3.932 2.325-4.047 1.452-.114 2.763 1.513 2.93 3.634" fill="#FFF"/><path d="M712.204 261.797c.167 2.12-.874 3.932-2.325 4.047-1.452.114-2.763-1.513-2.93-3.634-.168-2.12.874-3.932 2.325-4.047 1.452-.114 2.763 1.513 2.93 3.634z" stroke="#A1A7A7" stroke-width=".519"/><path d="M711.222 281.863c.167 2.121-.434 3.898-1.344 3.97-.908.071-1.78-1.59-1.947-3.711-.167-2.12.434-3.898 1.344-3.97.908-.071 1.78 1.59 1.947 3.711" fill="#FFF"/><path d="M711.222 281.863c.167 2.121-.434 3.898-1.344 3.97-.908.071-1.78-1.59-1.947-3.711-.167-2.12.434-3.898 1.344-3.97.908-.071 1.78 1.59 1.947 3.711z" stroke="#A1A7A7" stroke-width=".519"/><path d="M721.133 225.29a3.85 3.85 0 0 0-3.73 2.904c-.041-.001-.081-.006-.122-.006a3.842 3.842 0 0 0-3.039 1.49 3.843 3.843 0 0 0-3.039-1.49 3.852 3.852 0 0 0-3.852 3.852c0 .84.271 1.614.728 2.247a3.853 3.853 0 0 0-2.355 3.55c0 .493.097.963.266 1.396a3.85 3.85 0 0 0 .983 5.752c-.044.356-.055.73-.025 1.115.167 2.121 1.48 3.747 2.93 3.634 1.452-.115 2.493-1.927 2.326-4.048a5.618 5.618 0 0 0-.11-.755 3.836 3.836 0 0 0 3.58-4.148 3.85 3.85 0 0 0 3.43-2.75c.257-.87.19-1.758-.127-2.538a3.854 3.854 0 0 0 2.033-2.507c.041 0 .082.005.123.005a3.852 3.852 0 1 0 0-7.703" fill="#FFF"/><path d="M721.133 225.29a3.85 3.85 0 0 0-3.73 2.904c-.041-.001-.081-.006-.122-.006a3.842 3.842 0 0 0-3.039 1.49 3.843 3.843 0 0 0-3.039-1.49 3.852 3.852 0 0 0-3.852 3.852c0 .84.271 1.614.728 2.247a3.853 3.853 0 0 0-2.355 3.55c0 .493.097.963.266 1.396a3.85 3.85 0 0 0 .983 5.752c-.044.356-.055.73-.025 1.115.167 2.121 1.48 3.747 2.93 3.634 1.452-.115 2.493-1.927 2.326-4.048a5.618 5.618 0 0 0-.11-.755 3.836 3.836 0 0 0 3.58-4.148 3.85 3.85 0 0 0 3.43-2.75c.257-.87.19-1.758-.127-2.538a3.854 3.854 0 0 0 2.033-2.507c.041 0 .082.005.123.005a3.852 3.852 0 1 0 0-7.703z" stroke="#A1A7A7" stroke-width=".519"/><path d="M899.652 90.678l-1.356-10.916s.852-1.096 2.11.664c1.126 1.576 1.23 3.135.895 4.99-.334 1.854.542 4.844-1.649 5.262M858.38 98.551l-2.758-10.648s-1.195-.705-1.717 1.394c-.467 1.88.01 3.367 1.005 4.969.993 1.602 1.279 4.703 3.47 4.285" fill="#D0A694"/><path d="M890.99 58.262c-3.924-2.72-12.01-5.854-19.744-4.378-7.734 1.475-14.1 7.366-16.746 11.34-4.167 6.253-1.081 14.944-1.081 14.944s4.763 23.038 9.471 28.403c4.707 5.364 13.224 13.318 21.045 11.826 7.82-1.492 12.811-12.023 15.213-18.744 2.402-6.72-1.651-29.894-1.651-29.894s-.331-9.216-6.507-13.497" fill="#EABBA5"/><path d="M891.367 60.237l-1.574 8.33s-2.29-8.648-5.294-8.97l4.33-3.641 2.538 4.281zM876.728 58.264l1.995 10.623s-7.193-6.432-6.138-9.832c1.054-3.4 4.143-.79 4.143-.79M865.548 62.455l1.94 8.576s4.061-4.87 2.207-9.89c-1.853-5.02-4.147 1.314-4.147 1.314M854.5 65.224s.842 4.413 3.867 7.547l1.746-9.545" fill="#AF8741"/><path d="M849.14 75.246s2.442-14.028 7.392-16.252c2.377-1.068 7.086-3.23 11.337-5.19 6.878-3.17 14.831-3.345 21.711-.18 1.065.49 2.034 1.022 2.826 1.597 4.751 3.444 1.242 16.396 1.242 16.396s-1.582-11.47-4.38-12.727c-2.8-1.257-5.158 14.547-5.158 14.547s-5.484-12.26-7.565-12.631c-2.081-.371-3.432 12.937-3.432 12.937s-4.62-7.05-5.127-11.048c-.507-3.998-3.888 11.233-3.888 11.233s-5.823-5.798-5.201-9.244c.622-3.445-9.756 10.562-9.756 10.562" fill="#AF8741"/><path d="M868.362 87.783a1.913 1.913 0 1 1-3.758.717 1.913 1.913 0 0 1 3.758-.717M890.336 83.591a1.913 1.913 0 1 1-3.758.717 1.913 1.913 0 0 1 3.758-.717" fill="#424545"/><path d="M873.34 108.854c3.675-6.573 10.475-5.994 13.952-1.979" fill="#A7403B"/><path d="M877.124 91.137s-1.997 3.743-1.917 6.301c.03.915.908 1.568 1.809 1.397l.492-.094c-.537-2.82-.384-7.604-.384-7.604" fill="#D0A694"/><path d="M864.732 84.204l4.773 2.043M884.768 83.334l3.239-3.586" stroke="#424545" stroke-width=".65"/><path d="M898.49 44.136a52.338 52.338 0 0 1 11.394 30.852M908.082 48.34c3.572 6.047 5.128 9.77 6.373 17.256M840.198 85.98a52.644 52.644 0 0 1-.856-13.23 52.055 52.055 0 0 1 3.797-16.669M834.759 81.757a34.122 34.122 0 0 1-.555-8.57 33.71 33.71 0 0 1 2.46-10.796" stroke="#485253" stroke-width="1.95" stroke-linecap="round"/><path d="M888.997 56.375a3.146 3.146 0 0 1-6.267-.555M888.338 66.45a3.146 3.146 0 0 1 3.52-5.215M880.28 60.688a3.146 3.146 0 0 1 2.426 5.805" stroke="#485253" stroke-width="1.287" stroke-linecap="round"/></g></g></g></svg>