<svg width="1249" height="1049" xmlns="http://www.w3.org/2000/svg" xmlns:xlink="http://www.w3.org/1999/xlink"><defs><path id="a" d="M1.804 1.288h52.164v56.081H1.804z"/><path id="c" d="M.153.34h80.063v37.433H.153z"/><path id="e" d="M.855.34h80.063v37.433H.855z"/><path d="M114.807 18.528c-19.087 0-34.56.977-34.56-18.083C11.126.445.398 27.778.398 27.778s7.916 18.714 9.02 29.049c3.25 30.495 7.907 60.892 15.512 90.921l.731 2.88c4.377 27.848 5.174 55.962 2.375 83.928l-10.806 83.956h193.71l-10.808-83.956a328.686 328.686 0 0 1 2.377-83.929l.73-2.879c7.606-30.03 12.263-60.426 15.514-90.921 1.103-10.335 9.019-29.05 9.019-29.05S218.489.446 149.368.446c0 19.06-15.474 18.083-34.561 18.083z" id="g"/><path d="M114.807 18.528c-19.087 0-34.56.977-34.56-18.083C11.126.445.398 27.778.398 27.778s7.916 18.714 9.02 29.049c3.25 30.495 7.907 60.892 15.512 90.921l.731 2.88c4.377 27.848 5.174 55.962 2.375 83.928l-10.806 83.956h193.71l-10.808-83.956a328.686 328.686 0 0 1 2.377-83.929l.73-2.879c7.606-30.03 12.263-60.426 15.514-90.921 1.103-10.335 9.019-29.05 9.019-29.05S218.489.446 149.368.446c0 19.06-15.474 18.083-34.561 18.083" id="i"/><path d="M114.807 18.528c-19.087 0-34.56.977-34.56-18.083C11.126.445.398 27.778.398 27.778s7.916 18.714 9.02 29.049c3.25 30.495 7.907 60.892 15.512 90.921l.731 2.88c4.377 27.848 5.174 55.962 2.375 83.928l-10.806 83.956h193.71l-10.808-83.956a328.686 328.686 0 0 1 2.377-83.929l.73-2.879c7.606-30.03 12.263-60.426 15.514-90.921 1.103-10.335 9.019-29.05 9.019-29.05S218.489.446 149.368.446c0 19.06-15.474 18.083-34.561 18.083z" id="k"/><path d="M114.807 18.528c-19.087 0-34.56.977-34.56-18.083C11.126.445.398 27.778.398 27.778s7.916 18.714 9.02 29.049c3.25 30.495 7.907 60.892 15.512 90.921l.731 2.88c4.377 27.848 5.174 55.962 2.375 83.928l-10.806 83.956h193.71l-10.808-83.956a328.686 328.686 0 0 1 2.377-83.929l.73-2.879c7.606-30.03 12.263-60.426 15.514-90.921 1.103-10.335 9.019-29.05 9.019-29.05S218.489.446 149.368.446c0 19.06-15.474 18.083-34.561 18.083z" id="m"/><path d="M116.96 11.972c-18.035.457-36.712-1.56-36.712-11.527C11.125.445.398 27.778.398 27.778s7.915 18.714 9.018 29.049c3.251 30.495 7.908 60.892 15.513 90.921l.731 2.88c4.377 27.848 5.174 55.962 2.375 83.928l-10.806 83.956h193.71l-10.808-83.956a328.686 328.686 0 0 1 2.377-83.929l.73-2.879c7.606-30.03 12.263-60.426 15.514-90.921 1.103-10.335 9.019-29.05 9.019-29.05S218.489.446 149.368.446c0 9.09-15.958 11.107-32.407 11.527z" id="o"/><path d="M116.96 11.972c-18.035.457-36.712-1.56-36.712-11.527C11.125.445.398 27.778.398 27.778s7.915 18.714 9.018 29.049c3.251 30.495 7.908 60.892 15.513 90.921l.731 2.88c4.377 27.848 5.174 55.962 2.375 83.928l-10.806 83.956h193.71l-10.808-83.956a328.686 328.686 0 0 1 2.377-83.929l.73-2.879c7.606-30.03 12.263-60.426 15.514-90.921 1.103-10.335 9.019-29.05 9.019-29.05S218.489.446 149.368.446c0 9.09-15.958 11.107-32.407 11.527z" id="q"/><path id="s" d="M.018.033h98.65v416.782H.019z"/><path id="u" d="M.573.49h1248v.65H.573z"/></defs><g fill="none" fill-rule="evenodd"><g><g><g><path d="M375.287 279.888l20.245-5.41c3.654-.978 3.875-6.075.319-7.364l-5.537-2.004a24.82 24.82 0 0 0-16.458-.161l-17.822 6.064" fill="#121D23"/><path d="M374.21 293.477s3.127 8.1 3.127 14.048c0 5.945-6.256 6.159-6.256 6.159" fill="#EDB39D"/><path d="M284.946 311.061l-1.492-22.91s-2.178-1.913-4.07 2.188c-1.695 3.672-1.297 6.908.115 10.58 1.412 3.672.786 10.142 5.447 10.142" fill="#C69683"/><path d="M168.873 697.405c-.66 2.91 1.128 6.035 3.974 6.944a5.415 5.415 0 0 0 6.476-4.076l-.658 2.896c-.649 2.854.91 5.9 3.732 6.694a5.415 5.415 0 0 0 6.758-4.006 5.408 5.408 0 0 0 4.632 6.564c2.81.347 5.367-1.716 5.993-4.473l2.183-9.618-1.481 6.526c-.578 2.55.618 5.278 3.015 6.325 3.228 1.41 6.76-.487 7.498-3.74l1.471-6.48c1.278 4.97 2.574 9.97 4.869 10.686 1.523.477 6.697 1.039 7.735-5.649.668-4.296-2.765-12.534-5.312-17.894a115.947 115.947 0 0 0-2.312-4.614c-10.282-13.395-30.705-14.887-42.691-1.88a16.857 16.857 0 0 0-4.041 7.688l-1.841 8.107z" fill="#E5AE95"/><path d="M202.863 659.66c-.65 0-1.305-.036-1.967-.11-9.805-1.07-16.885-9.879-15.809-19.672l22.972-209.467c1.076-9.792 9.881-16.895 19.7-15.79 9.808 1.073 16.885 9.88 15.814 19.674l-22.977 209.469c-1.002 9.13-8.742 15.896-17.733 15.896" fill="#1F303D"/><path fill="#E5AE95" d="M220.596 643.763l-35.511-3.886 7.643-69.674 35.51 3.887z"/><path d="M198.974 695.123c-.65 0-1.305-.036-1.967-.11-9.805-1.07-16.885-9.879-15.81-19.672l7.976-72.73c1.076-9.791 9.88-16.88 19.7-15.787 9.805 1.07 16.885 9.88 15.811 19.674l-7.977 72.729c-1.002 9.13-8.74 15.896-17.733 15.896" fill="#E5AE95"/><path d="M552.628 501.493c-2.167 0-4.371-.395-6.51-1.234l-131.12-51.298c-9.185-3.592-13.714-13.942-10.116-23.114 3.597-9.17 13.963-13.695 23.146-10.1l131.12 51.297c9.186 3.593 13.714 13.942 10.116 23.115-2.76 7.034-9.5 11.334-16.636 11.334" fill="#1F303D"/><path fill="#E5AE95" d="M569.263 490.158l-33.26-13.013 25.6-65.26 33.264 13.012z"/><path d="M564.536 471.138c-2.166 0-4.37-.394-6.51-1.234-9.185-3.592-13.715-13.94-10.116-23.114l26.726-68.121c3.597-9.173 13.957-13.701 23.146-10.103 9.185 3.593 13.714 13.943 10.116 23.115l-26.725 68.123c-2.76 7.035-9.5 11.334-16.637 11.334" fill="#E5AE95"/><path fill="#E5AE95" d="M542.517 460.538l-.007.017 13.918 5.425zM542.467 460.538l-8.88 22.72.015.005 8.907-22.708z"/><path d="M568.119 395.276l-25.601 65.263 13.909 5.441-13.918-5.424-8.907 22.708-4.115 10.49 16.635 6.507a17.799 17.799 0 0 0 6.506 1.232c4.95 0 9.679-2.107 13.051-5.725 1.488-1.596 2.738-3.456 3.583-5.609l2.68-6.824 29.44-75.046-33.263-13.013z" fill="#E5AE95"/><g transform="translate(569.364 337.597)"><mask id="b" fill="#fff"><use xlink:href="#a"/></mask><path d="M8.61 12.593c.962-2.553 3.904-4.037 6.532-3.3a4.942 4.942 0 0 1 2.888 6.366l4.165-10.922c.945-2.506 3.669-4.042 6.222-3.232a4.941 4.941 0 0 1 3.137 6.455 4.952 4.952 0 0 1 6.844-2.678c2.32 1.148 3.232 4.008 2.318 6.428l-1.654 4.537c.845-2.237 3.134-3.719 5.491-3.312a4.947 4.947 0 0 1 3.837 6.625l-7.85 20.58c4.08-12.379 7.25-14.905 9.424-14.584 2.402.357 5.634 2.577 3.054 8.203-1.656 3.611-8.753 17.05-13.399 19.858a109.322 109.322 0 0 1-4.087 2.358h-.004c-14.6 5.051-30.939-4.081-33.526-20.034-.43-2.657-.157-5.38.795-7.899l5.812-15.449z" fill="#E3AB93" mask="url(#b)"/></g><path fill="#152128" d="M309.004 1013.25l-11.566-2.399-3.02 11.265zM286.108 1035.977c5.596-1.616 8.78-7.447 7.227-13.054-4.623-16.698-17.652-11.372-38.142-16.264-17.694-4.224-33.517-.434-38.14 16.264-1.553 5.607 1.63 11.438 7.226 13.054l4.892 1.413a93.816 93.816 0 0 0 52.045 0l4.892-1.413z"/><path d="M275.684 666.507c26.746 0 48.429 21.652 48.429 48.36v16.216c-.017.158-14.498 165.256-14.498 250.196 0 42.495-14.972 51.835-29.945 51.426-14.972-.407-29.944-10.564-29.944-51.426 0-81.723-22.468-266.413-22.468-266.413 0-26.707 21.68-48.36 48.426-48.36" fill="#192930"/><g transform="translate(239.447 1011.21)"><mask id="d" fill="#fff"><use xlink:href="#c"/></mask><path d="M78.982 11.049c-1.736-3.545-4.745-7.15-7.363-8.472-2.101-1.06-5.323-.522-8.151.376-2.974.942-6.09 1.353-9.21 1.362l-1.388.002c-2.191-.021-4.442-.015-6.739-.015-5.36 0-10.463-.031-15.121.346a23.934 23.934 0 0 1-7.025-.472C15.489 2.321 10.309.34 10.309.34L.153 12.654l9.454 3.668a25.108 25.108 0 0 0-1.59 4.14c-1.585 5.63 1.701 11.57 7.329 13.194l4.762 1.376c16.267 4.697 33.487 2.8 49.836-1.49 2.57-.675 4.951-2.041 6.682-4.052a11.371 11.371 0 0 0 2.072-3.477c2.308-6.262 1.635-13.634.284-14.964" fill="#152128" mask="url(#d)"/></g><path fill="#152128" d="M339.22 1013.25l11.565-2.399 3.02 11.265zM362.115 1035.977c-5.596-1.616-8.78-7.447-7.227-13.054 4.623-16.698 17.652-11.372 38.142-16.264 17.694-4.224 33.517-.434 38.14 16.264 1.553 5.607-1.63 11.438-7.226 13.054l-4.892 1.413a93.816 93.816 0 0 1-52.045 0l-4.892-1.413z"/><path d="M372.539 666.507c-26.746 0-48.429 21.652-48.429 48.36v16.216c.017.158 14.498 165.256 14.498 250.196 0 42.495 14.972 51.835 29.945 51.426 14.972-.407 29.944-10.564 29.944-51.426 0-81.723 22.468-266.413 22.468-266.413 0-26.707-21.68-48.36-48.426-48.36" fill="#192930"/><g transform="translate(327.705 1011.21)"><mask id="f" fill="#fff"><use xlink:href="#e"/></mask><path d="M2.089 11.049c1.736-3.545 4.745-7.15 7.363-8.472 2.101-1.06 5.323-.522 8.151.376 2.974.942 6.09 1.353 9.21 1.362l1.388.002c2.191-.021 4.442-.015 6.739-.015 5.36 0 10.462-.031 15.121.346 2.352.19 4.722.032 7.025-.472C65.582 2.321 70.762.34 70.762.34l10.156 12.314-9.454 3.668a25.108 25.108 0 0 1 1.59 4.14c1.585 5.63-1.702 11.57-7.33 13.194l-4.76 1.376c-16.268 4.697-33.488 2.8-49.837-1.49-2.57-.675-4.951-2.041-6.683-4.052a11.371 11.371 0 0 1-2.072-3.477C.065 19.751.738 12.379 2.09 11.049" fill="#152128" mask="url(#f)"/></g><path d="M345.571 355.384l-43.2-4.913c0 37.964-12.096 46.328-12.096 46.328 0 19.06 15.473 25.232 34.56 25.232 19.086 0 34.561-6.171 34.561-25.232 0 0-13.825-3.452-13.825-41.415" fill="#E5AE95"/><path d="M413.265 544.1c7.607-30.026 12.264-60.423 15.515-90.918 1.101-10.337 9.019-29.05 9.019-29.05s-9.284-27.332-78.405-27.332c0 9.09-15.955 11.105-32.405 11.525-18.038.46-36.715-1.557-36.715-11.525-69.121 0-79.85 27.332-79.85 27.332s7.917 18.713 9.02 29.05c3.251 30.495 7.906 60.892 15.513 90.919l.731 2.881a328.776 328.776 0 0 1 2.375 83.929l-10.806 83.956h193.71l-10.807-83.956a328.681 328.681 0 0 1 2.376-83.929l.73-2.881z" fill="#1F303D"/><path d="M365.706 254.7c-7.613-7.11-24.36-8.304-42.282-8.304-17.925 0-28.364 1.194-35.978 8.303-11.984 11.192-8.792 30.214-8.792 30.214s5.634 38.142 10.921 52.64c5.224 14.33 26.866 24.066 44.644 20.55 18.564-3.673 23.458-8.846 31.697-21.684 8.238-12.841 8.582-51.506 8.582-51.506s3.192-19.022-8.792-30.214" fill="#E5AE95"/><path d="M363.566 298.033c0 3.139-1.853 13.027-4.142 13.027-2.286 0-2.04-9.888-2.04-13.027 0-3.14-.246-8.997 2.04-8.997 2.289 0 4.142 5.857 4.142 8.997" fill="#C69683"/><path d="M278.104 281.378c.522 4.476 2.703 8.698 6.357 11.345.265.193.528.398.782.617 2.656 2.285 12.856 4.004 15.556 8.629 2.619 4.484 14.315-5.035 20.569-7.65 6.436-2.69 16.85-5.829 22.237-3.989 2.725 1.612 11.786.827 13.301.663 6.531-.707 10.053-4.94 13.033-10.788l3.043-15.667-3.703-12.343-39.35 1.04-52.033 26.349.208 1.794z" fill="#5B3513"/></g><g><g transform="translate(210.028 396.354)"><mask id="h" fill="#fff"><use xlink:href="#g"/></mask><path fill="#BDF49D" mask="url(#h)" d="M149.049 62.666h-270.93v14.162h271.566z"/></g><g transform="translate(210.028 396.354)"><mask id="j" fill="#fff"><use xlink:href="#i"/></mask><path d="M141.996 104.149l-.538-11.962H-121.88v24.12h263.93c.126-4.052.13-8.11-.053-12.158" fill="#BDF49D" mask="url(#j)"/></g><g transform="translate(210.028 396.354)"><mask id="l" fill="#fff"><use xlink:href="#k"/></mask><path fill="#BDF49D" mask="url(#l)" d="M127.48 62.666v10.887l.147 3.275h231.234V62.666z"/></g><g transform="translate(210.028 396.354)"><mask id="n" fill="#fff"><use xlink:href="#m"/></mask><path d="M128.319 92.187l.496 11.02c.195 4.36.193 8.733.071 13.1h229.975v-24.12H128.32z" fill="#BDF49D" mask="url(#n)"/></g></g><path d="M375.1 268.027a14.465 14.465 0 0 0-.064-1.169c-.809-8.26-3.339-18.469-3.341-18.47-1.595-11.358-10.007-18.797-18.965-23.573-12.987-6.923-28.163-8.476-42.488-5.091-13.949 3.297-31.014 10.387-33.132 25.455-3.648 25.96.994 36.198.994 36.198s16.495-1.408 43.862-1.408c17.576 0 31.701.867 39.558 1.488a36.424 36.424 0 0 0 13.762-1.57l-.187-11.86z" fill="#1F303D"/><g><g transform="translate(210.028 396.354)"><mask id="p" fill="#fff"><use xlink:href="#o"/></mask><path d="M21.05 158.663c15.392 0 33.186-4.908 53.79-10.597 25.11-6.925 53.569-14.78 82.707-14.78 27.385 0 44.42 6.923 60.896 13.621 14.224 5.777 28.932 11.756 47.943 11.756v-25.257c-14.06 0-24.805-4.367-38.41-9.897-17.855-7.257-38.097-15.48-70.43-15.48-32.569 0-62.782 8.337-89.44 15.692-18.833 5.196-35.096 9.685-47.057 9.685v25.257z" fill="#AAAFAE" mask="url(#p)"/></g><g transform="translate(210.028 396.354)"><mask id="r" fill="#fff"><use xlink:href="#q"/></mask><path d="M168.062 127.678c1.69-2.526 41.416-62.596 41.416-125.336h-25.292c0 55.156-36.78 110.743-37.153 111.297l21.029 14.04z" fill="#AAAFAE" mask="url(#r)"/></g></g><g><path d="M378.968 385.549h55.784a5.618 5.618 0 0 0 5.62-5.614v-44.234c0-3.1-2.517-5.613-5.62-5.613h-55.784a5.618 5.618 0 0 0-5.62 5.613v44.234c0 3.1 2.517 5.614 5.62 5.614" fill="#919898"/><path d="M402.71 404.489a11.728 11.728 0 0 0 8.497 0v-18.937h-8.496v18.937zM428.127 353.764H386.58a4.461 4.461 0 0 1-4.466-4.459 4.461 4.461 0 0 1 4.466-4.46h41.548a4.461 4.461 0 0 1 4.466 4.46 4.461 4.461 0 0 1-4.466 4.46" fill="#1D1E1E"/></g></g><g><path fill="#919898" d="M838.468 450.774h184.3v-417.3h-184.3z"/><path fill="#FFF" d="M838.467 33.474v416.783l98.652-27.648V33.474z"/><g transform="translate(838.45 33.442)"><mask id="t" fill="#fff"><use xlink:href="#s"/></mask><path stroke="#A1A7A7" stroke-width=".712" mask="url(#t)" d="M.017 416.815l98.652-27.648V-17.388L.017.032"/></g><path fill="#FFF" d="M1029.148 514.607H835.926l19.901-46.8h153.42z"/><path stroke="#A1A7A7" d="M1029.148 514.607H835.926l19.901-46.8h153.42z"/><path stroke="#A1A7A7" stroke-width=".712" d="M838.468 450.257h184.3V33.474h-184.3z"/><path d="M304.398 297.896h227.864V33.607H304.398v264.29zm.65-.65h226.564V34.257H305.048v262.99z" fill="#A1A7A7"/><path d="M418.33 33.607v251.888M532.262 159.551H304.399M532.262 285.495H304.399M667.94 198.463h46.15v-56.55h-46.15z" stroke="#A1A7A7"/><g stroke="#A1A7A7"><path d="M706.317 169.803c0 8.36-6.776 15.136-15.135 15.136-8.36 0-15.137-6.776-15.137-15.136s6.777-15.136 15.137-15.136c8.359 0 15.135 6.776 15.135 15.136z"/><path d="M701.256 169.803c0 5.564-4.51 10.075-10.075 10.075-5.564 0-10.075-4.511-10.075-10.075 0-5.564 4.511-10.075 10.075-10.075 5.564 0 10.075 4.511 10.075 10.075zM655.431 94.403h68.25v-40.95h-68.25z"/></g><text font-family="Relative-Book, Relative" font-size="18.2" font-weight="300" letter-spacing="-.008" fill="#A1A7A7" transform="translate(-1 1)"><tspan x="673.56" y="78.35">40</tspan></text><g><g transform="translate(-.05 450.092)"><mask id="v" fill="#fff"><use xlink:href="#u"/></mask><path d="M.573.49h1248" fill="#FFF" mask="url(#v)"/><path d="M.573.49h1248" stroke="#4B3726" mask="url(#v)"/></g><path d="M835.705 246.733l-53.696 40.718" stroke="#4B3726" stroke-width="17.093" stroke-linecap="round"/><path d="M782.005 287.531l-33.276-4.534" stroke="#EABBA5" stroke-width="17.093"/><path d="M766.528 285.422l-34.735-4.732" stroke="#EABBA5" stroke-width="17.093" stroke-linecap="round"/><path fill="#4B3726" d="M779.544 278.59l1.413 17.016 16.24-19.673z"/><path d="M723.4 265.104c-1.302-.59-2.941-.052-3.641 1.195a2.59 2.59 0 0 0 1.29 3.428l-1.295-.587c-1.278-.579-2.856-.14-3.5 1.105a2.59 2.59 0 0 0 1.23 3.553 2.59 2.59 0 0 0-3.526 1.54c-.433 1.284.29 2.68 1.524 3.24l4.304 1.948-2.921-1.322c-1.14-.516-2.536-.219-3.258.804a2.592 2.592 0 0 0 1.034 3.875l2.9 1.313c-2.454.12-4.926.247-5.483 1.254-.37.669-1.13 3.04 1.91 4.17 1.95.726 6.148-.09 8.908-.769a56.745 56.745 0 0 0 2.386-.639l.003-.001c7.275-3.53 9.937-12.96 4.984-19.83a8.072 8.072 0 0 0-3.22-2.634l-3.629-1.643z" fill="#EABBA5"/><path d="M927.956 262.783l46.553 89.592" stroke="#4B3726" stroke-width="17.093" stroke-linecap="round"/><path d="M959.025 322.574l15.484 29.8" stroke="#EABBA5" stroke-width="17.093"/><path d="M966.227 336.435l16.163 31.107" stroke="#EABBA5" stroke-width="17.093" stroke-linecap="round"/><path d="M998.396 373.198c.765 1.208.46 2.905-.677 3.772a2.59 2.59 0 0 1-3.574-.803l.762 1.202c.75 1.185.535 2.809-.61 3.62a2.59 2.59 0 0 1-3.689-.725 2.59 2.59 0 0 1-1.035 3.705c-1.211.607-2.695.086-3.42-1.06l-2.528-3.99 1.716 2.708c.67 1.058.568 2.481-.345 3.339a2.593 2.593 0 0 1-3.98-.487l-1.703-2.69c.221 2.448.439 4.914-.48 5.605-.612.458-2.854 1.541-4.395-1.311-.99-1.832-.764-6.102-.476-8.93.117-1.147.24-2.042.301-2.452l.001-.003c2.486-7.694 11.455-11.64 18.946-7.69a8.08 8.08 0 0 1 3.055 2.825l2.131 3.365z" fill="#EABBA5"/><path d="M807.243 537.323c2.787.03 5.05-2.207 5.113-4.994.186-8.3-6.896-10.21-15.233-12.718-8.336-2.507-15.297-4.819-19.72 2.206-1.485 2.358-.831 5.473 1.51 6.986l2.046 1.322a44.822 44.822 0 0 0 23.847 7.172l2.437.026z" fill="#565445"/><path d="M842.681 362.008c12.255 3.685 19.203 16.608 15.517 28.863l-2.238 7.44c-.029.07-29.446 73.829-41.168 112.803-5.863 19.498-14.013 21.72-20.817 19.47-6.804-2.251-12.263-8.974-6.624-27.723 11.277-37.498 26.467-125.337 26.467-125.337 3.686-12.255 16.608-19.202 28.863-15.516" fill="#4B3726"/><path d="M793.902 539.933c2.787.03 5.05-2.207 5.113-4.994.186-8.3-6.897-10.21-15.233-12.718-8.336-2.507-15.298-4.819-19.72 2.206-1.485 2.358-.831 5.473 1.51 6.986l2.046 1.322a44.822 44.822 0 0 0 23.847 7.172l2.437.026z" fill="#565445"/><path d="M793.902 539.933l4.29-1.481a24.313 24.313 0 0 1 6.355-1.28l4.857-.317.692-10.014-.42.175a16.396 16.396 0 0 1-8.657 1.08 16.09 16.09 0 0 1-4.345-1.262 46.37 46.37 0 0 1-3.019-1.512l-9.28-5.075-3.182-2.098-13.46 2.675M892.673 547.704c-2.774-.273-4.781-2.743-4.54-5.52.717-8.27 7.965-9.401 16.524-10.987 8.56-1.587 15.732-3.128 19.364 4.336 1.22 2.506.232 5.53-2.26 6.78l-2.178 1.092a44.822 44.822 0 0 1-24.485 4.538l-2.425-.239z" fill="#565445"/><path d="M877.454 369.399c-12.583 2.332-20.893 14.423-18.561 27.006l1.416 7.64c.021.073 21.249 76.59 28.666 116.607 3.71 20.02 11.569 23.115 18.577 21.617 7.01-1.498 13.166-7.588 9.598-26.838-7.135-38.502-12.69-127.472-12.69-127.472-2.332-12.582-14.423-20.893-27.006-18.56" fill="#4B3726"/><path d="M905.651 551.749c-2.773-.273-4.78-2.744-4.54-5.52.718-8.27 7.966-9.402 16.525-10.988 8.56-1.586 15.731-3.128 19.364 4.336 1.22 2.506.231 5.531-2.26 6.78l-2.179 1.093a44.822 44.822 0 0 1-24.485 4.538l-2.425-.24z" fill="#565445"/><path d="M905.651 551.749l-4.103-1.939a24.313 24.313 0 0 0-6.178-1.963l-4.794-.842.4-10.03.397.219a16.391 16.391 0 0 0 8.49 2.014 16.072 16.072 0 0 0 4.456-.782 46.582 46.582 0 0 0 3.166-1.175l9.775-4.036 3.393-1.74 13.09 4.121" fill="#565445"/><path d="M898.479 220.221l-20.365-3.543c-3.118 17.921-9.103 18.558-9.103 18.558-1.566 8.998 5.221 13.18 14.22 14.745 8.997 1.565 16.798-.078 18.363-9.076 0 0-6.233-2.763-3.115-20.684" fill="#CB9A81"/><path d="M914.891 314.857c6.052-13.551 10.743-27.518 14.78-41.646 1.369-4.789 6.638-12.974 6.638-12.974s-2.132-13.663-34.715-19.332c-1.565 8.997-9.366 10.642-18.364 9.076-8.998-1.565-15.785-5.747-14.22-14.745-32.583-5.669-39.886 6.353-39.886 6.353s2.195 9.484 1.867 14.453c-.972 14.662-1.274 29.393-.154 44.191l.107 1.42a157.737 157.737 0 0 1-5.772 39.814l-11.99 38.745 91.315 15.887 1.8-40.518a157.722 157.722 0 0 1 8.014-39.424l.58-1.3z" fill="#7F5C2D"/><path d="M886.78 253.179c15.008-.021 20.772-10.632 20.97-11.032l-6.17-1.215 2.597 1.217-2.583-1.244c-.143.274-3.62 6.704-14.892 6.72l-3.472 2.356 3.55 3.198z" fill="#4B3726"/><path d="M878.806 251.762c-14.12-5.089-15.962-17.023-16.012-17.465l6.217.939-2.856.268 2.852-.298c.041.306 1.143 7.532 11.748 11.354l2.475 3.421-4.424 1.781z" fill="#4B3726"/><path d="M637.729 269.543l-22.286-51.517-26.84 11.61 22.285 51.518c.95 2.194 7.728 1.373 15.14-1.833 7.41-3.206 12.65-7.584 11.7-9.778" fill="#FDA101"/><path d="M603.741 227.803c-7.412 3.207-14.19 4.027-15.138 1.833-.95-2.194 4.29-6.572 11.701-9.778 7.412-3.206 14.19-4.026 15.139-1.833.95 2.194-4.29 6.572-11.702 9.778" fill="#A1A7A7"/><path d="M602.023 223.83c-2.812 1.217-5.384 1.528-5.744.696-.36-.832 1.628-2.493 4.44-3.71 2.812-1.216 5.383-1.527 5.743-.695.36.833-1.627 2.494-4.44 3.71" fill="#5A6566"/><path d="M602.675 225.338c-2.812 1.216-5.384 1.527-5.744.695-.36-.832 1.628-2.493 4.44-3.71 2.812-1.216 5.383-1.527 5.743-.695.36.833-1.627 2.494-4.44 3.71z" stroke="#A1A7A7" stroke-width=".538"/><path d="M606.065 245.383c.677 1.566 1.548 1.937 2.58 1.49 1.067-.46 1.375-1.342.698-2.909l-.999-2.308-3.278 1.418 1 2.309zm4.741-2.511c.629 1.453 1.508 1.801 2.477 1.382.953-.412 1.284-1.284.648-2.754l-.824-1.905-3.132 1.355.831 1.922zm2.444-5.695c.5-.218.8-.099 1.017.403l1.39 3.212c1.264 2.923.33 4.707-1.397 5.455-.937.405-1.979.434-2.912-.35.102 1.565-.66 2.508-1.854 3.025-2.164.936-3.925.01-5.154-2.831l-1.537-3.553c-.217-.5-.098-.8.403-1.018l10.044-4.343zM617.685 247.43c.5-.217.8-.098 1.018.403l.251.582c.217.5.098.8-.403 1.017l-10.043 4.345c-.5.216-.801.097-1.018-.403l-.252-.582c-.216-.5-.097-.801.404-1.017l10.043-4.345zM619.557 251.757c.5-.216.801-.097 1.018.403l2.584 5.974c.217.5.098.802-.403 1.018l-.29.126c-.501.217-.802.097-1.018-.403l-2.026-4.682-3.084 1.334 1.487 3.439c.16.37.12.676-.218.823a1.413 1.413 0 0 1-.55.104c-.663.018-.987-.244-1.21-.76l-1.237-2.859-3.23 1.397 2.026 4.683c.217.5.098.801-.402 1.017l-.292.126c-.5.216-.8.097-1.017-.403l-2.584-5.974c-.217-.5-.098-.802.403-1.018l10.043-4.345zM619.969 266.224c.915 2.115 1.861 2.664 3.234 2.07 1.372-.593 1.604-1.652.69-3.767l-.56-1.292-3.923 1.698.559 1.291zm3.5-5.424c.5-.216.8-.098 1.017.403l1.097 2.535c1.34 3.1 1.107 5.483-1.477 6.6-1.615.699-2.96.38-4.066-.714l-3.005 3.6a.899.899 0 0 1-.37.295c-.275.118-.486-.058-.605-.333l-.334-.775c-.203-.468-.16-.813.109-1.12l2.924-3.432a9.973 9.973 0 0 1-.474-.964l-.538-1.243-3.455 1.495c-.501.216-.802.097-1.018-.403l-.252-.582c-.216-.5-.097-.801.403-1.017l10.043-4.345zM591.75 247.966c.497 2.068-.248 4.02-1.664 4.36-1.416.34-2.966-1.06-3.463-3.13-.496-2.068.249-4.02 1.664-4.36 1.416-.34 2.966 1.06 3.463 3.13" fill="#FFF"/><path d="M591.75 247.966c.497 2.068-.248 4.02-1.664 4.36-1.416.34-2.966-1.06-3.463-3.13-.496-2.068.249-4.02 1.664-4.36 1.416-.34 2.966 1.06 3.463 3.13z" stroke="#A1A7A7" stroke-width=".519"/><path d="M584.743 262.65c.497 2.07-.248 4.022-1.664 4.362-1.415.34-2.966-1.062-3.462-3.13-.497-2.07.248-4.022 1.664-4.362 1.416-.34 2.966 1.062 3.462 3.13" fill="#FFF"/><path d="M584.743 262.65c.497 2.07-.248 4.022-1.664 4.362-1.415.34-2.966-1.062-3.462-3.13-.497-2.07.248-4.022 1.664-4.362 1.416-.34 2.966 1.062 3.462 3.13z" stroke="#A1A7A7" stroke-width=".519"/><path d="M595.53 278.081c.796 1.973.756 3.849-.09 4.19-.845.34-2.175-.982-2.97-2.956-.796-1.972-.756-3.848.09-4.19.845-.34 2.175.983 2.97 2.956" fill="#FFF"/><path d="M595.53 278.081c.796 1.973.756 3.849-.09 4.19-.845.34-2.175-.982-2.97-2.956-.796-1.972-.756-3.848.09-4.19.845-.34 2.175.983 2.97 2.956z" stroke="#A1A7A7" stroke-width=".519"/><path d="M597.08 220.956a3.85 3.85 0 0 0-4.238 2.093c-.04-.009-.078-.022-.118-.03a3.844 3.844 0 0 0-3.278.847 3.842 3.842 0 0 0-2.676-2.072 3.853 3.853 0 0 0-4.55 2.997 3.83 3.83 0 0 0 .26 2.347 3.853 3.853 0 0 0-3.042 4.424 3.85 3.85 0 0 0-.196 5.832c-.115.34-.2.704-.249 1.086-.264 2.112.694 3.97 2.138 4.15 1.444.18 2.83-1.384 3.094-3.495.032-.259.045-.514.043-.763a3.85 3.85 0 0 0 3.923-2c.229-.43.364-.885.42-1.341a3.85 3.85 0 0 0 3.915-2.002c.426-.8.54-1.684.386-2.512 1.08-.28 2-1.021 2.497-2.045.04.01.078.022.119.03a3.852 3.852 0 1 0 1.553-7.546" fill="#FFF"/><path d="M597.08 220.956a3.85 3.85 0 0 0-4.238 2.093c-.04-.009-.078-.022-.118-.03a3.844 3.844 0 0 0-3.278.847 3.842 3.842 0 0 0-2.676-2.072 3.853 3.853 0 0 0-4.55 2.997 3.83 3.83 0 0 0 .26 2.347 3.853 3.853 0 0 0-3.042 4.424 3.85 3.85 0 0 0-.196 5.832c-.115.34-.2.704-.249 1.086-.264 2.112.694 3.97 2.138 4.15 1.444.18 2.83-1.384 3.094-3.495.032-.259.045-.514.043-.763a3.85 3.85 0 0 0 3.923-2c.229-.43.364-.885.42-1.341a3.85 3.85 0 0 0 3.915-2.002c.426-.8.54-1.684.386-2.512 1.08-.28 2-1.021 2.497-2.045.04.01.078.022.119.03a3.852 3.852 0 1 0 1.553-7.546z" stroke="#A1A7A7" stroke-width=".519"/><path d="M910.26 202.353l1.43-10.906s1.1-.847 1.875 1.172c.694 1.81.403 3.343-.387 5.055-.79 1.712-.693 4.825-2.918 4.68M868.333 199.604l.006-10.999s-.98-.983-2.012.917c-.924 1.703-.836 3.263-.277 5.062.56 1.8.058 4.875 2.283 5.02" fill="#D0A694"/><path d="M910.02 168.801c-3.114-3.618-10.155-8.683-18.011-9.199-7.856-.514-15.497 3.588-19.058 6.769-5.604 5.006-4.8 14.193-4.8 14.193s-1.178 23.496 2.03 29.872c3.209 6.375 9.454 16.213 17.398 16.734 7.944.521 15.421-8.418 19.434-14.32 4.014-5.902 5.914-29.35 5.914-29.35s1.996-9.004-2.907-14.699" fill="#EABBA5"/><path d="M909.889 170.808l-3.616 7.666s-.044-8.945-2.87-10.012l5.104-2.436 1.382 4.782zM896.215 165.22l-.739 10.783s-5.345-8.033-3.47-11.06c1.875-3.025 4.209.277 4.209.277M884.341 166.467l-.277 8.788s5.154-3.692 4.622-9.018c-.533-5.325-4.345.23-4.345.23M872.951 166.37s-.294 4.485 1.847 8.278l4.088-8.801" fill="#AF8741"/><path d="M865.246 174.725s5.888-12.965 11.237-13.873c2.57-.437 7.67-1.347 12.278-2.175 7.453-1.34 15.196.488 21.06 5.28.908.742 1.711 1.501 2.334 2.256 3.733 4.527-2.918 16.183-2.918 16.183s1.351-11.5-1.042-13.42-8.648 12.784-8.648 12.784-2.227-13.245-4.148-14.126c-1.92-.882-6.572 11.66-6.572 11.66s-2.7-7.986-2.187-11.983c.514-3.996-6.586 9.897-6.586 9.897s-4.179-7.076-2.711-10.254c1.467-3.179-12.097 7.771-12.097 7.771" fill="#AF8741"/><path d="M880.7 191.69a1.913 1.913 0 1 1-3.817-.25 1.913 1.913 0 0 1 3.817.25M903.023 193.153a1.913 1.913 0 1 1-3.817-.25 1.913 1.913 0 0 1 3.817.25" fill="#424545"/><path d="M880.224 213.335c5.21-5.438 11.646-3.17 14.002 1.59" fill="#A7403B"/><path d="M888.34 197.137s-2.875 3.121-3.44 5.618c-.202.893.485 1.746 1.4 1.806l.5.032c.188-2.863 1.54-7.456 1.54-7.456" fill="#D0A694"/><path d="M878.086 187.313l4.107 3.177M897.699 191.505l4.036-2.657" stroke="#424545" stroke-width=".65"/><path d="M920.829 157.013a52.337 52.337 0 0 1 3.277 32.725M929.057 163.492c1.938 6.75 2.508 10.744 1.832 18.304M853.893 182.868a52.66 52.66 0 0 1 2.496-13.02 52.046 52.046 0 0 1 7.863-15.18M849.69 177.414a34.082 34.082 0 0 1 1.616-8.435 33.694 33.694 0 0 1 5.093-9.831" stroke="#485253" stroke-width="1.95" stroke-linecap="round"/><path d="M908.565 166.474a3.146 3.146 0 0 1-5.927-2.112M905.396 176.06a3.146 3.146 0 1 1 4.717-4.164M899.044 168.458a3.146 3.146 0 0 1 .89 6.228" stroke="#485253" stroke-width="1.287" stroke-linecap="round"/><path d="M637.84 246.733s42.554 4.482 52.337 11.499M647.276 268.571s28.604-.217 38.705 6.335M641.678 257.671s38.218.97 49.372 8.465" stroke="#919898" stroke-width="1.95" stroke-linecap="round"/></g><g><path d="M905 125l-12.343 12.769a3 3 0 0 1-4.314 0L876 125H697.5a5 5 0 0 1-5-5V6a5 5 0 0 1 5-5h221a5 5 0 0 1 5 5v114a5 5 0 0 1-5 5H905z" stroke="#485253" fill="#FFF"/><text font-family="NPOSans-Bold, NPO Sans" font-size="39.65" font-weight="bold" letter-spacing=".027" fill="#919898" transform="translate(692 1)"><tspan x="50" y="69">!@#%#</tspan></text></g></g></g></g></svg>