<svg width="1379" height="614" viewBox="0 0 1379 614" xmlns="http://www.w3.org/2000/svg" xmlns:xlink="http://www.w3.org/1999/xlink" preserveAspectRatio="xMidYMax slice"><defs><path id="a" d="M.453.119h156.758v291.867H.453z"/><path id="c" d="M.174.362h108.489v.65H.173z"/><path id="e" d="M.174.526h108.489v.65H.173z"/><path id="g" d="M.174.119h331.803v291.867H.174z"/><path id="i" d="M.174 291.986H1295.06V.119H.174z"/><path id="k" d="M.477.119H395.83v291.867H.477z"/><path id="m" d="M.174 291.986H1295.06V.119H.174z"/><path id="o" d="M.63.119h395.352v291.867H.63z"/><path id="q" d="M.174 291.986H1295.06V.119H.174z"/><path id="s" d="M.132.119H172.51v291.867H.132z"/><path id="u" d="M0 791.7h1582.06V.04H0z"/><path d="M7.876.186S.371 35.426.371 56.409c0 20.983 3.718 60.726 3.718 60.726h52.277S55.33 77.392 55.33 56.409c0-20.984-2.75-56.223-2.75-56.223H7.876z" id="w"/><path d="M7.876.186S.371 35.426.371 56.409c0 20.983 3.718 60.726 3.718 60.726h52.277S55.33 77.392 55.33 56.409c0-20.984-2.75-56.223-2.75-56.223" id="y"/><path d="M7.876 22.952S.371 58.192.371 79.176c0 20.983 3.718 60.726 3.718 60.726h52.277s-1.037-39.743-1.037-60.726c0-20.984-2.75-56.224-2.75-56.224C52.58 10.611 42.572.606 30.228.606 17.883.606 7.876 10.61 7.876 22.952" id="A"/><path d="M7.876 22.952S.371 58.192.371 79.176c0 20.983 3.718 60.726 3.718 60.726h52.277s-1.037-39.743-1.037-60.726c0-20.984-2.75-56.224-2.75-56.224C52.58 10.611 42.572.606 30.228.606 17.883.606 7.876 10.61 7.876 22.952" id="C"/><path id="E" d="M0 401.35h215.534V.307H0z"/></defs><g fill="none" fill-rule="evenodd"><g><g id="car-scene"><path d="M46.531 302.516h1331.59H46.531z" fill="#FFF"/><path d="M46.531 302.516h1331.59" stroke="#A1A7A7"/><path d="M46.531 338.563h1331.59H46.531z" fill="#FFF"/><path d="M46.531 338.564h1331.59" stroke="#A1A7A7"/><path d="M46.531 345.065h1331.59H46.531z" fill="#FFF"/><path d="M46.531 345.065h1331.59" stroke="#A1A7A7"/><g transform="translate(109.25 .561)"><mask id="b" fill="#fff"><use xlink:href="#a"/></mask><path stroke="#A1A7A7" mask="url(#b)" d="M69.462 291.986h87.749V93.548h-87.75z"/><path d="M.453.119h69.01v-125.833H.452V.12zm.717-.717h67.575v-124.4H1.17v124.4z" fill="#A1A7A7" mask="url(#b)"/></g><path d="M.874 216.291h108.49V90.46H.873V216.29zm.649-.65h107.19V91.11H1.522V215.64z" fill="#A1A7A7"/><path d="M55.118 90.459v119.928" stroke="#A1A7A7"/><g transform="translate(.7 .561)"><g transform="translate(0 149.5)"><mask id="d" fill="#fff"><use xlink:href="#c"/></mask><path d="M108.663.362H.173" stroke="#A1A7A7" mask="url(#d)"/></g><g transform="translate(0 209.3)"><mask id="f" fill="#fff"><use xlink:href="#e"/></mask><path d="M108.663.526H.173" stroke="#A1A7A7" mask="url(#f)"/></g><g><mask id="h" fill="#fff"><use xlink:href="#g"/></mask><path stroke="#A1A7A7" mask="url(#h)" d="M144.717-235.398L-63.375 5.132v286.854h395.352V5.133z"/></g><mask id="j" fill="#fff"><use xlink:href="#i"/></mask><path stroke="#A1A7A7" mask="url(#j)" d="M573.364 291.986h87.75V93.548h-87.75z"/><path d="M504.355.119h69.01v-125.833h-69.01V.12zm.717-.717h67.575v-124.4h-67.575v124.4z" fill="#A1A7A7" mask="url(#j)"/></g><path d="M396.226 216.291h108.49V90.46h-108.49V216.29zm.65-.65h107.19V91.11h-107.19V215.64z" fill="#A1A7A7"/><path d="M450.47 90.459v119.928M504.715 150.423h-108.49M504.715 210.387h-108.49" stroke="#A1A7A7"/><g transform="translate(.7 .561)"><g transform="translate(331.5)"><mask id="l" fill="#fff"><use xlink:href="#k"/></mask><path stroke="#A1A7A7" mask="url(#l)" d="M208.57-235.398L.477 5.132v286.854H395.83V5.133z"/></g><mask id="n" fill="#fff"><use xlink:href="#m"/></mask><path stroke="#A1A7A7" mask="url(#n)" d="M968.716 291.986h87.75V93.548h-87.75z"/><path d="M899.707.119h69.01v-125.833h-69.01V.12zm.718-.717H968v-124.4h-67.575v124.4z" fill="#A1A7A7" mask="url(#n)"/></g><path d="M791.578 216.291h108.49V90.46h-108.49V216.29zm.65-.65h107.19V91.11h-107.19V215.64z" fill="#A1A7A7"/><path d="M845.823 90.459v119.928" stroke="#485253"/><path d="M900.067 150.423h-108.49M900.067 210.387h-108.49" stroke="#A1A7A7"/><g transform="translate(.7 .561)"><g transform="translate(726.7)"><mask id="p" fill="#fff"><use xlink:href="#o"/></mask><path stroke="#A1A7A7" mask="url(#p)" d="M208.722-235.398L.63 5.132v286.854h395.352V5.133z"/></g><mask id="r" fill="#fff"><use xlink:href="#q"/></mask><path d="M1295.06.119h69.01v-125.833h-69.01V.12zm.717-.717h67.575v-124.4h-67.575v124.4z" fill="#A1A7A7" mask="url(#r)"/></g><path d="M1186.93 216.291h108.49V90.46h-108.49V216.29zm.65-.65h107.19V91.11h-107.19V215.64z" fill="#A1A7A7"/><path d="M1241.175 90.459v119.928" stroke="#A1A7A7"/><g><path d="M1295.42 150.423h-108.49M1295.42 210.387h-108.49" stroke="#A1A7A7"/><g transform="translate(1123.25 .561)"><mask id="t" fill="#fff"><use xlink:href="#s"/></mask><path stroke="#A1A7A7" mask="url(#t)" d="M208.224-235.398L.132 5.132v286.854h395.352V5.133z"/></g></g><g transform="translate(-63 -235.389)"><path d="M565.502 693.734h-12.668a8.074 8.074 0 0 1-8.074-8.074v-12.668a8.074 8.074 0 0 1 8.074-8.074h12.668a8.074 8.074 0 0 1 8.074 8.074v12.668a8.074 8.074 0 0 1-8.074 8.074" fill="#FFF"/><path d="M565.502 693.734h-12.668a8.074 8.074 0 0 1-8.074-8.074v-12.668a8.074 8.074 0 0 1 8.074-8.074h12.668a8.074 8.074 0 0 1 8.074 8.074v12.668a8.074 8.074 0 0 1-8.074 8.074z" stroke="#A1A7A7"/><path d="M794.48 693.464h-12.668a8.074 8.074 0 0 1-8.073-8.074v-12.668a8.074 8.074 0 0 1 8.073-8.075h12.669a8.074 8.074 0 0 1 8.074 8.075v12.668a8.074 8.074 0 0 1-8.074 8.074" fill="#FFF"/><path d="M794.48 693.464h-12.668a8.074 8.074 0 0 1-8.073-8.074v-12.668a8.074 8.074 0 0 1 8.073-8.075h12.669a8.074 8.074 0 0 1 8.074 8.075v12.668a8.074 8.074 0 0 1-8.074 8.074z" stroke="#A1A7A7"/><path d="M818.787 643.793h-15.958a8.054 8.054 0 0 0-8.054 8.054v54.958a8.054 8.054 0 0 0 8.054 8.054h15.958a8.054 8.054 0 0 0 8.054-8.054v-54.958a8.054 8.054 0 0 0-8.054-8.054" fill="#FFF"/><path d="M818.787 643.793h-15.958a8.054 8.054 0 0 0-8.054 8.054v54.958a8.054 8.054 0 0 0 8.054 8.054h15.958a8.054 8.054 0 0 0 8.054-8.054v-54.958a8.054 8.054 0 0 0-8.054-8.054z" stroke="#A1A7A7"/><path d="M528.528 643.793h15.958a8.054 8.054 0 0 1 8.054 8.054v54.958a8.054 8.054 0 0 1-8.054 8.054h-15.958a8.054 8.054 0 0 1-8.055-8.054v-54.958a8.054 8.054 0 0 1 8.055-8.054" fill="#FFF"/><path d="M528.528 643.793h15.958a8.054 8.054 0 0 1 8.054 8.054v54.958a8.054 8.054 0 0 1-8.054 8.054h-15.958a8.054 8.054 0 0 1-8.055-8.054v-54.958a8.054 8.054 0 0 1 8.055-8.054z" stroke="#A1A7A7"/><path d="M785.284 536.477l-111.627-1.635-111.626 1.635c-2.08.03-3.477-2.125-2.593-4.008 2.381-5.083 6.437-13.778 8.919-19.326 3.684-8.234 14.3-25.784 18.85-30.334 4.105-4.104 72.996-5.211 86.45-5.389 13.455.178 82.346 1.285 86.45 5.39 4.55 4.55 15.167 22.1 18.85 30.333 2.482 5.548 6.538 14.243 8.92 19.326.883 1.883-.513 4.038-2.593 4.008m-34.183 114.899c-1.175 6.428-3.785 18.654-6.81 19.825-9.714 3.76-49.538 3.895-70.634 3.9-21.095-.005-60.92-.14-70.634-3.9-3.024-1.17-5.634-13.397-6.81-19.825a3.308 3.308 0 0 1 3.258-3.9h148.372a3.307 3.307 0 0 1 3.258 3.9m71.623-62.617c-5.2-12.133-10.4-27.733-14.3-35.533 0 0-15.167-39.433-26-54.167-10.833-14.733-18.2-22.966-24.267-23.833-6.066-.867-84.5-5.185-84.5-5.185s-78.433 4.318-84.5 5.185c-6.066.867-13.433 9.1-24.266 23.833-10.834 14.734-26 54.167-26 54.167-3.9 7.8-9.1 23.4-14.3 35.533-5.2 12.134-5.634 26.434-3.034 50.267 1.665 15.255 5.992 30.333 8.89 39.21a11.628 11.628 0 0 0 11.056 8.023H805.812c5.034 0 9.492-3.237 11.054-8.023 2.9-8.877 7.227-23.955 8.891-39.21 2.6-23.833 2.167-38.133-3.033-50.267" fill="#FFF"/><path d="M785.284 536.477l-111.627-1.635-111.626 1.635c-2.08.03-3.477-2.125-2.593-4.008 2.381-5.083 6.437-13.778 8.919-19.326 3.684-8.234 14.3-25.784 18.85-30.334 4.105-4.104 72.996-5.211 86.45-5.389 13.455.178 82.346 1.285 86.45 5.39 4.55 4.55 15.167 22.1 18.85 30.333 2.482 5.548 6.538 14.243 8.92 19.326.883 1.883-.513 4.038-2.593 4.008zm-34.183 114.899c-1.175 6.428-3.785 18.654-6.81 19.825-9.714 3.76-49.538 3.895-70.634 3.9-21.095-.005-60.92-.14-70.634-3.9-3.024-1.17-5.634-13.397-6.81-19.825a3.308 3.308 0 0 1 3.258-3.9h148.372a3.307 3.307 0 0 1 3.258 3.9zm71.623-62.617c-5.2-12.133-10.4-27.733-14.3-35.533 0 0-15.167-39.433-26-54.167-10.833-14.733-18.2-22.966-24.267-23.833-6.066-.867-84.5-5.185-84.5-5.185s-78.433 4.318-84.5 5.185c-6.066.867-13.433 9.1-24.266 23.833-10.834 14.734-26 54.167-26 54.167-3.9 7.8-9.1 23.4-14.3 35.533-5.2 12.134-5.634 26.434-3.034 50.267 1.665 15.255 5.992 30.333 8.89 39.21a11.628 11.628 0 0 0 11.056 8.023H805.812c5.034 0 9.492-3.237 11.054-8.023 2.9-8.877 7.227-23.955 8.891-39.21 2.6-23.833 2.167-38.133-3.033-50.267z" stroke="#A1A7A7"/><path d="M671.38 587.025h-74.211c0 9.75 2.6 13.975 6.5 15.275 3.9 1.3 46.8 5.85 52.975 6.825 6.175.975 9.321 4.225 14.736 4.225 5.414 0 8.56-3.25 14.735-4.225 6.175-.975 49.075-5.525 52.975-6.825 3.9-1.3 6.5-5.525 6.5-15.275h-74.21z" fill="#FFF"/><path d="M671.38 587.025h-74.211c0 9.75 2.6 13.975 6.5 15.275 3.9 1.3 46.8 5.85 52.975 6.825 6.175.975 9.321 4.225 14.736 4.225 5.414 0 8.56-3.25 14.735-4.225 6.175-.975 49.075-5.525 52.975-6.825 3.9-1.3 6.5-5.525 6.5-15.275h-74.21z" stroke="#A1A7A7"/><path d="M787.877 532.469c-2.382-5.082-6.437-13.779-8.92-19.327-3.683-8.233-14.3-25.783-18.85-30.333-4.104-4.104-72.995-5.211-86.45-5.389-13.455.178-82.345 1.285-86.45 5.389-4.55 4.55-15.166 22.1-18.85 30.334-2.481 5.547-6.537 14.244-8.92 19.326-.882 1.884.513 4.038 2.594 4.008h223.253c2.08.03 3.476-2.124 2.593-4.008" fill="#FFF"/><path d="M787.877 532.469c-2.382-5.082-6.437-13.779-8.92-19.327-3.683-8.233-14.3-25.783-18.85-30.333-4.104-4.104-72.995-5.211-86.45-5.389-13.455.178-82.345 1.285-86.45 5.389-4.55 4.55-15.166 22.1-18.85 30.334-2.481 5.547-6.537 14.244-8.92 19.326-.882 1.884.513 4.038 2.594 4.008h223.253c2.08.03 3.476-2.124 2.593-4.008z" stroke="#A1A7A7"/><g><path d="M806.845 549.22s22.596 2.706 28.23-2.06c5.632-4.768 4.257-14.95 2.887-17.984-1.105-2.445-19.554-3.482-27.548-3.34a3.73 3.73 0 0 0-3.654 3.554c-.415 8.017-2.201 14.199-2.201 14.199" fill="#FFF"/><path d="M806.845 549.22s22.596 2.706 28.23-2.06c5.632-4.768 4.257-14.95 2.887-17.984-1.105-2.445-19.554-3.482-27.548-3.34a3.73 3.73 0 0 0-3.654 3.554c-.415 8.017-2.201 14.199-2.201 14.199" stroke="#A1A7A7"/></g><path d="M802.466 591.9c-2.024.81-23.4 4.876-27.625 4.861-2.872-.01-5.144-3.603-6.304-8.66-1.148-5.005-.392-10.307 2.17-14.756.209-.362.425-.713.645-1.044.766-1.149 1.147-2.506 1.038-3.882-.416-5.288-.726-11.762 6.026-13.73 7.8-2.276 22.898-2.276 25.83 0 2.932 2.274 9.511 13.013 8.782 20.183-1.137 11.179-6.5 15.404-10.562 17.029" fill="#FFF"/><path d="M802.466 591.9c-2.024.81-23.4 4.876-27.625 4.861-2.872-.01-5.144-3.603-6.304-8.66-1.148-5.005-.392-10.307 2.17-14.756.209-.362.425-.713.645-1.044.766-1.149 1.147-2.506 1.038-3.882-.416-5.288-.726-11.762 6.026-13.73 7.8-2.276 22.898-2.276 25.83 0 2.932 2.274 9.511 13.013 8.782 20.183-1.137 11.179-6.5 15.404-10.562 17.029z" stroke="#A1A7A7"/><path d="M774.44 663.974c-.499.904.193 2.006 1.224 1.972 6.031-.197 23.192-1.065 28.914-4.658 6.988-4.387 10.563-15.925 10.4-18.85-.162-2.925-21.775 4.225-26.162 6.825-3.859 2.287-11.488 9.474-14.376 14.711" fill="#FFF"/><path d="M774.44 663.974c-.499.904.193 2.006 1.224 1.972 6.031-.197 23.192-1.065 28.914-4.658 6.988-4.387 10.563-15.925 10.4-18.85-.162-2.925-21.775 4.225-26.162 6.825-3.859 2.287-11.488 9.474-14.376 14.711z" stroke="#A1A7A7"/><g><path d="M540.47 549.22s-22.596 2.706-28.23-2.06c-5.633-4.768-4.257-14.95-2.887-17.984 1.105-2.445 19.553-3.482 27.548-3.34a3.73 3.73 0 0 1 3.653 3.554c.416 8.017 2.202 14.199 2.202 14.199" fill="#FFF"/><path d="M540.47 549.22s-22.596 2.706-28.23-2.06c-5.633-4.768-4.257-14.95-2.887-17.984 1.105-2.445 19.553-3.482 27.548-3.34a3.73 3.73 0 0 1 3.653 3.554c.416 8.017 2.202 14.199 2.202 14.199" stroke="#A1A7A7"/></g><mask id="v" fill="#fff"><use xlink:href="#u"/></mask><path fill="#1AC5E3" mask="url(#v)" d="M625.884 639.025h95.546V618.55h-95.546z"/><path d="M544.849 591.9c2.024.81 23.4 4.876 27.625 4.861 2.872-.01 5.143-3.603 6.304-8.66 1.148-5.005.392-10.307-2.17-14.756a18.824 18.824 0 0 0-.646-1.044c-.765-1.149-1.146-2.506-1.038-3.882.416-5.288.726-11.762-6.025-13.73-7.8-2.276-22.899-2.276-25.831 0-2.932 2.274-9.51 13.013-8.782 20.183 1.138 11.179 6.5 15.404 10.563 17.029" fill="#FFF" mask="url(#v)"/><path d="M544.849 591.9c2.024.81 23.4 4.876 27.625 4.861 2.872-.01 5.143-3.603 6.304-8.66 1.148-5.005.392-10.307-2.17-14.756a18.824 18.824 0 0 0-.646-1.044c-.765-1.149-1.146-2.506-1.038-3.882.416-5.288.726-11.762-6.025-13.73-7.8-2.276-22.899-2.276-25.831 0-2.932 2.274-9.51 13.013-8.782 20.183 1.138 11.179 6.5 15.404 10.563 17.029z" stroke="#A1A7A7" mask="url(#v)"/><path d="M572.875 663.974c.498.904-.193 2.006-1.225 1.972-6.031-.197-23.192-1.065-28.914-4.658-6.987-4.387-10.562-15.925-10.4-18.85.163-2.925 21.775 4.225 26.163 6.825 3.858 2.287 11.487 9.474 14.376 14.711" fill="#FFF" mask="url(#v)"/><path d="M572.875 663.974c.498.904-.193 2.006-1.225 1.972-6.031-.197-23.192-1.065-28.914-4.658-6.987-4.387-10.562-15.925-10.4-18.85.163-2.925 21.775 4.225 26.163 6.825 3.858 2.287 11.487 9.474 14.376 14.711z" stroke="#A1A7A7" mask="url(#v)"/><g mask="url(#v)"><g><path d="M772.39 568.419s-81.833-6.743-98.733-6.743" fill="#FFF"/><path d="M772.39 568.419s-81.833-6.743-98.733-6.743" stroke="#A1A7A7"/></g></g><g mask="url(#v)"><g><path d="M574.924 568.419s81.833-6.743 98.733-6.743" fill="#FFF"/><path d="M574.924 568.419s81.833-6.743 98.733-6.743" stroke="#A1A7A7"/></g></g></g><text font-family="NPOSans-Bold, NPO Sans" font-size="14.3" font-weight="bold" fill="#FFF" transform="translate(-63 -236)"><tspan x="641.946" y="633.78">1</tspan> <tspan x="646.88" y="633.78" letter-spacing=".286">4</tspan> <tspan x="656.475" y="633.78">-D</tspan> <tspan x="672.277" y="633.78" letter-spacing=".287">S</tspan> <tspan x="680.973" y="633.78">-RN</tspan></text></g><g id="car-people"><path d="M947.095 316.854l47.895 89.93" stroke="#4B3726" stroke-width="17.236" stroke-linecap="round"/><path d="M979.059 376.87l15.93 29.914" stroke="#F5C2B0" stroke-width="17.236"/><path d="M986.469 390.784l16.63 31.225" stroke="#F5C2B0" stroke-width="17.236" stroke-linecap="round"/><g><path d="M1018.572 427.428c.642 1.291.16 2.964-1.073 3.715a2.614 2.614 0 0 1-3.503-1.177l.639 1.286c.63 1.267.245 2.875-.988 3.57a2.614 2.614 0 0 1-3.628-1.112 2.614 2.614 0 0 1-1.426 3.611c-1.279.484-2.714-.195-3.322-1.419l-2.122-4.27 1.44 2.898c.562 1.132.312 2.55-.694 3.316a2.617 2.617 0 0 1-3.945-.903l-1.43-2.878c-.032 2.48-.07 4.978-1.066 5.576-.66.397-3.024 1.25-4.275-1.774-.803-1.942-.132-6.204.452-9.012.237-1.139.454-2.025.557-2.43l.002-.002c3.297-7.465 12.711-10.492 19.82-5.747a8.157 8.157 0 0 1 2.774 3.152l1.788 3.6z" fill="#F5C2B0"/><path d="M944.173 605.725c2.786-.388 4.71-2.96 4.355-5.75-1.057-8.31-8.412-9.157-17.108-10.411-8.696-1.254-15.992-2.519-19.354 5.154-1.129 2.576-.01 5.587 2.553 6.745l2.241 1.014a45.253 45.253 0 0 0 24.877 3.586l2.436-.338z" fill="#565445"/><path d="M950.324 425.036c12.785 1.843 21.653 13.7 19.81 26.481l-1.12 7.76c-.019.075-18.336 78.085-24.2 118.734-2.933 20.336-10.733 23.774-17.862 22.547-7.128-1.228-13.584-7.12-10.763-26.674 5.64-39.11 7.65-129.042 7.65-129.042 1.843-12.782 13.702-21.65 26.485-19.806" fill="#5A4230"/><path d="M918.758 606.627l4.53-.669a24.542 24.542 0 0 1 6.544-.084l4.876.592 6.47-12.914-.028.029a10.508 10.508 0 0 1-2.887 2.116c-1.578.793-3.187 1.634-4.875 1.53-1.478-.091-3.949-.526-5.362-1.012a16.124 16.124 0 0 1-4.042-2.04 46.35 46.35 0 0 1-1.366-.997c-1.024-.777-4.781-2.435-4.781-2.435-3.032-1.243-4.934-1.35-8.21-1.298l-10.998.18" fill="#5E5D4E"/><path d="M923.546 606.365c2.785-.388.648-3.907.292-6.697-1.057-8.31-9.442-8.944-13.046-9.464-8.696-1.254-15.99-2.519-19.353 5.154-1.129 2.576-.01 5.587 2.553 6.745l2.241 1.014a45.253 45.253 0 0 0 24.877 3.586l2.436-.338z" fill="#5E5D4E"/><path d="M913.164 263.927c1.505-1.736 3.82-4.15 4.398-5.315.58-1.165-1.736-4.521-1.62-5.563.115-1.042 2.547-11.225 4.051-14.35 1.505-3.124 12.783-7.374 16.457-7.56 5.674-.289 12.129.985 14.448 3.163 3.82 3.587 6.829 9.026 6.366 16.316-.463 7.292-4.283 14.235-3.588 18.864.447 2.987.537 7.272.518 11.647-.003.73.038 1.465.134 2.19 1.052 7.973.253 14.019.253 14.019l-26.467 3.18c2.82-2.819 4.205-7.54 4.836-12.339-.068-.51-.958-6.198-6.706-6.198-6.02 0-7.409-.347-7.409-3.703 0-3.357-.289-4.34-1.504-5.555-1.216-1.216 1.158-3.935-1.158-4.977-2.315-1.041-4.514-2.083-3.009-3.819" fill="#EABBA5"/><path d="M964.498 604.425c2.702-.781 4.24-3.601 3.49-6.312-2.233-8.074-9.634-7.863-18.42-7.863-8.785 0-16.187-.21-18.42 7.863-.749 2.71.788 5.53 3.491 6.312l2.362.683a45.245 45.245 0 0 0 25.134 0l2.363-.683z" fill="#565445"/><path d="M946.806 424.709c12.916 0 23.387 10.469 23.387 23.383v7.84c-.008.077-7 79.902-7 120.972 0 20.546-7.231 25.062-14.462 24.865-7.23-.198-14.46-5.108-14.46-24.865 0-39.514-10.852-128.812-10.852-128.812 0-12.914 10.47-23.383 23.387-23.383" fill="#4B3726"/><path d="M952.362 610.825c2.702-.782 4.24-3.601 3.49-6.312-2.233-8.074-9.634-7.864-18.42-7.864-8.785 0-16.187-.21-18.42 7.864-.75 2.71.788 5.53 3.49 6.312l2.363.683a45.245 45.245 0 0 0 25.134 0l2.363-.683z" fill="#565445"/><path d="M952.362 610.825l3.715-2.678a24.534 24.534 0 0 1 5.771-3.084l4.602-1.718-2.242-9.878-.354.29a16.548 16.548 0 0 1-8.055 3.56c-1.512.223-3.05.25-4.566.043a46.612 46.612 0 0 1-3.357-.583l-10.444-2.207-3.687-1.103-12.232 6.496" fill="#565445"/><path d="M929.87 301.685c4.14-8.777 17.224-8.397 17.224-8.397s6.956-.43 9.603 2.218" stroke="#4B3726" stroke-width="4.055"/><path d="M925.22 316.173c0-12.079 9.793-21.87 21.874-21.87 12.082 0 21.875 9.791 21.875 21.87 0 0 2.69 34.488 2.69 55.024 0 18.309.808 51.186.983 58.107.022.438.034.88.034 1.323 0 14.126-11.454 25.577-25.582 25.577-14.127 0-25.58-11.451-25.58-25.577 0 0-3.639-38.894-3.639-59.43s7.345-55.024 7.345-55.024" fill="#7F5C2D"/><path d="M999.244 401.113c-2.246 0-4.711.65-7.029 1.987-5.452 3.147-8.016 8.915-5.726 12.881 1.318 2.281 3.953 3.47 6.992 3.47 2.246 0 4.712-.65 7.029-1.987 5.452-3.147 8.017-8.915 5.726-12.881-1.317-2.282-3.953-3.47-6.992-3.47m.001 2.03c2.425 0 4.332.894 5.233 2.454.775 1.342.755 3.085-.056 4.909-.908 2.045-2.659 3.891-4.927 5.2-1.916 1.106-4.051 1.716-6.014 1.716-2.425 0-4.333-.895-5.234-2.456-.775-1.34-.754-3.084.056-4.909.91-2.044 2.659-3.89 4.927-5.2 1.916-1.106 4.052-1.714 6.015-1.714" fill="#5A6566"/><path d="M958.394 246.105l-1.286 8.528s-2.107-6.905-5.198-8.525l-1.116 7.573s-2.305-8.15-1.944-10.736c.2-1.443-1.248-.78-3.666.695-2.233 1.363-2.531 6.38-2.531 6.38-2.026-2.444-2.46-5.594-2.146-9.86-2.404.876-5.752 5.306-6.098 8.14-1.868-2.927-1.485-10.528-1.485-10.528s-4.062 2.381-4.103 8.492c-2.396-1.86-2.723-7.465-2.723-7.465s-4.248 6.052-4.113 8.562c.134 2.51-1.888-11.754-1.888-11.754s7.676-7.202 23.265-4.595c15.59 2.607 15.032 15.093 15.032 15.093" fill="#AF8741"/><path d="M956.037 247.67s-1.944 3.812-2.843 4.104l-2.049-5.696s-2.19-1.16-4.896 3.66c0 0-.005-8.084-3.507-7.543-3.503.54-4.527 3.023-4.781 4.135-.76-2.898-2.647-5.29-2.479-6.975 0 0-3.654 2.801-4.033 5.31l-2.907-6.356s-2.818 3.936-3.058 5.525c0 0-1.85-3.614-1.892-5.031l6.763-4.581 16.65 3.022 9.032 10.426zM922.147 239.253s-2.79 1.716-3.693 7.077c0 0-.535-7.922-.112-8.514.422-.592 1.754-2.21 1.754-2.21" fill="#AF8741"/><path d="M947.095 316.854l55.35 85.544" stroke="#4B3726" stroke-width="17.236" stroke-linecap="round"/><path d="M984.035 373.944l18.41 28.454" stroke="#EABBA5" stroke-width="17.236"/><path d="M992.598 387.179l19.219 29.702" stroke="#EABBA5" stroke-width="17.236" stroke-linecap="round"/><path d="M1028.083 418.979c.807 1.196.548 2.917-.575 3.824a2.615 2.615 0 0 1-3.629-.708l.803 1.191c.79 1.174.62 2.818-.51 3.669a2.614 2.614 0 0 1-3.744-.627 2.615 2.615 0 0 1-.939 3.768c-1.204.647-2.716.163-3.48-.971l-2.664-3.954 1.808 2.683c.706 1.048.644 2.487-.253 3.378a2.617 2.617 0 0 1-4.03-.378l-1.795-2.665c.294 2.463.584 4.944-.324 5.667-.603.48-2.834 1.636-4.471-1.197-1.05-1.82-.945-6.133-.735-8.994.085-1.16.184-2.066.234-2.482v-.002c2.29-7.833 11.225-12.069 18.895-8.297a8.154 8.154 0 0 1 3.164 2.76l2.245 3.335z" fill="#EABBA5"/><path fill="#F5C2B0" d="M998.452 394.934l-14.669 9.156 4.815 9.042 14.669-9.157z"/><path d="M1008.273 396.028c-2.376 0-4.985.687-7.436 2.102-5.77 3.33-8.482 9.431-6.058 13.628 1.393 2.414 4.181 3.671 7.396 3.671 2.376 0 4.985-.687 7.437-2.102 5.769-3.33 8.481-9.432 6.058-13.628-1.394-2.413-4.182-3.67-7.397-3.67m0 2.029c2.609 0 4.664.968 5.639 2.656.839 1.452.82 3.335-.054 5.3-.971 2.185-2.84 4.158-5.261 5.556-2.045 1.18-4.325 1.83-6.422 1.83-2.608 0-4.664-.968-5.639-2.656-.839-1.453-.82-3.336.054-5.3.971-2.186 2.84-4.159 5.261-5.556 2.045-1.18 4.326-1.83 6.423-1.83" fill="#5A6566"/><path d="M999.84 382.494c-.06-.094-.13-.179-.194-.27l-14.78 8.768c.146.296.306.587.49.872l11.73 18.129 14.698-9.04-11.944-18.459z" fill="#EABBA5"/><path d="M993.525 420.009a1.611 1.611 0 1 1-3.223 0 1.611 1.611 0 0 1 3.223 0" fill="#5A6566"/><path d="M995.137 422.009a1.611 1.611 0 1 1-3.223 0 1.611 1.611 0 0 1 3.223 0" fill="#5A6566"/><path d="M997.356 422.009a1.611 1.611 0 1 1-3.222 0 1.611 1.611 0 0 1 3.222 0" fill="#5A6566"/><path d="M999.585 422.009a1.611 1.611 0 1 1-3.222 0 1.611 1.611 0 0 1 3.222 0" fill="#5A6566"/><path d="M1001.548 421.09a1.611 1.611 0 1 1-3.223 0 1.611 1.611 0 0 1 3.223 0" fill="#5A6566"/><path d="M1003.159 419.818a1.611 1.611 0 1 1-3.223 0 1.611 1.611 0 0 1 3.223 0" fill="#5A6566"/><path d="M1005.019 418.207a1.611 1.611 0 1 1-3.223 0 1.611 1.611 0 0 1 3.223 0" fill="#5A6566"/><path d="M1006.452 417.192a1.611 1.611 0 1 1-3.223 0 1.611 1.611 0 0 1 3.223 0" fill="#5A6566"/><path d="M1007.314 415.581a1.611 1.611 0 1 1-3.223 0 1.611 1.611 0 0 1 3.223 0" fill="#5A6566"/><path d="M920.432 258.346c0-.728.433-1.319 1.5-1.319 1.065 0 1.93.59 1.93 1.32 0 .728-.865 1.319-1.93 1.319-1.067 0-1.5-.591-1.5-1.32" fill="#424545"/><path d="M1015.104 402.067a8.811 8.811 0 0 1-6.975-14.192l63.563-82.457a8.814 8.814 0 0 1 12.362-1.6 8.81 8.81 0 0 1 1.6 12.359l-63.563 82.457a8.8 8.8 0 0 1-6.987 3.433" fill="#223D4B"/><path fill="#EABBA5" d="M1022.091 398.634l-13.962-10.759 21.143-27.427 13.962 10.759z"/><path d="M1004.343 416.027a8.811 8.811 0 0 1-6.975-14.192l22.07-28.63c2.972-3.857 8.506-4.57 12.361-1.6a8.811 8.811 0 0 1 1.6 12.358l-22.069 28.63a8.8 8.8 0 0 1-6.987 3.434" fill="#EABBA5"/><path d="M1075.688 605.965c2.847-.396 4.813-3.024 4.45-5.875-1.08-8.49-8.596-9.357-17.481-10.638-8.886-1.281-16.34-2.574-19.776 5.267-1.154 2.631-.01 5.708 2.609 6.891l2.29 1.036a46.229 46.229 0 0 0 25.418 3.665l2.49-.346z" fill="#1C2F35"/><path d="M1081.973 421.338c13.063 1.884 22.125 13.998 20.241 27.058l-1.144 7.93c-.019.075-18.735 79.787-24.726 121.321-2.997 20.78-10.968 24.292-18.252 23.038-7.284-1.253-13.88-7.274-10.998-27.255 5.764-39.962 7.816-131.855 7.816-131.855 1.884-13.06 14-22.121 27.063-20.237" fill="#263E45"/><path d="M1049.719 606.887l4.63-.684a25.091 25.091 0 0 1 6.685-.085l4.983.605 6.61-13.196-.028.03a10.734 10.734 0 0 1-2.95 2.162c-1.612.81-3.256 1.67-4.981 1.563-1.51-.093-4.035-.538-5.479-1.034a16.498 16.498 0 0 1-4.13-2.084 47.497 47.497 0 0 1-1.395-1.02c-1.047-.793-4.886-2.487-4.886-2.487-3.098-1.27-5.043-1.38-8.39-1.326l-11.237.184" fill="#1C2F35"/><path d="M1054.61 606.619c2.848-.396.663-3.992.3-6.843-1.08-8.491-9.648-9.139-13.33-9.67-8.885-1.281-16.34-2.574-19.776 5.267-1.153 2.631-.01 5.708 2.61 6.891l2.29 1.036a46.229 46.229 0 0 0 25.418 3.665l2.489-.346z" fill="#1C2F35"/><path d="M1044.003 256.718c1.537-1.774 3.903-4.24 4.494-5.431.592-1.191-1.774-4.62-1.655-5.685.117-1.064 2.601-11.47 4.139-14.663 1.537-3.193 3.548-5.084 7.924-5.794s19.751-2.365 23.654 1.3c3.903 3.666 6.978 9.224 6.505 16.674-.473 7.45-4.376 14.544-3.666 19.275.458 3.051.55 7.43.53 11.9-.004.746.038 1.497.136 2.237 1.075 8.148.259 14.325.259 14.325l-27.044 3.25c2.88-2.88 4.297-7.704 4.942-12.608-.07-.522-.979-6.333-6.853-6.333-6.15 0-7.57-.355-7.57-3.785 0-3.429-.295-4.434-1.537-5.675-1.242-1.242 1.182-4.021-1.183-5.085s-4.612-2.129-3.075-3.902" fill="#EABBA5"/><path d="M1096.456 604.637c2.76-.798 4.332-3.68 3.566-6.45-2.281-8.249-9.844-8.034-18.821-8.034-8.978 0-16.54-.215-18.821 8.034-.767 2.77.804 5.652 3.566 6.45l2.414.698a46.237 46.237 0 0 0 25.681 0l2.415-.698z" fill="#1B2C35"/><path d="M1078.378 421.003c13.198 0 23.897 10.698 23.897 23.893v8.011c-.008.079-7.153 81.644-7.153 123.61 0 20.993-7.388 25.607-14.776 25.406-7.389-.202-14.777-5.22-14.777-25.407 0-40.375-11.087-131.62-11.087-131.62 0-13.195 10.699-23.893 23.896-23.893" fill="#20363F"/><path d="M1084.055 611.176c2.761-.798 4.332-3.68 3.567-6.45-2.282-8.249-9.845-8.034-18.822-8.034-8.977 0-16.54-.215-18.82 8.035-.767 2.77.804 5.651 3.565 6.45l2.414.697a46.237 46.237 0 0 0 25.682 0l2.414-.698z" fill="#1B2C35"/><path d="M1084.055 611.176l3.796-2.736a25.05 25.05 0 0 1 5.897-3.151l4.702-1.755-2.29-10.093-.362.296a16.904 16.904 0 0 1-8.23 3.637 16.588 16.588 0 0 1-4.666.044 48.218 48.218 0 0 1-3.43-.595l-10.672-2.256-3.767-1.126-12.498 6.637" fill="#1B2C35"/><path d="M1052.535 427.051c0 14.434 11.702 26.134 26.138 26.134 14.436 0 26.139-11.7 26.139-26.134 0-14.434-11.703-26.134-26.139-26.134s-26.138 11.7-26.138 26.134" fill="#293F4E"/><path d="M1052.535 427.051s-3.718-39.742-3.718-60.726c0-20.983 7.505-56.223 7.505-56.223h44.703s2.75 35.24 2.75 56.223c0 20.984 1.037 60.726 1.037 60.726h-52.277z" fill="#293F4E"/><path d="M1062.95 296.183l-3.753-1.769c4.603-9.758 18.036-9.808 19.438-9.77 1.164-.066 8.142-.3 11.316 2.874l-2.933 2.932c-1.4-1.4-5.65-1.811-8.22-1.662l-.091.006-.094-.004c-.115.004-12.072-.223-15.664 7.393" fill="#16272F"/><path d="M1056.322 310.102c0 12.342 10.007 22.348 22.351 22.348s22.352-10.006 22.352-22.348c0-12.342-10.008-22.347-22.352-22.347-12.344 0-22.351 10.005-22.351 22.347M1046.942 239.801h44.74l-.759-7.746c-1.078-11.01-10.337-19.404-21.4-19.404-10.655 0-19.703 7.8-21.27 18.336l-1.311 8.814z" fill="#293F4E"/><path d="M1053.263 239.801h-6.321s-25.036 0-25.036-10.244c0 0 5.103 4.607 13.014 6.345 7.91 1.738 18.343 3.9 18.343 3.9" fill="#16272F"/></g><g><g transform="translate(1048.446 309.916)"><mask id="x" fill="#fff"><use xlink:href="#w"/></mask><path fill="#C6F3AC" mask="url(#x)" d="M1.202 6.565h29.025v6.998H1.12z"/></g><g transform="translate(1048.446 309.916)"><mask id="z" fill="#fff"><use xlink:href="#y"/></mask><path d="M.964 27.06l.068-5.91h29.195v11.917H.957C.941 31.065.94 29.06.964 27.06" fill="#C6F3AC" mask="url(#z)"/></g></g><g><path d="M1007.87 423.596c-.879 1.184-2.625 1.521-3.88.748h-.001a2.67 2.67 0 0 1-.554-3.735l-.875 1.18c-.861 1.16-2.503 1.556-3.708.757a2.67 2.67 0 0 1-.672-3.818 2.672 2.672 0 0 1-3.95.379c-1.033-.94-1.082-2.561-.25-3.683l2.902-3.914-1.969 2.656c-.77 1.037-2.177 1.468-3.34.908a2.673 2.673 0 0 1-1.01-4.01l1.956-2.638c-2.273 1.123-4.564 2.248-5.57 1.62-.669-.418-2.543-2.173-.37-4.715 1.395-1.632 5.587-3 8.415-3.772a58.46 58.46 0 0 1 2.47-.62h.003c8.327-.464 15.453 6.699 14.432 15.371a8.33 8.33 0 0 1-1.582 3.988l-2.447 3.298z" fill="#EABBA5"/><path d="M1048.817 366.325c22.953 3.852 54.957 0 54.957 0v-9.606s-32.004 3.851-54.957 0v9.606z" fill="#B7BCBB"/></g><g><g transform="translate(1048.446 287.15)"><mask id="B" fill="#fff"><use xlink:href="#A"/></mask><path d="M31.347.605S12.36.95 1.872 54.322c0 0-2.24-3.06.817-15.964C5.286 27.397 13.246 9.485 15.173 6.435 19.78-.863 31.347.605 31.347.605" fill="#B7BCBB" mask="url(#B)"/></g><g transform="translate(1048.446 287.15)"><mask id="D" fill="#fff"><use xlink:href="#C"/></mask><path d="M27.154.486S46.807.95 57.296 54.322c0 0 2.24-3.06-.817-15.965C53.882 27.397 45.92 9.485 43.995 6.435 39.387-.863 27.155.485 27.155.485" fill="#B7BCBB" mask="url(#D)"/></g></g><g transform="translate(891 212.343)"><path d="M145.682 202.535a8.813 8.813 0 0 1-8.061-12.368L179.607 94.9c1.964-4.453 7.166-6.471 11.62-4.51a8.812 8.812 0 0 1 4.512 11.618l-41.987 95.266a8.816 8.816 0 0 1-8.07 5.26" fill="#223D4B"/><path fill="#EABBA5" d="M153.752 197.274l-16.131-7.107 13.966-31.688 16.131 7.107z"/><path d="M138.573 218.663a8.812 8.812 0 0 1-8.061-12.368l14.579-33.077c1.964-4.452 7.167-6.47 11.62-4.51a8.812 8.812 0 0 1 4.511 11.618l-14.578 33.077a8.816 8.816 0 0 1-8.07 5.26" fill="#EABBA5"/><path d="M144 225.698c-.633 1.331-2.281 2-3.663 1.486a2.67 2.67 0 0 1-1.267-3.558l-.63 1.326c-.62 1.306-2.154 2.012-3.492 1.461a2.67 2.67 0 0 1-1.399-3.615 2.672 2.672 0 0 1-3.8 1.136c-1.197-.722-1.559-2.302-.96-3.564l2.09-4.401-1.418 2.986c-.554 1.167-1.85 1.862-3.101 1.538a2.673 2.673 0 0 1-1.767-3.739l1.408-2.966c-2.013 1.541-4.043 3.089-5.152 2.667-.736-.28-2.915-1.64-1.276-4.553 1.053-1.872 4.9-4.025 7.525-5.331a58.31 58.31 0 0 1 2.304-1.086c.001 0 .002 0 .002-.002 8.08-2.067 16.459 3.58 17.137 12.287a8.331 8.331 0 0 1-.78 4.218l-1.762 3.71z" fill="#EABBA5"/><path d="M193.082 79.61c-1.943-1.693-8.482-3.581-11.958-.403-2.707-2.406 3.476-3.178 3.476-3.178l5.675-.272 2.807 3.853z" fill="#B7BCBB"/><path d="M184.6 76.029a5.784 5.784 0 0 0 4.192 0v-9.356H184.6v9.356z" fill="#272828"/><path d="M178.025 66.673h17.342c.748 0 1.355-.607 1.355-1.355v-24.69c0-.749-.607-1.356-1.355-1.356h-17.342c-.748 0-1.355.607-1.355 1.355v24.69c0 .75.607 1.356 1.355 1.356" fill="#A1A7A7"/><mask id="F" fill="#fff"><use xlink:href="#E"/></mask><path fill="#424545" mask="url(#F)" d="M175.077 59.753h1.593V42.907h-1.593z"/></g></g></g></g></svg>